<ttFont>
<head>
    <!-- Most of this table will be recalculated by the compiler -->
    <tableVersion value="1.0"/>
    <fontRevision value="1.0"/>
    <checkSumAdjustment value="0x22b68a1c"/>
    <magicNumber value="0x5f0f3cf5"/>
    <flags value="00000000 00000011"/>
    <unitsPerEm value="2048"/>
    <created value="Thu Aug 15 19:12:24 2019"/>
    <modified value="Fri Aug 16 02:19:12 2019"/>
    <xMin value="-404"/>
    <yMin value="-538"/>
    <xMax value="3258"/>
    <yMax value="1955"/>
<macStyle value="00000000 00000010"/>
    <lowestRecPPEM value="3"/>
    <fontDirectionHint value="2"/>
    <indexToLocFormat value="0"/>
    <glyphDataFormat value="0"/>
  </head>
          <CharString index="0">
            -70 callsubr
            105 hhcurveto
            return
          </CharString>
          <CharString index="1">
            rmoveto
            -230 117 -129 145 return
          </CharString>
          <CharString index="2">
            rmoveto
            -35 callsubr
            15 callsubr
            endchar
          </CharString>
          <CharString index="3">
            -209 -44 84 -139 190 hhcurveto
            141 128 91 172 76 hvcurveto
            -1 -15 -63 -1 vvcurveto
            -125 -29 41 -69 105 hhcurveto
            return
          </CharString>
          <CharString index="4">
            -74 callsubr
            -47 -16 32 54 12 hvcurveto
            -17 callsubr
            endchar
          </CharString>
          <CharString index="5">
            rmoveto
            321 193 286 308 86 callsubr
            141 callsubr
            endchar
          </CharString>
          <CharString index="6">
            139 -14 11 -18 -19 -90 rlinecurve
            return
          </CharString>
          <CharString index="7">
            121 callsubr
            endchar
          </CharString>
          <CharString index="8">
            82 -13 rlineto
            49 -10 10 -19 -10 -46 -102 -482 rcurveline
            return
          </CharString>
          <CharString index="9">
            rmoveto
            -351 -45 -12 -57 return
          </CharString>
          <CharString index="10">
            rmoveto
            -55 -46 -44 -56 -52 40 -41 return
          </CharString>
          <CharString index="11">
            50 -11 10 -18 -10 -46 rlinecurve
            return
          </CharString>
          <CharString index="12">
            rmoveto
            -998 hlineto
            -28 callsubr
            1044 0 -34 callsubr
            endchar
          </CharString>
          <CharString index="13">
            67 0 345 266 rlineto
            8 vlineto
            return
          </CharString>
          <CharString index="14">
            -12 callsubr
            endchar
          </CharString>
          <CharString index="15">
            1831 rmoveto
            -221 -274 return
          </CharString>
          <CharString index="16">
            12 callsubr
            endchar
          </CharString>
          <CharString index="17">
            rmoveto
            318 222 209 351 78 hvcurveto
            152 678 29 126 23 27 133 20 rlinecurve
            12 59 -413 0 -13 -59 rlineto
            145 -20 9 -27 -25 -126 -136 -663 rcurveline
            -313 75 callsubr
            -20 callgsubr
            endchar
          </CharString>
          <CharString index="18">
            rmoveto
            230 1082 19 90 20 18 144 14 rlinecurve
            13 59 -523 0 -12 -59 return
          </CharString>
          <CharString index="19">
            18 callsubr
            endchar
          </CharString>
          <CharString index="20">
            1857 rmoveto
            -209 return
          </CharString>
          <CharString index="21">
            rmoveto
            -29 callsubr
            -74 callsubr
            -46 -16 32 54 12 hvcurveto
            endchar
          </CharString>
          <CharString index="22">
            1202 rmoveto
            66 52 52 67 62 return
          </CharString>
          <CharString index="23">
            -153 -138 153 -63 0 return
          </CharString>
          <CharString index="24">
            -173 -810 192 0 118 559 rlineto
            return
          </CharString>
          <CharString index="25">
            1493 100 callgsubr
            return
          </CharString>
          <CharString index="26">
            1134 rmoveto
            240 206 145 -206 69 0 -127 359 -123 0 -280 -359 rlineto
            return
          </CharString>
          <CharString index="27">
            rmoveto
            61 48 46 60 hvcurveto
            56 -1 -43 41 -60 hhcurveto
            -60 -49 -46 -60 hvcurveto
            -55 1 43 -42 60 hhcurveto
            endchar
          </CharString>
          <CharString index="28">
            rmoveto
            -311 -45 -11 -57 77 -12 51 -10 15 -17 4 -48 rlinecurve
            68 -848 -124 -129 -190 -171 -140 -112 rlinecurve
            -11 210 vlineto
            113 140 101 126 95 119 49 60 47 59 43 57 rrcurveto
            310 403 124 240 138 vvcurveto
            76 -50 50 -70 -69 -51 -50 -63 -61 50 -49 39 callgsubr
            endchar
          </CharString>
          <CharString index="29">
            188 339 -106 callsubr
            return
          </CharString>
          <CharString index="30">
            rmoveto
            197 -534 -101 -476 -18 -86 -22 -19 -165 -15 rlinecurve
            -12 -59 96 callsubr
            186 callsubr
            endchar
          </CharString>
          <CharString index="31">
            rmoveto
            485 hlineto
            24 113 rlineto
            -486 hlineto
            endchar
          </CharString>
          <CharString index="32">
            1598 rmoveto
            55 46 43 57 52 -40 40 return
          </CharString>
          <CharString index="33">
            82 -105 callgsubr
            -37 -54 -14 -33 hhcurveto
            return
          </CharString>
          <CharString index="34">
            55 55 45 45 56 53 -40 39 -54 hvcurveto
            endchar
          </CharString>
          <CharString index="35">
            -351 -45 -13 -57 82 -13 return
          </CharString>
          <CharString index="36">
            rmoveto
            111 520 689 0 -111 -520 -18 -90 -23 -19 -138 -13 rlinecurve
            -12 -59 520 0 12 59 -136 14 -16 22 19 89 rlinecurve
            230 1076 19 89 25 22 142 14 rlinecurve
            12 59 -520 0 -13 -59 132 -13 15 -19 -19 -90 rlinecurve
            -104 -487 -690 0 104 487 19 90 26 19 134 13 rlinecurve
            13 59 -521 0 -12 -59 138 -14 14 -22 -19 -89 rlinecurve
            -229 -1076 -20 -89 -22 -22 -144 -14 rlinecurve
            -13 -59 return
          </CharString>
          <CharString index="37">
            137 115 88 166 67 vhcurveto
            -1 -1 -11 -54 -1 vvcurveto
            -125 -30 41 -69 return
          </CharString>
          <CharString index="38">
            rmoveto
            62 48 46 60 -1 hvcurveto
            56 -43 41 -60 -60 -49 -46 -60 return
          </CharString>
          <CharString index="39">
            1157 rmoveto
            174 106 128 202 10 hvcurveto
            return
          </CharString>
          <CharString index="40">
            -343 -45 -13 -57 82 -13 -96 callsubr
            return
          </CharString>
          <CharString index="41">
            125 -275 112 0 241 275 rlineto
            return
          </CharString>
          <CharString index="42">
            54 56 45 45 56 53 -41 39 -53 hvcurveto
            endchar
          </CharString>
          <CharString index="43">
            -157 -739 -57 -268 -57 -153 return
          </CharString>
          <CharString index="44">
            rmoveto
            136 96 64 111 103 -74 64 return
          </CharString>
          <CharString index="45">
            1493 101 callgsubr
            return
          </CharString>
          <CharString index="46">
            99 393 rlineto
            -52 hlineto
            return
          </CharString>
          <CharString index="47">
            1197 rmoveto
            58 callgsubr
            return
          </CharString>
          <CharString index="48">
            1187 rmoveto
            89 65 67 204 24 hvcurveto
            -64 hlineto
            -111 -18 -27 -31 -40 hhcurveto
            -28 return
          </CharString>
          <CharString index="49">
            98 callsubr
            -69 0 127 -359 124 0 279 359 rlineto
            return
          </CharString>
          <CharString index="50">
            -192 -79 rlinecurve
            20 -52 316 99 95 148 58 267 rlinecurve
            endchar
          </CharString>
          <CharString index="51">
            1831 rmoveto
            -169 -7 hlineto
            227 -267 rlineto
            53 hlineto
            return
          </CharString>
          <CharString index="52">
            -232 13 -81 callgsubr
            51 callgsubr
            return
          </CharString>
          <CharString index="53">
            121 573 rlineto
            190 44 125 callsubr
            return
          </CharString>
          <CharString index="54">
            -12 -59 rlineto
            2 18 1 4 hhcurveto
            76 45 -32 -56 -50 return
          </CharString>
          <CharString index="55">
            -276 -1299 191 0 return
          </CharString>
          <CharString index="56">
            rmoveto
            26 116 -558 -137 return
          </CharString>
          <CharString index="57">
            rmoveto
            -163 -373 84 0 return
          </CharString>
          <CharString index="58">
            rmoveto
            233 236 119 195 133 -82 87 -188 39 hvcurveto
            -179 37 rlineto
            -91 19 -20 28 -1 36 -1 42 41 37 70 20 33 -8 36 -4 39 -1 rrcurveto
            251 144 173 197 74 -24 68 -45 53 hvcurveto
            231 -17 18 91 -319 -15 rlineto
            34 -56 -72 20 -85 hhcurveto
            -251 -144 -172 -196 -124 67 -105 120 -50 hvcurveto
            -143 -36 -66 -62 2 -85 1 -64 36 -54 81 -33 rrcurveto
            -183 -35 -120 -84 -109 vvcurveto
            -160 194 -88 237 vhcurveto
            -37 1056 rmoveto
            165 73 174 136 107 53 -96 -118 -165 -73 -174 -136 -109 -51 95 119 vhcurveto
            -235 -793 rmoveto
            87 69 64 140 43 vhcurveto
            4 -1 4 -1 4 -1 170 -34 rcurveline
            134 -26 53 -56 -77 vvcurveto
            -116 -134 -71 -158 -171 -115 78 111 vhcurveto
            endchar
          </CharString>
          <CharString index="59">
            rmoveto
            462 256 309 326 224 127 -120 -254 9 vhcurveto
            0 callgsubr
            return
          </CharString>
          <CharString index="60">
            1493 rmoveto
            -180 -6 hlineto
            246 -353 rlineto
            71 hlineto
            202 359 rmoveto
            return
          </CharString>
          <CharString index="61">
            111 234 -111 14 65 -200 178 -42 0 return
          </CharString>
          <CharString index="62">
            673 46 callsubr
            85 callsubr
            return
          </CharString>
          <CharString index="63">
            -46 46 -64 -65 -53 -52 -66 -62 46 -47 64 hvcurveto
            return
          </CharString>
          <CharString index="64">
            rmoveto
            284 94 244 -94 11 55 return
          </CharString>
          <CharString index="65">
            1557 rmoveto
            211 151 return
          </CharString>
          <CharString index="66">
            1493 rmoveto
            -200 -10 hlineto
            return
          </CharString>
          <CharString index="67">
            283 363 rlineto
            10 vlineto
            endchar
          </CharString>
          <CharString index="68">
            rmoveto
            -350 -42 -13 -57 82 -13 return
          </CharString>
          <CharString index="69">
            5 callsubr
            -43 43 return
          </CharString>
          <CharString index="70">
            rmoveto
            -310 -45 -12 -57 78 -12 rlineto
            50 -9 12 -18 4 -47 73 -815 rcurveline
            107 hlineto
            174 245 127 233 56 164 48 -642 rcurveline
            105 hlineto
            285 323 228 392 169 vvcurveto
            77 -49 50 -71 -70 -50 -50 -63 -61 50 -49 63 vhcurveto
            5 5 1 5 hhcurveto
            -55 -202 -131 -214 -159 -201 rrcurveto
            -60 830 -174 -29 9 -116 -13 -200 -147 -256 -123 -216 rlinecurve
            endchar
          </CharString>
          <CharString index="71">
            106 hhcurveto
            81 -105 callgsubr
            104 callsubr
            133 callsubr
            199 4 114 callsubr
            60 -43 -48 14 vhcurveto
            34 callgsubr
            return
          </CharString>
          <CharString index="72">
            -157 1192 -132 0 -657 -1177 -95 -169 -32 -27 -121 -15 rlinecurve
            -12 -59 421 0 13 59 -145 20 -14 30 84 157 rlinecurve
            128 241 471 0 29 -251 return
          </CharString>
          <CharString index="73">
            100 393 rlineto
            -53 hlineto
            -106 -266 -79 -39 -285 -10 rrcurveto
            -241 -9 135 637 255 -2 91 -2 18 -54 callgsubr
            8 callgsubr
            62 -45 5 -220 rlinecurve
            52 hlineto
            return
          </CharString>
          <CharString index="74">
            rmoveto
            -418 -2 287 -258 366 hhcurveto
            178 184 57 71 88 hvcurveto
            85 396 18 87 18 20 129 13 rlinecurve
            13 59 -507 0 -12 -59 rlineto
            184 callsubr
            endchar
          </CharString>
          <CharString index="75">
            1285 1532 1444 rmoveto
            -1166 hlineto
            24 callsubr
            91 callsubr
            96 callsubr
            83 callsubr
            return
          </CharString>
          <CharString index="76">
            -60 -62 -49 -49 -62 -58 43 -44 40 callsubr
            -43 44 callsubr
            59 hvcurveto
            return
          </CharString>
          <CharString index="77">
            -423 -2 278 -253 362 hhcurveto
            180 164 47 68 86 hvcurveto
            67 311 rlineto
            24 callgsubr
          </CharString>
          <CharString index="78">
            -350 -45 -13 -57 81 -13 rlineto
            51 -11 9 -18 -10 -46 -130 -615 rcurveline
            -143 -31 43 -68 111 hhcurveto
            return
          </CharString>
          <CharString index="79">
            -12 -59 138 -14 13 -18 -19 -90 rlinecurve
            -231 -1082 -20 -90 -19 -18 -144 -14 rlinecurve
            -13 -59 return
          </CharString>
          <CharString index="80">
            rmoveto
            282 111 233 -111 14 65 -199 178 -43 0 -273 -178 rlineto
            return
          </CharString>
          <CharString index="81">
            106 419 rlineto
            -53 hlineto
            -119 -281 -97 -52 -228 -9 rrcurveto
            -220 -8 return
          </CharString>
          <CharString index="82">
            107 callsubr
            -120 36 callsubr
          </CharString>
          <CharString index="83">
            1526 827 13 callsubr
            return
          </CharString>
          <CharString index="84">
            -405 -86 230 -203 309 hhcurveto
            return
          </CharString>
          <CharString index="85">
            -54 -56 -45 -44 -57 -52 40 -39 54 hvcurveto
            return
          </CharString>
          <CharString index="86">
            rmoveto
            48 46 37 48 11 hvcurveto
            48 10 return
          </CharString>
          <CharString index="87">
            1636 rmoveto
            471 hlineto
            return
          </CharString>
          <CharString index="88">
            rmoveto
            114 535 152 -1 299 -715 287 0 11 55 -69 21 -47 49 -88 208 rlinecurve
            -220 515 338 311 166 152 62 53 119 21 rlinecurve
            12 59 -446 0 -13 -59 149 -13 4 -45 -124 -122 rlinecurve
            -427 -419 -150 -1 102 478 18 90 22 19 133 13 rlinecurve
            12 59 -512 0 -13 -59 139 -14 11 -18 -18 -90 rlinecurve
            -231 -1082 -18 -90 -20 -18 -145 -14 rlinecurve
            -12 -59 513 0 12 59 -128 13 -13 19 19 90 rlinecurve
            endchar
          </CharString>
          <CharString index="89">
            rmoveto
            110 -1192 131 0 591 1156 88 -1156 132 0 610 1177 89 171 38 25 119 15 rlinecurve
            13 59 -418 0 -13 -59 143 -19 8 -30 -77 -158 rlinecurve
            -469 -957 -63 967 -10 151 16 27 146 19 rlinecurve
            12 59 -506 0 -12 -59 141 -20 8 -28 -76 -156 rlinecurve
            -467 -960 -69 968 -10 145 19 32 148 19 rlinecurve
            13 59 -525 0 -12 -59 104 -14 34 -25 14 -157 rlinecurve
            endchar
          </CharString>
          <CharString index="90">
            173 806 -94 0 -90 -91 rlineto
            59 -30 -72 52 -122 hhcurveto
            -311 -204 -326 -343 hvcurveto
            199 4 rmoveto
            260 1 115 324 224 hhcurveto
            86 60 -43 -48 14 hvcurveto
            34 callgsubr
            return
          </CharString>
          <CharString index="91">
            254 1195 19 89 21 18 153 14 rlinecurve
            13 59 -532 0 -13 -59 rlineto
            139 -13 11 -19 -18 -91 -231 -1081 rcurveline
            -18 -89 -20 -18 -145 -15 -12 -59 rcurveline
            return
          </CharString>
          <CharString index="92">
            rmoveto
            158 131 78 120 17 hvcurveto
            -64 hlineto
            -56 -14 -93 -37 -113 hhcurveto
            -112 -77 37 56 11 hvcurveto
            -65 hlineto
            -120 -35 98 -78 158 hhcurveto
            return
          </CharString>
          <CharString index="93">
            -61 -44 47 144 -2 hvcurveto
            220 -1 76 259 131 hhcurveto
            60 45 -49 -144 2 hvcurveto
            -224 -76 -253 -130 vhcurveto
            return
          </CharString>
          <CharString index="94">
            rmoveto
            119 125 50 90 68 hvcurveto
            14 66 rlineto
            128 callsubr
            -278 180 -138 188 vhcurveto
            endchar
          </CharString>
          <CharString index="95">
            82 102 40 55 42 hvcurveto
            13 63 rlineto
            -32 -36 -54 -14 -33 hhcurveto
            -47 -16 32 54 12 hvcurveto
            4 callgsubr
            return
          </CharString>
          <CharString index="96">
            -88 -61 -45 -19 -38 -39 hvcurveto
            -11 -53 rlineto
            5 14 28 5 26 hhcurveto
            58 7 callgsubr
          </CharString>
          <CharString index="97">
            1123 565 1000 -98 callsubr
            -99 callsubr
            return
          </CharString>
          <CharString index="98">
            1118 1049 hmoveto
            -26 callsubr
            -16 callsubr
            return
          </CharString>
          <CharString index="99">
            -23 15 29 -32 hvcurveto
            -33 30 rlineto
            35 -40 -39 21 -52 hhcurveto
            -88 return
          </CharString>
          <CharString index="100">
            1485 rmoveto
            496 -88 14 64 -481 161 rlineto
            return
          </CharString>
          <CharString index="101">
            -109 73 callsubr
            16 callgsubr
            endchar
          </CharString>
          <CharString index="102">
            125 26 hvcurveto
            -63 hlineto
            -52 -11 -31 -21 -39 hhcurveto
            return
          </CharString>
          <CharString index="103">
            -211 151 -43 0 -273 -151 rlineto
            return
          </CharString>
          <CharString index="104">
            637 461 181 -89 callsubr
            return
          </CharString>
          <CharString index="105">
            -66 -68 -203 -23 hvcurveto
            64 hlineto
            111 18 return
          </CharString>
          <CharString index="106">
            rmoveto
            25 116 -557 -137 -11 -55 rlineto
            return
          </CharString>
          <CharString index="107">
            hlineto
            -47 -42 -33 -40 -9 hvcurveto
            -41 -9 29 -31 return
          </CharString>
          <CharString index="108">
            -26 -41 -51 -58 -52 -85 -50 hvcurveto
            68 hlineto
            return
          </CharString>
          <CharString index="109">
            -30 38 -48 hhcurveto
            -8 hlineto
            -48 -46 -38 -48 return
          </CharString>
          <CharString index="110">
            -55 -55 -45 -44 -57 -52 40 -39 54 hvcurveto
            return
          </CharString>
          <CharString index="111">
            1600 rmoveto
            52 44 43 55 50 return
          </CharString>
          <CharString index="112">
            1209 rmoveto
            62 49 49 63 58 return
          </CharString>
          <CharString index="113">
            248 -349 rlineto
            65 hlineto
            return
          </CharString>
          <CharString index="114">
            rmoveto
            -143 -173 -46 -24 -117 -13 rrcurveto
            -13 -59 432 0 12 59 -150 21 2 31 109 140 rlinecurve
            311 400 173 -421 47 -114 -12 -35 -154 -22 rlinecurve
            -13 -59 532 0 12 59 -92 20 -36 23 -48 116 rlinecurve
            -216 529 363 436 136 163 45 26 118 13 rlinecurve
            12 59 -431 0 -12 -59 149 -21 -1 -30 -109 -141 rlinecurve
            -297 -380 -164 401 -49 117 14 33 153 21 rlinecurve
            13 59 -534 0 -12 -59 rlineto
            98 -19 33 -24 47 -116 208 -508 rcurveline
            endchar
          </CharString>
          <CharString index="115">
            258 hlineto
            11 55 rlineto
            -74 18 -37 44 -88 220 -136 341 rcurveline
            217 58 161 130 215 vvcurveto
            227 -184 136 -312 vhcurveto
            -495 hlineto
            -12 -59 137 -14 14 -16 -19 -92 rlinecurve
            -231 -1082 -20 -91 -19 -16 -144 -15 rlinecurve
            -13 -59 514 0 12 59 rlineto
            -129 13 -13 18 20 90 97 461 rcurveline
            115 hlineto
            39 38 2 3 38 hvcurveto
            350 431 rmoveto
            -236 -174 -120 -264 -7 vhcurveto
            -127 -4 142 665 111 -3 rlineto
            200 -7 112 -106 -182 vvcurveto
            return
          </CharString>
          <CharString index="116">
            rmoveto
            -366 hlineto
            -12 -59 127 -14 14 -32 -25 -107 rlinecurve
            -237 -1004 -30 -122 -26 -27 -137 -20 rlinecurve
            -13 -59 413 0 12 59 -137 20 -10 27 26 122 rlinecurve
            220 1030 211 -1258 91 0 138 243 586 1013 -205 -1077 -16 -88 -21 -17 -145 -15 rlinecurve
            -12 -59 518 0 13 59 -134 15 -16 16 17 89 rlinecurve
            208 1085 16 87 23 19 142 15 rlinecurve
            12 59 -392 0 -662 -1182 rlineto
            endchar
          </CharString>
          <CharString index="117">
            rmoveto
            -373 1 240 -283 385 hhcurveto
            452 298 402 430 258 -117 212 -196 108 hvcurveto
            -5 33 37 -4 40 hhcurveto
            172 152 69 151 76 -38 69 -49 39 hvcurveto
            -54 hlineto
            7 -16 3 -26 -26 vvcurveto
            -144 -97 -129 -184 vhcurveto
            -112 -77 24 -146 hhcurveto
            -452 -300 -402 -430 2 hvcurveto
            226 -55 rmoveto
            -98 callgsubr
            -90 callgsubr
            -230 -155 178 337 vhcurveto
            endchar
          </CharString>
          <CharString index="118">
            12 59 rlineto
            -158 14 -11 29 18 86 81 383 rcurveline
            128 hlineto
            358 330 142 334 238 -176 159 -349 hvcurveto
            -473 hlineto
            -12 -59 rlineto
            139 -14 14 -22 -20 -89 -229 -1076 rcurveline
            -20 -89 -22 -22 -144 -14 -13 -59 rcurveline
            660 1375 rmoveto
            99 -3 rlineto
            212 -8 118 -114 -195 vvcurveto
            -264 -187 -138 -286 -10 vhcurveto
            -113 -3 rlineto
            endchar
          </CharString>
          <CharString index="119">
            rmoveto
            120 123 50 90 69 hvcurveto
            14 66 rlineto
            131 callsubr
            -275 172 -140 194 vhcurveto
            131 953 rmoveto
            77 34 -44 -80 -140 -143 -106 -216 -65 hvcurveto
            -48 -15 rlineto
            255 19 123 195 154 hhcurveto
            return
          </CharString>
          <CharString index="120">
            rmoveto
            367 -269 250 -453 vhcurveto
            -440 hlineto
            -12 -59 rlineto
            137 -14 14 -18 -19 -90 -107 callgsubr
            -144 -14 -13 -59 rcurveline
            487 hlineto
            563 419 341 486 hvcurveto
            return
          </CharString>
          <CharString index="121">
            -29 38 -49 hhcurveto
            -8 hlineto
            -48 -47 -38 -48 22 callsubr
            -29 38 -49 hhcurveto
            -7 hlineto
            -49 -46 -38 -48 -10 hvcurveto
            -48 -11 31 -37 48 hhcurveto
            return
          </CharString>
          <CharString index="122">
            17 -144 -26 -34 -148 -19 rlinecurve
            -13 -59 530 0 -44 callgsubr
            -678 328 rmoveto
            346 649 75 -649 rlineto
            return
          </CharString>
          <CharString index="123">
            rmoveto
            61 -55 120 99 callsubr
            86 hhcurveto
            111 103 callsubr
            -54 -60 111 callsubr
            33 callgsubr
            endchar
          </CharString>
          <CharString index="124">
            rmoveto
            -66 callgsubr
            -18 -10 -47 -102 -483 rcurveline
            -208 -44 84 -139 190 hhcurveto
            169 callsubr
            endchar
          </CharString>
          <CharString index="125">
            -230 -1082 -19 -90 -20 -18 -144 -14 rlinecurve
            -13 -59 523 0 12 59 -139 14 -11 18 19 90 rlinecurve
            return
          </CharString>
          <CharString index="126">
            1598 rmoveto
            54 46 43 57 52 -40 40 -54 -56 -45 -44 -57 -52 41 -39 54 hvcurveto
            return
          </CharString>
          <CharString index="127">
            rmoveto
            -246 140 -188 244 321 193 286 178 callsubr
            endchar
          </CharString>
          <CharString index="128">
            26 31 40 hhcurveto
            28 23 -14 -30 32 hvcurveto
            33 -29 rlineto
            -35 39 41 -22 51 hhcurveto
            return
          </CharString>
          <CharString index="129">
            -9 hvcurveto
            -48 -11 30 -37 49 hhcurveto
            324 hmoveto
            49 46 37 48 10 hvcurveto
            48 10 return
          </CharString>
          <CharString index="130">
            1831 rmoveto
            -220 -274 66 0 346 266 rlineto
            8 vlineto
            return
          </CharString>
          <CharString index="131">
            -86 -352 rlineto
            53 hlineto
            85 222 80 47 275 12 rrcurveto
            58 2 return
          </CharString>
          <CharString index="132">
            -24 -32 hhcurveto
            -24 -18 12 23 -26 hvcurveto
            -27 23 rlineto
            28 -33 -33 17 return
          </CharString>
          <CharString index="133">
            1514 -50 callsubr
            283 364 rlineto
            9 vlineto
            return
          </CharString>
          <CharString index="134">
            1499 rmoveto
            -80 -75 -38 -51 -38 hvcurveto
            -12 -56 rlineto
            25 32 return
          </CharString>
          <CharString index="135">
            -56 -50 17 28 -35 hvcurveto
            -13 -58 rlineto
            -46 42 62 -31 84 hhcurveto
            return
          </CharString>
          <CharString index="136">
            hhcurveto
            309 hmoveto
            47 -104 callgsubr
            -47 hhcurveto
            -7 hlineto
            -46 return
          </CharString>
          <CharString index="137">
            1240 rmoveto
            522 hlineto
            26 125 rlineto
            -522 hlineto
            return
          </CharString>
          <CharString index="138">
            1240 rmoveto
            521 hlineto
            27 125 rlineto
            -522 hlineto
            return
          </CharString>
          <CharString index="139">
            124 -275 112 0 242 275 rlineto
            return
          </CharString>
          <CharString index="140">
            -47 46 -64 -65 -53 -52 -66 -62 47 -47 64 hvcurveto
            return
          </CharString>
          <CharString index="141">
            rmoveto
            -70 -66 -55 callgsubr
            45 hhcurveto
            65 31 return
          </CharString>
          <CharString index="142">
            -172 -6 hlineto
            176 -353 rlineto
            67 hlineto
            return
          </CharString>
          <CharString index="143">
            323 -115 0 -258 -323 rlineto
            endchar
          </CharString>
          <CharString index="144">
            -83 126 -186 hhcurveto
            -106 callgsubr
            return
          </CharString>
          <CharString index="145">
            681 1444 119 callsubr
            return
          </CharString>
          <CharString index="146">
            670 454 -17 64 callsubr
            return
          </CharString>
          <CharString index="147">
            60 hvcurveto
            397 hmoveto
            62 49 49 63 58 return
          </CharString>
          <CharString index="148">
            -25 7 16 -36 hvcurveto
            -24 11 rlineto
            17 -37 return
          </CharString>
          <CharString index="149">
            -30 38 -48 hhcurveto
            -8 hlineto
            -49 -46 -38 -48 return
          </CharString>
          <CharString index="150">
            rmoveto
            516 hlineto
            21 102 rlineto
            -515 hlineto
            return
          </CharString>
          <CharString index="151">
            43 -60 -61 -50 -49 -62 -58 44 -44 return
          </CharString>
          <CharString index="152">
            1598 55 callgsubr
            return
          </CharString>
          <CharString index="153">
            1486 -39 callsubr
            return
          </CharString>
          <CharString index="154">
            43 65 12 hvcurveto
            -63 hlineto
            -141 return
          </CharString>
          <CharString index="155">
            -76 12 55 -500 137 rlineto
            return
          </CharString>
          <CharString index="156">
            vhcurveto
            -55 1 43 -42 59 hhcurveto
            endchar
          </CharString>
          <CharString index="157">
            rmoveto
            46 42 31 41 9 hvcurveto
            40 return
          </CharString>
          <CharString index="158">
            hlineto
            -65 -16 -92 -43 -110 hhcurveto
            return
          </CharString>
          <CharString index="159">
            rmoveto
            -61 43 -45 65 80 58 52 207 123 vhcurveto
            84 144 46 -148 rlineto
            -183 58 54 -69 107 hhcurveto
            81 61 37 55 36 hvcurveto
            12 62 rlineto
            -26 -24 -34 -17 -34 hhcurveto
            -52 -44 36 156 -48 hvcurveto
            -72 233 119 194 48 78 35 50 29 32 rlinecurve
            -46 11 41 -35 48 hhcurveto
            59 46 49 60 61 -43 45 -65 -80 -61 -51 -208 -119 hvcurveto
            -90 -158 -126 407 -286 -43 -10 -57 80 -12 52 -9 15 -15 16 -51 rlinecurve
            111 -356 -112 -180 -49 -78 -35 -50 -29 -32 rlinecurve
            47 -11 -41 34 -48 hhcurveto
            -59 -46 -49 -60 hvcurveto
            endchar
          </CharString>
          <CharString index="160">
            rmoveto
            266 243 158 271 159 -77 119 -180 121 hvcurveto
            -93 63 rlineto
            -147 97 -52 83 104 vvcurveto
            145 114 91 164 188 112 -116 -219 10 vhcurveto
            52 hlineto
            45 311 rlineto
            61 -75 -157 48 -171 hhcurveto
            -287 -193 -154 -241 -156 90 -118 173 -115 hvcurveto
            92 -64 rlineto
            145 -96 49 -86 -114 vvcurveto
            -170 -143 -97 -164 -198 -138 112 229 -9 vhcurveto
            -51 hlineto
            -52 -308 rlineto
            -64 81 200 -54 163 hhcurveto
            return
          </CharString>
          <CharString index="161">
            rmoveto
            268 211 227 397 64 hvcurveto
            255 38 -70 149 -135 hhcurveto
            -71 -64 -60 -102 8 hvcurveto
            141 -41 56 -148 -30 -188 rrcurveto
            -225 -37 -119 -154 -174 hhcurveto
            -141 -52 89 169 35 hvcurveto
            6 29 78 322 12 62 rrcurveto
            165 36 -65 72 -127 hhcurveto
            -73 -72 -26 -32 -44 hvcurveto
            -13 -59 rlineto
            8 16 18 5 27 hhcurveto
            71 49 -38 -106 -23 hvcurveto
            -17 -81 -74 -322 -6 -25 rrcurveto
            -201 -43 85 -141 231 hhcurveto
            endchar
          </CharString>
          <CharString index="162">
            rmoveto
            -62 65 123 -40 132 hhcurveto
            192 163 123 174 114 -44 84 -131 87 hvcurveto
            -69 48 rlineto
            -91 60 -35 47 72 vvcurveto
            85 59 57 108 133 68 -104 -140 -5 vhcurveto
            52 hlineto
            52 246 rlineto
            45 -61 -99 30 -140 hhcurveto
            -213 -129 -122 -160 -105 55 -88 120 -80 hvcurveto
            70 -48 rlineto
            95 -64 30 -52 -78 vvcurveto
            -97 -70 -57 -110 -130 -93 94 176 -1 vhcurveto
            -51 hlineto
            return
          </CharString>
          <CharString index="163">
            -137 -114 -88 -165 -67 vhcurveto
            53 245 -343 -45 -12 -57 81 -13 -96 callsubr
            -237 -1117 -12 -57 -21 -14 -128 -21 rlinecurve
            -13 -61 510 0 12 61 rlineto
            -149 22 -20 12 12 60 79 369 rcurveline
            -45 34 66 -39 103 -89 callgsubr
            -116 -324 -224 -86 -60 42 49 -14 vhcurveto
            93 434 rlineto
            203 46 108 108 103 hhcurveto
            96 55 -72 -180 -1 hvcurveto
            endchar
          </CharString>
          <CharString index="164">
            1642 932 -28 rmoveto
            424 344 344 473 367 -277 317 -406 -422 -346 -345 -471 -369 280 -316 403 hvcurveto
            -1 61 rmoveto
            -358 -255 285 338 446 329 311 372 359 253 -287 -337 -447 -328 -309 -372 hvcurveto
            return
          </CharString>
          <CharString index="165">
            1472 768 -26 rmoveto
            318 222 209 351 78 hvcurveto
            152 678 29 126 23 27 133 20 rlinecurve
            12 59 -413 0 -13 -59 rlineto
            145 -20 9 -27 -25 -126 -136 -663 rcurveline
            -313 75 callsubr
            -20 callgsubr
            return
          </CharString>
          <CharString index="166">
            rmoveto
            216 1015 19 90 20 18 143 13 rlinecurve
            13 60 -521 0 -13 -60 138 -13 13 -18 -19 -90 rlinecurve
            -209 -985 -75 -349 -105 -125 -233 -146 rlinecurve
            17 -51 338 154 182 130 76 357 rlinecurve
            endchar
          </CharString>
          <CharString index="167">
            rmoveto
            217 1015 18 90 20 18 144 13 rlinecurve
            12 60 -521 0 -13 -60 139 -13 12 -18 -18 -90 rlinecurve
            -210 -985 -75 -349 -105 -125 -233 -146 rlinecurve
            18 -51 337 154 182 130 76 357 rlinecurve
            return
          </CharString>
          <CharString index="168">
            rmoveto
            171 -136 131 -220 23 vhcurveto
            210 24 200 105 3 212 rrcurveto
            198 4 -173 129 -340 hhcurveto
            -462 hlineto
            -12 -59 rlineto
            138 -14 13 -18 -19 -90 -107 callgsubr
            174 callsubr
            endchar
          </CharString>
          <CharString index="169">
            683 1445 rmoveto
            -57 hlineto
            -233 -97 -10 -45 127 27 6 1 3 -4 -1 -5 rlinecurve
            -111 -522 -11 -52 -29 -11 -105 -9 rlinecurve
            -9 -45 398 0 9 45 -99 9 -27 12 12 52 rlinecurve
            return
          </CharString>
          <CharString index="170">
            rmoveto
            -142 -714 rlineto
            -200 -40 81 -94 150 hhcurveto
            104 96 50 58 60 hvcurveto
            11 55 rlineto
            -33 -40 -58 -11 -58 hhcurveto
            -106 -47 57 149 34 hvcurveto
            13 53 137 591 9 39 rrcurveto
            endchar
          </CharString>
          <CharString index="171">
            rmoveto
            98 98 38 67 48 hvcurveto
            12 62 rlineto
            -36 -35 -59 -43 callgsubr
            122 577 138 callsubr
            -120 -571 rlineto
            -202 -43 82 -125 167 hhcurveto
            return
          </CharString>
          <CharString index="172">
            1557 rmoveto
            210 151 84 callsubr
            return
          </CharString>
          <CharString index="173">
            -36 10 -44 hhcurveto
            -80 -78 -57 -124 -27 hvcurveto
            64 hlineto
            52 11 31 20 41 hhcurveto
            24 24 -7 -16 36 hvcurveto
            25 -10 rlineto
            -16 37 35 -11 44 hhcurveto
            return
          </CharString>
          <CharString index="174">
            1493 rmoveto
            -184 -359 79 0 285 353 rlineto
            6 vlineto
            169 hmoveto
            -242 -359 79 0 362 353 rlineto
            6 vlineto
            return
          </CharString>
          <CharString index="175">
            552 668 rmoveto
            227 128 252 215 94 callsubr
            -247 -220 hvcurveto
            -167 -1 79 -158 175 hhcurveto
            return
          </CharString>
          <CharString index="176">
            rmoveto
            155 130 92 141 23 hvcurveto
            -64 51 callsubr
            -108 -75 47 callsubr
            -38 92 -92 154 hhcurveto
            endchar
          </CharString>
          <CharString index="177">
            -89 77 callgsubr
            59 39 -32 -48 -52 -47 -31 -65 -49 -41 19 20 -28 hvcurveto
            -13 -55 rlineto
            -35 34 60 -28 70 hhcurveto
            endchar
          </CharString>
          <CharString index="178">
            10 -30 33 -45 hhcurveto
            -8 0 callsubr
            47 hhcurveto
            308 hmoveto
            47 -104 callgsubr
            67 callgsubr
            endchar
          </CharString>
          <CharString index="179">
            -61 hlineto
            -116 -21 -71 -68 -129 hhcurveto
            -106 -71 63 83 14 2 14 2 10 hvcurveto
            -60 -79 callgsubr
            return
          </CharString>
          <CharString index="180">
            -267 -102 -35 -289 -11 rrcurveto
            -302 -11 1032 1320 11 55 -954 0 -88 -352 rlineto
            return
          </CharString>
          <CharString index="181">
            -22 15 29 -32 hvcurveto
            -34 30 rlineto
            35 -40 -39 21 -52 hhcurveto
            -88 -2 callsubr
            41 callgsubr
            return
          </CharString>
          <CharString index="182">
            -65 -193 -147 -208 hhcurveto
            -235 -154 152 349 76 hvcurveto
            141 659 21 97 25 return
          </CharString>
          <CharString index="183">
            1305 rmoveto
            -115 98 -70 126 151 105 87 125 114 -98 -23 callgsubr
            return
          </CharString>
          <CharString index="184">
            1140 581 1000 rmoveto
            -67 callsubr
            -83 callsubr
            120 callsubr
            return
          </CharString>
          <CharString index="185">
            20 14 142 15 rlinecurve
            12 59 -519 0 -13 -59 131 -13 20 -17 -20 -92 rlinecurve
            endchar
          </CharString>
          <CharString index="186">
            1386 rmoveto
            53 41 39 52 51 -42 41 -52 -53 -40 -41 -51 -52 40 -39 53 hvcurveto
            return
          </CharString>
          <CharString index="187">
            38 -49 hhcurveto
            -7 hlineto
            -49 -46 -38 -48 -10 hvcurveto
            -48 -10 29 -37 49 hhcurveto
            325 hmoveto
            49 return
          </CharString>
          <CharString index="188">
            52 43 43 55 1 hvcurveto
            50 -38 39 -52 -52 -44 -43 -55 -51 38 -38 52 vhcurveto
            return
          </CharString>
          <CharString index="189">
            rmoveto
            31 callgsubr
            312 hmoveto
            52 44 43 55 50 -70 callgsubr
            return
          </CharString>
          <CharString index="190">
            254 1196 58 -2 266 -12 62 -41 -6 -228 rlinecurve
            53 hlineto
            return
          </CharString>
          <CharString index="191">
            140 -151 62 0 -125 274 -113 0 -242 -274 rlineto
            return
          </CharString>
          <CharString index="192">
            rlineto
            49 -11 10 -18 -9 -46 -235 -1104 rcurveline
            -17 callgsubr
            return
          </CharString>
          <CharString index="193">
            246 -141 188 -244 -321 -192 -286 -308 return
          </CharString>
          <CharString index="194">
            -54 rlineto
            14 26 46 14 45 hhcurveto
            58 31 -24 -41 -10 hvcurveto
            -8 -39 return
          </CharString>
          <CharString index="195">
            rmoveto
            83 60 61 183 21 hvcurveto
            -60 hlineto
            -100 -16 -24 -28 -37 hhcurveto
            return
          </CharString>
          <CharString index="196">
            1603 rmoveto
            76 1 54 55 19 167 rrcurveto
            -57 hlineto
            -90 return
          </CharString>
          <CharString index="197">
            1557 rmoveto
            210 151 140 -99 callgsubr
            return
          </CharString>
          <CharString index="198">
            -254 -1196 -18 -86 -23 -19 -164 -15 rlinecurve
            -12 -59 return
          </CharString>
          <CharString index="199">
            1485 rmoveto
            30 137 -550 -161 -13 -64 rlineto
            return
          </CharString>
          <CharString index="200">
            -37 39 -52 -53 -43 -43 -55 -1 hvcurveto
            -51 39 -38 51 vhcurveto
            return
          </CharString>
          <CharString index="201">
            hvcurveto
            166 1 -79 159 -176 hhcurveto
            -225 -129 return
          </CharString>
          <CharString index="202">
            1493 rmoveto
            -201 -10 hlineto
            6 callsubr
            return
          </CharString>
          <CharString index="203">
            567 0 12 59 -159 16 -14 18 18 86 rlinecurve
            return
          </CharString>
          <CharString index="204">
            rmoveto
            248 411 -175 0 -130 -411 rlineto
            return
          </CharString>
          <CharString index="205">
            1501 rmoveto
            -239 -205 -146 205 return
          </CharString>
          <CharString index="206">
            150 1 1 64 -42 rlineto
            -87 131 70 -20 return
          </CharString>
          <CharString index="207">
            121 46 82 61 78 vvcurveto
            69 -57 54 -99 vhcurveto
            return
          </CharString>
          <CharString index="208">
            -46 46 -64 -65 -53 -52 -66 -62 47 -47 63 hvcurveto
            return
          </CharString>
          <CharString index="209">
            1412 rmoveto
            49 46 37 48 10 hvcurveto
            48 return
          </CharString>
          <CharString index="210">
            114 66 170 84 hvcurveto
            -40 33 rlineto
            -90 return
          </CharString>
          <CharString index="211">
            -36 -55 -14 -33 hhcurveto
            -45 -17 32 54 12 hvcurveto
            return
          </CharString>
          <CharString index="212">
            hhcurveto
            72 35 -31 -47 -61 -65 -62 -96 -57 hvcurveto
            return
          </CharString>
          <CharString index="213">
            rmoveto
            512 -76 11 55 -499 137 rlineto
            return
          </CharString>
          <CharString index="214">
            rmoveto
            221 185 137 -185 64 0 return
          </CharString>
          <CharString index="215">
            1609 rmoveto
            -71 -63 -29 -30 -36 hvcurveto
            return
          </CharString>
          <CharString index="216">
            1030 902 -16 118 callsubr
            return
          </CharString>
          <CharString index="217">
            -24 7 16 -36 hvcurveto
            -25 11 rlineto
            16 -36 return
          </CharString>
          <CharString index="218">
            -29 -57 hhcurveto
            -83 -55 24 66 -109 hvcurveto
            return
          </CharString>
          <CharString index="219">
            rmoveto
            528 hlineto
            18 88 rlineto
            -528 hlineto
            return
          </CharString>
          <CharString index="220">
            rmoveto
            515 hlineto
            21 102 rlineto
            -515 hlineto
            return
          </CharString>
          <CharString index="221">
            rmoveto
            260 116 324 224 86 return
          </CharString>
          <CharString index="222">
            rmoveto
            -59 47 -44 57 58 46 47 56 45 -27 36 -38 14 vhcurveto
            24 43 56 16 66 hhcurveto
            172 59 -126 -185 -24 hvcurveto
            -8 -56 -149 -14 rlineto
            -311 -28 -170 -107 -189 vvcurveto
            -140 115 -96 165 173 115 108 181 50 vhcurveto
            -188 39 131 -102 173 hhcurveto
            130 115 56 85 66 hvcurveto
            14 64 rlineto
            -61 -67 -80 -36 -89 hhcurveto
            -172 -85 131 202 23 1 22 1 22 hvcurveto
            80 5 377 24 140 124 1 148 rlinecurve
            139 1 -119 81 -171 hhcurveto
            -123 -119 -59 -102 -92 hvcurveto
            100 -46 -106 61 -156 hhcurveto
            -186 -153 -99 -123 hvcurveto
            970 144 rmoveto
            84 46 -52 -77 -2 hvcurveto
            -1 -110 -85 -108 -260 -24 -72 -6 rcurveline
            217 32 113 160 145 hhcurveto
            -900 -685 rmoveto
            129 103 81 212 20 vhcurveto
            112 11 -7 -51 rlineto
            -258 -38 -97 -86 -125 hhcurveto
            -93 -67 52 102 hvcurveto
            endchar
          </CharString>
          <CharString index="223">
            rmoveto
            -949 hlineto
            -844 -1210 -96 -137 -38 -24 -125 -14 rlinecurve
            -12 -59 442 0 13 59 -155 18 -7 26 89 131 rlinecurve
            245 363 446 0 -76 -395 -21 -111 -7 -17 -154 -15 rlinecurve
            -12 -59 1042 0 101 393 rlineto
            -50 hlineto
            -102 -251 -96 -51 -276 -12 rrcurveto
            -244 -10 118 632 249 -2 91 -1 19 -38 -6 -163 rlinecurve
            50 hlineto
            100 478 rlineto
            -50 hlineto
            -65 -164 -33 -30 -89 -2 rrcurveto
            -251 -1 113 597 229 -10 252 -12 38 -46 11 -215 rlinecurve
            50 hlineto
            -857 275 rmoveto
            73 hlineto
            -132 -691 rlineto
            -408 hlineto
            endchar
          </CharString>
          <CharString index="224">
            1307 462 181 rmoveto
            114 535 152 -1 299 -715 287 0 11 55 -69 21 -47 49 -88 208 rlinecurve
            -220 515 338 311 166 152 62 53 119 21 rlinecurve
            12 59 -446 0 -13 -59 149 -13 4 -45 -124 -122 rlinecurve
            -427 -419 -150 -1 102 478 18 90 22 19 133 13 rlinecurve
            12 59 -512 0 -13 -59 139 -14 11 -18 -18 -90 rlinecurve
            -231 -1082 -18 -90 -20 -18 -145 -14 rlinecurve
            -12 -59 513 0 12 59 -128 13 -13 19 19 90 rlinecurve
            return
          </CharString>
          <CharString index="225">
            rmoveto
            81 57 35 56 36 hvcurveto
            13 62 rlineto
            -25 -24 -32 -16 -33 hhcurveto
            -55 -40 39 164 -57 hvcurveto
            -115 328 163 130 164 131 63 31 90 17 rlinecurve
            10 52 -399 0 -11 -52 125 -11 7 -30 -119 -103 rlinecurve
            -345 -299 211 993 -350 -42 -13 -57 82 -13 -96 callsubr
            -52 callsubr
            87 411 123 98 90 -265 rlineto
            -182 61 61 -78 104 hhcurveto
            return
          </CharString>
          <CharString index="226">
            rmoveto
            -328 hlineto
            -12 -59 127 -16 15 -32 -24 -108 rlinecurve
            -219 -997 -28 -128 -25 -28 -132 -17 rlinecurve
            -12 -59 416 0 12 59 -146 18 -11 26 26 129 rlinecurve
            198 1009 587 -1241 141 0 266 1212 28 128 24 28 132 17 rlinecurve
            13 59 -415 0 -13 -59 rlineto
            146 -17 9 -27 -24 -129 -188 -964 rcurveline
            return
          </CharString>
          <CharString index="227">
            192 44 131 148 125 hhcurveto
            103 42 -79 -135 -29 hvcurveto
            -105 -490 rlineto
            -143 -29 42 -68 111 hhcurveto
            81 103 40 55 43 hvcurveto
            13 63 rlineto
            -32 -36 -55 -14 -33 hhcurveto
            -46 -16 32 54 12 hvcurveto
            105 490 rlineto
            210 45 -84 126 -185 hhcurveto
            -152 -123 -97 -186 -80 hvcurveto
            return
          </CharString>
          <CharString index="228">
            rmoveto
            453 297 402 429 154 callsubr
            hvcurveto
            -374 2 239 -283 385 hhcurveto
            -15 86 rmoveto
            -230 -156 178 336 403 212 399 329 229 156 -178 -337 -421 -224 -380 -316 hvcurveto
            return
          </CharString>
          <CharString index="229">
            -186 -668 rmoveto
            95 hlineto
            1217 1444 rlineto
            -95 hlineto
            -1030 -715 -18 callgsubr
            835 -744 rmoveto
            227 128 251 216 94 callsubr
            -248 -219 hvcurveto
            -167 -1 79 -158 175 hhcurveto
            return
          </CharString>
          <CharString index="230">
            rmoveto
            -336 -45 -12 -57 81 -13 -96 callsubr
            -172 -810 191 0 136 672 rlineto
            104 72 111 61 115 hhcurveto
            35 30 -5 -7 16 hvcurveto
            12 15 11 31 27 vvcurveto
            62 -33 40 -60 -85 -73 -65 -207 -146 vhcurveto
            return
          </CharString>
          <CharString index="231">
            rmoveto
            81 77 56 125 26 hvcurveto
            -63 hlineto
            -52 -11 -31 -21 -40 hhcurveto
            -24 41 callsubr
            -37 10 -44 hhcurveto
            -79 -78 -57 -124 -27 hvcurveto
            63 hlineto
            52 12 31 20 40 hhcurveto
            25 24 -7 -16 36 hvcurveto
            25 -10 rlineto
            -16 36 36 -11 44 hhcurveto
            endchar
          </CharString>
          <CharString index="232">
            136 136 118 hhcurveto
            103 42 -79 -135 -30 hvcurveto
            -104 -490 rlineto
            -143 -30 43 -68 111 hhcurveto
            81 103 40 55 43 hvcurveto
            13 63 rlineto
            -32 -36 -55 -14 -33 hhcurveto
            -46 -16 32 54 12 hvcurveto
            105 490 rlineto
            210 45 return
          </CharString>
          <CharString index="233">
            rmoveto
            83 77 48 106 23 hvcurveto
            -65 hlineto
            -44 -9 -31 -18 -41 hhcurveto
            -26 -25 7 12 -37 hvcurveto
            -26 10 rlineto
            14 -38 -38 9 -45 hhcurveto
            -82 -78 -49 -106 -22 hvcurveto
            65 hlineto
            45 10 30 18 41 hhcurveto
            26 25 -6 -14 -58 callgsubr
            endchar
          </CharString>
          <CharString index="234">
            1589 rmoveto
            158 96 110 174 7 hvcurveto
            -59 hlineto
            -100 -19 -63 -60 -116 hhcurveto
            -94 -65 -46 callgsubr
            -10 -27 -8 -32 -42 callgsubr
            return
          </CharString>
          <CharString index="235">
            -70 -74 -92 -27 -74 hhcurveto
            -153 -103 123 200 279 136 238 200 45 37 -12 -20 27 hvcurveto
            -50 -10 -38 -43 -54 vvcurveto
            -59 45 -49 62 65 49 51 63 122 -100 91 86 callgsubr
            return
          </CharString>
          <CharString index="236">
            1420 rmoveto
            81 76 57 125 27 hvcurveto
            -63 hlineto
            -52 -11 -31 -21 -40 hhcurveto
            -25 110 callsubr
            44 callgsubr
            24 25 -8 -15 36 hvcurveto
            25 -11 rlineto
            -16 36 36 -11 44 hhcurveto
            return
          </CharString>
          <CharString index="237">
            rmoveto
            151 107 59 86 67 hvcurveto
            14 63 rlineto
            -75 -81 -95 -33 -116 hhcurveto
            -116 -83 55 86 90 45 56 166 64 hvcurveto
            41 16 rlineto
            172 64 118 77 169 vvcurveto
            159 return
          </CharString>
          <CharString index="238">
            -70 -74 -94 -27 -73 hhcurveto
            -150 -103 115 211 hvcurveto
            3 vlineto
            50 14 rlineto
            334 96 194 111 164 vvcurveto
            127 -105 78 -160 -266 -245 -262 -351 return
          </CharString>
          <CharString index="239">
            rmoveto
            135 97 64 111 103 -75 64 -88 77 callgsubr
            58 40 -32 -48 -52 -47 -31 -65 -49 -42 19 20 -27 hvcurveto
            -13 -55 rlineto
            -35 33 61 -28 70 hhcurveto
            endchar
          </CharString>
          <CharString index="240">
            277 1304 -350 -42 -13 -57 81 -13 rlineto
            51 -11 9 -18 -10 -46 -79 -373 rcurveline
            45 -34 -65 37 -103 hhcurveto
            -311 -204 -326 -343 hvcurveto
            return
          </CharString>
          <CharString index="241">
            15 71 -265 0 40 175 -195 -16 -34 -159 -162 0 -14 -71 161 0 -259 -1218 191 0 121 573 rlineto
            190 44 return
          </CharString>
          <CharString index="242">
            1084 1107 649 -101 callgsubr
            175 callsubr
            return
          </CharString>
          <CharString index="243">
            -60 hlineto
            -116 -22 -70 -68 -130 -51 callgsubr
            -60 hlineto
            -13 -30 -8 -38 -34 vvcurveto
            -133 100 -95 145 vhcurveto
            return
          </CharString>
          <CharString index="244">
            261 1 97 315 210 hhcurveto
            116 71 -99 -197 -1 hvcurveto
            -262 -1 -97 -315 -209 hhcurveto
            return
          </CharString>
          <CharString index="245">
            275 -4 18 87 -276 -10 51 236 -200 -33 -42 -200 -156 -26 -10 -54 148 0 return
          </CharString>
          <CharString index="246">
            hlineto
            -12 -59 135 -14 15 -17 -20 -90 rlinecurve
            -229 -1084 -20 -90 -19 -16 -144 -15 rlinecurve
            -12 -59 return
          </CharString>
          <CharString index="247">
            1478 rmoveto
            -173 -107 -47 callgsubr
            23 70 142 callsubr
            -101 96 -145 vhcurveto
            return
          </CharString>
          <CharString index="248">
            -246 139 -188 245 hvcurveto
            4 77 rmoveto
            -116 -71 100 197 hvcurveto
            137 callsubr
            return
          </CharString>
          <CharString index="249">
            68 129 hhcurveto
            107 69 -63 -82 -15 -1 -14 -2 -9 hvcurveto
            60 hlineto
            12 29 9 38 34 vvcurveto
            133 return
          </CharString>
          <CharString index="250">
            58 45 44 56 hvcurveto
            52 -1 -40 39 -56 hhcurveto
            -57 -46 -44 -56 hvcurveto
            -52 1 41 -39 55 hhcurveto
            return
          </CharString>
          <CharString index="251">
            480 1263 rmoveto
            -230 -1082 rlineto
            -19 -93 -24 -15 -139 -14 -13 -59 rcurveline
            return
          </CharString>
          <CharString index="252">
            -87 -409 rcurveline
            -177 -40 -110 -130 -138 hhcurveto
            -107 -44 77 139 30 hvcurveto
            return
          </CharString>
          <CharString index="253">
            rmoveto
            199 7 142 144 184 vvcurveto
            108 -57 59 25 callgsubr
          </CharString>
          <CharString index="254">
            1160 rmoveto
            145 143 83 175 61 hvcurveto
            -63 26 rlineto
            -145 -54 return
          </CharString>
          <CharString index="255">
            rmoveto
            -55 -45 -44 -56 -52 39 -41 55 55 46 45 56 53 -41 39 -54 hvcurveto
            endchar
          </CharString>
          <CharString index="256">
            rmoveto
            -56 -45 -44 -56 -52 39 -41 55 55 46 45 56 53 -41 39 -53 hvcurveto
            endchar
          </CharString>
          <CharString index="257">
            1603 rmoveto
            75 1 54 55 19 167 rrcurveto
            -56 hlineto
            -90 -14 -23 -24 return
          </CharString>
          <CharString index="258">
            1589 rmoveto
            157 97 110 174 6 hvcurveto
            -58 hlineto
            -100 -19 -64 return
          </CharString>
          <CharString index="259">
            rmoveto
            222 185 136 -185 64 0 -120 36 callsubr
          </CharString>
          <CharString index="260">
            1499 rmoveto
            -80 -74 -38 -51 -38 hvcurveto
            -13 -56 rlineto
            25 32 44 16 return
          </CharString>
          <CharString index="261">
            374 -241 283 -384 -453 -300 -402 -429 2 return
          </CharString>
          <CharString index="262">
            51 hhcurveto
            312 hmoveto
            52 43 43 55 1 hvcurveto
            50 -38 39 -52 -52 -44 return
          </CharString>
          <CharString index="263">
            -88 -60 -46 -19 -38 -38 hvcurveto
            -12 -53 rlineto
            5 14 28 5 26 hhcurveto
            58 return
          </CharString>
          <CharString index="264">
            403 429 164 -46 147 -86 113 hvcurveto
            163 165 -54 53 -158 -160 rlineto
            109 -108 -152 65 -185 hhcurveto
            -452 -301 -402 -429 3 hvcurveto
            1 -164 46 -147 85 -113 rrcurveto
            -164 -167 54 -53 160 163 rlineto
            -110 107 152 -66 185 hhcurveto
            -400 601 rmoveto
            -98 callgsubr
            141 114 -68 -130 66 vhcurveto
            -827 -842 rlineto
            -22 68 -11 79 92 vvcurveto
            385 -515 rmoveto
            -141 -114 68 131 -66 hvcurveto
            827 842 rlineto
            22 -68 12 -80 -92 vvcurveto
            -422 -224 -379 -316 vhcurveto
            endchar
          </CharString>
          <CharString index="265">
            rmoveto
            -207 -11 111 -164 200 hhcurveto
            144 103 98 171 59 hvcurveto
            -182 3 127 -87 153 hhcurveto
            261 172 263 328 12 hvcurveto
            274 10 -122 163 -137 hhcurveto
            -78 -59 -63 -101 9 hvcurveto
            161 -40 113 -138 -8 -209 rrcurveto
            -197 -6 -113 -176 -145 hhcurveto
            -133 -81 97 269 57 hvcurveto
            53 245 -198 0 -52 -245 rlineto
            -263 -56 -70 -103 -116 hhcurveto
            -99 -63 81 181 8 hvcurveto
            9 281 118 229 182 100 rrcurveto
            -24 39 -315 -99 -169 -270 -10 -275 rlinecurve
            endchar
          </CharString>
          <CharString index="266">
            rmoveto
            138 120 86 187 115 hvcurveto
            1 -18 rlineto
            -190 16 62 -59 106 hhcurveto
            62 70 40 43 33 hvcurveto
            11 56 rlineto
            -13 -16 -31 -10 -25 hhcurveto
            -84 -27 26 231 -32 hvcurveto
            -12 84 299 545 rlineto
            -218 hlineto
            -25 -100 -47 -135 -43 -112 rrcurveto
            269 -20 -90 98 -174 hhcurveto
            -245 -217 -274 -369 -11 hvcurveto
            -219 -11 78 -166 217 hhcurveto
            -84 422 rmoveto
            326 10 124 197 142 hhcurveto
            117 20 -112 -394 31 hvcurveto
            4 -45 rlineto
            -202 -95 -94 -83 -102 hhcurveto
            -108 -59 103 210 10 hvcurveto
            endchar
          </CharString>
          <CharString index="267">
            191 43 125 149 119 hhcurveto
            100 40 -81 -123 -27 hvcurveto
            -148 -695 191 0 119 559 rlineto
            191 43 123 149 121 hhcurveto
            98 41 -81 -133 -28 hvcurveto
            -105 -490 rlineto
            -143 -31 43 -68 111 hhcurveto
            82 102 40 55 43 hvcurveto
            13 63 rlineto
            -32 104 callsubr
            107 493 rlineto
            211 46 -87 122 -181 hhcurveto
            -146 -123 -105 -176 -70 hvcurveto
            5 18 rlineto
            162 15 -76 101 -166 hhcurveto
            -147 -116 -92 -191 -78 hvcurveto
            60 275 -67 callsubr
            return
          </CharString>
          <CharString index="268">
            rmoveto
            320 190 287 307 100 -23 91 -45 72 hvcurveto
            109 114 -53 49 -100 -105 rlineto
            70 -64 -92 42 -114 hhcurveto
            -320 -190 -287 -308 -101 23 -92 46 -72 hvcurveto
            -105 -110 53 -49 96 101 rlineto
            -68 65 91 -41 113 hhcurveto
            -186 375 rmoveto
            262 1 98 314 211 hhcurveto
            82 59 -49 -97 29 hvcurveto
            -476 -501 rlineto
            -3 22 -1 24 25 vvcurveto
            189 -299 rmoveto
            -80 -60 47 95 -29 hvcurveto
            475 499 rlineto
            2 -20 1 -22 -24 vvcurveto
            -262 -1 -97 -313 -211 hhcurveto
            endchar
          </CharString>
          <CharString index="269">
            rmoveto
            211 153 73 115 85 hvcurveto
            13 65 rlineto
            -75 -69 -151 -60 -147 hhcurveto
            -148 -81 63 103 3 hvcurveto
            132 1 118 62 255 hhcurveto
            48 hlineto
            13 143 rlineto
            -73 hlineto
            -211 -67 60 94 3 hvcurveto
            106 3 87 70 166 hhcurveto
            95 68 -19 -30 44 hvcurveto
            -49 -12 -23 -50 -37 vvcurveto
            -53 45 -48 62 59 48 45 69 115 -94 98 -254 -303 -136 -136 -161 -3 vhcurveto
            -4 -108 68 -87 138 -32 -196 -27 -112 -88 -4 -147 rrcurveto
            -138 -4 120 -105 223 hhcurveto
            endchar
          </CharString>
          <CharString index="270">
            rmoveto
            -17 -97 -150 -23 -11 -53 147 0 -165 -944 -49 -274 -63 -67 -94 -6 rlinecurve
            17 18 11 25 28 vvcurveto
            57 -44 42 -54 -54 -44 -43 -59 -79 63 -65 114 184 159 166 464 82 vhcurveto
            131 741 230 -4 20 86 -238 -9 29 161 rlineto
            223 39 65 79 90 4 3 -1 4 hhcurveto
            -22 -18 -14 -28 -32 vvcurveto
            -59 44 -43 55 58 47 45 61 82 -72 68 -129 -190 -132 -150 -292 -54 vhcurveto
            endchar
          </CharString>
          <CharString index="271">
            199 hlineto
            119 568 rlineto
            211 45 113 121 134 hhcurveto
            96 76 -67 -199 -40 hvcurveto
            -36 -176 -143 -644 -59 -274 rrcurveto
            195 hlineto
            13 59 211 1002 14 68 rrcurveto
            231 48 -113 108 -180 hhcurveto
            -169 -116 -117 -145 -58 hvcurveto
            197 30 -75 54 -104 hhcurveto
            -70 -62 -23 -32 -47 hvcurveto
            -12 -57 rlineto
            6 16 22 5 28 hhcurveto
            67 44 -38 -131 -23 hvcurveto
            -30 -172 -93 -387 -40 -168 rrcurveto
            endchar
          </CharString>
          <CharString index="272">
            703 1259 rmoveto
            3 -121 -166 -29 -115 -13 -10 -49 rcurveline
            1 12 18 3 21 hhcurveto
            128 52 -73 -72 hvcurveto
            -112 2 -84 -63 -96 hhcurveto
            -48 -36 11 16 -25 hvcurveto
            22 12 12 23 25 vvcurveto
            38 -27 31 -40 -39 -31 -30 -42 78 callgsubr
            96 -63 73 -105 26 105 14 121 61 -2 112 rrcurveto
            108 -103 57 -110 -117 -103 -69 -119 -41 vhcurveto
            35 -17 rlineto
            73 38 58 38 72 hhcurveto
            86 45 -52 -54 1 hvcurveto
            return
          </CharString>
          <CharString index="273">
            rmoveto
            -72 56 -55 83 166 126 107 340 234 vhcurveto
            548 798 86 124 38 27 130 17 rlinecurve
            13 59 -440 0 -13 -59 170 -18 -6 -20 -83 -126 rlinecurve
            -465 -712 -169 721 -30 125 -1 11 184 19 rlinecurve
            12 59 -564 0 -11 -59 123 -17 28 -18 29 -114 rlinecurve
            243 -937 -83 -116 -81 -80 -83 -35 rlinecurve
            5 12 2 13 14 vvcurveto
            66 -53 52 -67 -70 -57 -57 -69 vhcurveto
            endchar
          </CharString>
          <CharString index="274">
            rmoveto
            78 73 50 48 33 hvcurveto
            12 64 rlineto
            -28 -40 -32 -13 -30 hhcurveto
            -44 -36 26 71 -41 hvcurveto
            -221 374 128 130 88 90 51 55 41 34 rlinecurve
            -60 4 44 -42 64 hhcurveto
            58 50 47 64 59 -38 55 -80 -89 -71 -73 -179 -168 hvcurveto
            -236 -253 106 497 -352 -45 -12 -57 82 -13 49 -11 10 -18 -9 -46 rlinecurve
            -174 -810 192 0 107 502 216 -363 rlineto
            -113 65 42 -42 80 hhcurveto
            endchar
          </CharString>
          <CharString index="275">
            rmoveto
            74 56 33 41 29 hvcurveto
            12 59 rlineto
            -19 -22 -30 -13 -33 hhcurveto
            -61 -38 56 80 72 31 77 71 72 hvcurveto
            446 7 293 399 426 vvcurveto
            373 -241 283 -385 -452 -301 -402 -429 3 vhcurveto
            2 -358 219 -275 358 -22 rrcurveto
            -127 -87 -84 -105 -105 vvcurveto
            -95 75 -68 105 vhcurveto
            63 544 rmoveto
            -229 -156 178 337 -98 callgsubr
            -90 callgsubr
            hvcurveto
            endchar
          </CharString>
          <CharString index="276">
            140 129 91 172 75 hvcurveto
            -1 -14 -61 -1 vvcurveto
            -126 -29 41 -68 105 hhcurveto
            81 103 40 53 43 hvcurveto
            14 62 rlineto
            -33 -38 -56 -12 -31 hhcurveto
            -46 -17 32 54 12 hvcurveto
            165 775 rlineto
            -1 9 9 0 9 hhcurveto
            112 85 62 117 69 -33 65 -44 37 hvcurveto
            -53 hlineto
            6 -16 3 -25 -25 vvcurveto
            -145 -82 -96 -244 -33 vhcurveto
            -119 -17 -11 -51 81 -13 rlineto
            49 -11 10 -17 -10 -47 145 callsubr
            return
          </CharString>
          <CharString index="277">
            520 hlineto
            12 59 -129 13 -20 18 20 91 rlinecurve
            9 43 885 857 -192 -900 -19 -93 -20 -14 -141 -15 rlinecurve
            -13 -59 519 0 13 59 -131 13 -19 17 19 92 rlinecurve
            230 1082 19 93 25 15 138 14 rlinecurve
            12 59 -519 0 -12 -59 133 -14 16 -15 -19 -93 rlinecurve
            -12 -53 -885 -857 193 910 20 92 23 16 -60 callgsubr
            27 callgsubr
            endchar
          </CharString>
          <CharString index="278">
            rmoveto
            -245 hlineto
            -10 -45 72 -8 7 -19 -14 -57 rlinecurve
            -117 -499 -16 -63 -14 -15 -76 -10 rlinecurve
            -10 -45 237 0 10 45 -75 10 -6 15 14 63 rlinecurve
            105 498 113 -631 73 0 103 205 267 430 -98 -528 -9 -44 -11 -10 -80 -8 rlinecurve
            -10 -45 321 0 10 45 -74 8 -8 9 9 45 rlinecurve
            102 545 8 44 13 11 79 9 rlinecurve
            10 44 -260 1 -317 -547 rlineto
            return
          </CharString>
          <CharString index="279">
            318 221 209 351 79 hvcurveto
            199 878 rlineto
            -1 10 12 -1 12 hhcurveto
            147 1 99 71 128 vvcurveto
            69 -34 66 -46 38 vhcurveto
            -53 hlineto
            6 -16 4 -26 -26 vvcurveto
            -149 -112 -122 -205 vhcurveto
            -101 hlineto
            -13 -59 rlineto
            144 -20 10 -27 -26 -125 -137 -665 rcurveline
            -312 75 callsubr
            21 145 18 rlinecurve
            12 59 -515 0 -12 -59 122 -18 16 -21 -21 -97 rlinecurve
            return
          </CharString>
          <CharString index="280">
            rmoveto
            -970 hlineto
            -12 -59 139 -14 12 -18 -19 -90 rlinecurve
            -231 -1082 -20 -90 -18 -18 -145 -14 rlinecurve
            -12 -59 544 0 13 59 -159 16 -14 18 19 86 rlinecurve
            110 519 233 -1 88 -2 19 -37 -7 -166 rlinecurve
            49 hlineto
            101 476 rlineto
            -49 hlineto
            -67 -166 -32 -31 -87 -1 rrcurveto
            -234 -2 129 607 211 -8 226 -9 65 -47 4 -219 rlinecurve
            53 hlineto
            endchar
          </CharString>
          <CharString index="281">
            -143 -14 -13 -59 rcurveline
            506 hlineto
            436 278 171 280 hvcurveto
            -160 663 rmoveto
            -183 -133 -137 -233 -1 vhcurveto
            -162 hlineto
            125 582 113 -3 rlineto
            194 -7 96 -88 -163 vvcurveto
            -67 -674 rmoveto
            -217 -155 -139 -344 -12 vhcurveto
            -114 -3 138 656 161 -2 rlineto
            208 -1 106 -114 -168 vvcurveto
            return
          </CharString>
          <CharString index="282">
            -136 -115 -87 -164 -67 vhcurveto
            165 729 -350 -42 -13 -57 82 -13 -96 callsubr
            -276 -1299 94 0 89 91 rlineto
            -59 30 72 -52 122 -89 callgsubr
            -1 -115 -324 -224 hhcurveto
            -86 -61 42 49 -13 hvcurveto
            93 434 rlineto
            203 46 108 108 103 hhcurveto
            95 56 -72 -180 -1 hvcurveto
            return
          </CharString>
          <CharString index="283">
            rmoveto
            71 62 31 42 32 hvcurveto
            13 59 rlineto
            -19 -22 -31 -13 -32 hhcurveto
            -59 -44 47 86 75 34 84 54 67 hvcurveto
            303 18 181 278 298 vvcurveto
            86 callsubr
            -234 127 -182 222 -17 vhcurveto
            -114 -85 -72 -106 -103 vvcurveto
            -97 72 -69 101 vhcurveto
            52 536 rmoveto
            -116 -71 100 197 hvcurveto
            137 callsubr
            endchar
          </CharString>
          <CharString index="284">
            rmoveto
            -352 -45 -13 -57 81 -13 rlineto
            51 -9 10 -20 -10 -46 -85 -403 rcurveline
            -267 -56 119 70 callgsubr
            -170 91 -208 -62 -61 -9 -12 -38 hvcurveto
            -54 -252 rmoveto
            39 182 rlineto
            10 36 49 8 48 hhcurveto
            146 80 -77 -146 -165 -102 -111 -136 -146 -53 116 183 39 hvcurveto
            endchar
          </CharString>
          <CharString index="285">
            307 165 -66 142 -132 70 vhcurveto
            -12 45 56 -10 53 hhcurveto
            171 117 72 137 70 -33 65 -44 37 hvcurveto
            -52 hlineto
            4 -16 4 -25 -25 vvcurveto
            -140 -106 -112 -164 vhcurveto
            -74 -58 18 -92 hhcurveto
            -324 -203 -264 -331 hvcurveto
            201 -60 rmoveto
            137 callsubr
            -116 -71 100 197 hvcurveto
            return
          </CharString>
          <CharString index="286">
            263 -806 rmoveto
            61 -55 120 150 2 1 63 -42 rlineto
            -87 132 69 -20 86 hhcurveto
            111 114 66 170 85 hvcurveto
            -40 33 rlineto
            -90 -55 -60 -29 -56 hhcurveto
            -84 -54 24 66 -110 hvcurveto
            -79 48 582 662 12 57 -687 0 -75 -292 rlineto
            52 hlineto
            116 46 25 17 95 hhcurveto
            337 hlineto
            endchar
          </CharString>
          <CharString index="287">
            1784 rmoveto
            83 76 47 107 23 hvcurveto
            -65 hlineto
            -45 -9 -31 -17 -41 hhcurveto
            -26 -25 6 13 -37 hvcurveto
            -26 10 rlineto
            13 -38 -38 9 -44 hhcurveto
            -82 -79 -48 -106 -22 hvcurveto
            65 hlineto
            44 10 31 18 40 hhcurveto
            26 25 -6 -13 37 hvcurveto
            27 -10 rlineto
            -13 38 37 -9 45 hhcurveto
            -169 -254 -15 callsubr
            return
          </CharString>
          <CharString index="288">
            rmoveto
            321 194 286 307 247 -139 188 -244 -321 -194 -286 -308 -246 140 -188 243 hvcurveto
            6 77 rmoveto
            -118 -69 100 198 1 hvcurveto
            260 1 106 315 200 hhcurveto
            117 69 -99 -198 -1 hvcurveto
            -260 -106 -316 -200 vhcurveto
            endchar
          </CharString>
          <CharString index="289">
            157 -1192 132 0 657 1177 95 169 32 27 121 15 rlinecurve
            11 59 -420 0 -12 -59 144 -20 15 -30 -85 -157 rlinecurve
            -515 -968 -113 979 -17 143 26 34 148 19 rlinecurve
            13 59 -531 0 -11 -59 104 -14 29 -27 20 -155 rlinecurve
            return
          </CharString>
          <CharString index="290">
            -10 -55 rlineto
            247 -228 rmoveto
            114 80 39 59 12 hvcurveto
            59 13 -64 38 -114 hhcurveto
            -64 hlineto
            -112 -82 -38 -59 -12 hvcurveto
            -59 -13 66 -39 111 hhcurveto
            71 50 rmoveto
            -56 hlineto
            -41 -19 19 29 6 hvcurveto
            28 5 29 19 41 hhcurveto
            56 hlineto
            44 17 -19 -28 -6 hvcurveto
            -29 -5 -27 -19 -44 hhcurveto
            return
          </CharString>
          <CharString index="291">
            155 -16 10 -16 -18 -88 -80 -379 rcurveline
            -39 -53 -96 -21 -89 hhcurveto
            -266 -178 226 330 462 256 309 327 225 127 -120 -254 8 hvcurveto
            53 -4 56 308 rlineto
            77 -87 -191 77 -227 hhcurveto
            -463 -313 -345 -475 -1 hvcurveto
            return
          </CharString>
          <CharString index="292">
            19 92 21 15 142 15 rlinecurve
            13 59 -519 0 -13 -59 130 -13 19 -18 -19 -91 rlinecurve
            -253 -1188 -580 0 253 1188 20 93 19 14 142 15 rlinecurve
            12 59 -518 0 -12 -59 130 -13 19 -17 -20 -92 rlinecurve
            -252 -1188 -581 0 return
          </CharString>
          <CharString index="293">
            103 484 406 506 138 174 39 25 111 17 rlinecurve
            13 59 -409 0 -13 -59 143 -17 1 -38 -116 -152 rlinecurve
            -338 -448 -160 459 -48 139 15 39 149 18 rlinecurve
            12 59 -524 0 -11 -59 100 -15 29 -27 57 -154 rlinecurve
            return
          </CharString>
          <CharString index="294">
            1907 rmoveto
            -70 -60 -27 -24 -35 hvcurveto
            -11 -47 rlineto
            13 25 46 12 44 hhcurveto
            56 31 -21 -34 -8 hvcurveto
            -7 -34 -36 -21 -69 -17 rrcurveto
            43 -35 110 26 73 33 15 70 rlinecurve
            69 14 -76 37 -85 hhcurveto
            -570 -414 -43 callsubr
            -4 callsubr
            return
          </CharString>
          <CharString index="295">
            1278 1278 451 rmoveto
            171 -136 131 -220 23 vhcurveto
            210 24 200 105 3 212 rrcurveto
            198 4 -173 129 -340 hhcurveto
            -462 hlineto
            -12 -59 rlineto
            138 -14 13 -18 -19 -90 -107 callgsubr
            174 callsubr
            return
          </CharString>
          <CharString index="296">
            -312 -45 -12 -57 78 -12 rlineto
            51 -9 11 -18 4 -47 74 -815 rcurveline
            108 hlineto
            292 326 236 386 173 vvcurveto
            76 -49 50 -71 -68 -51 -50 -63 -61 50 -49 63 vhcurveto
            6 5 1 5 hhcurveto
            -54 -197 -142 -219 -162 -201 rrcurveto
            return
          </CharString>
          <CharString index="297">
            1762 rmoveto
            84 76 49 106 23 hvcurveto
            -65 hlineto
            -45 -9 -86 callgsubr
            -38 9 -45 hhcurveto
            -82 -78 -48 -107 -22 hvcurveto
            65 hlineto
            45 10 30 18 41 hhcurveto
            26 25 -7 -13 -58 callgsubr
            -435 -269 -43 callsubr
            -4 callsubr
            return
          </CharString>
          <CharString index="298">
            -10 -31 -18 -40 hhcurveto
            -26 -26 7 12 -37 hvcurveto
            -26 10 rlineto
            14 -38 -37 9 -45 hhcurveto
            -82 -78 -49 -106 -23 hvcurveto
            65 hlineto
            45 10 31 18 40 hhcurveto
            27 24 -6 -14 37 hvcurveto
            27 -9 rlineto
            -14 38 37 -9 45 hhcurveto
            -295 -1579 -100 callsubr
          </CharString>
          <CharString index="299">
            rmoveto
            70 54 55 70 64 -48 49 -68 -68 -56 -55 -69 -65 49 -49 67 hvcurveto
            54 -197 rmoveto
            -351 -45 -14 -57 83 -13 49 -11 10 -18 -10 -46 rlinecurve
            -64 callsubr
            -191 -79 rlinecurve
            19 -52 316 99 96 148 57 267 rlinecurve
            endchar
          </CharString>
          <CharString index="300">
            1603 rmoveto
            76 1 53 55 19 167 rrcurveto
            -56 hlineto
            -90 -14 -22 25 callsubr
            -43 hhcurveto
            -52 callgsubr
            23 25 31 hhcurveto
            24 19 -12 -23 26 -41 callgsubr
            return
          </CharString>
          <CharString index="301">
            1950 rmoveto
            -73 -62 -26 -24 -37 hvcurveto
            -11 -47 rlineto
            12 26 47 13 46 hhcurveto
            58 34 -21 -35 -8 hvcurveto
            -7 -34 -38 -21 -73 -17 rrcurveto
            46 -35 115 25 76 34 14 70 rlinecurve
            69 15 -79 37 -89 hhcurveto
            -63 -420 -15 callsubr
            return
          </CharString>
          <CharString index="302">
            -199 -29 -119 -563 rlineto
            -178 -41 -128 -143 -130 hhcurveto
            -100 -32 80 129 28 hvcurveto
            150 704 -199 -28 -120 -567 rlineto
            -178 -42 -128 -140 -129 hhcurveto
            -100 -31 80 129 27 hvcurveto
            return
          </CharString>
          <CharString index="303">
            85 397 19 90 23 17 143 14 rlinecurve
            13 59 -524 0 -13 -59 rlineto
            134 -14 17 -17 -20 -91 -230 -1083 rcurveline
            -19 -90 -19 -16 -144 -15 -13 -59 rcurveline
            511 hlineto
            423 282 196 288 hvcurveto
            return
          </CharString>
          <CharString index="304">
            1599 rmoveto
            156 129 89 173 56 hvcurveto
            -64 21 rlineto
            -136 -47 -102 -78 -123 hhcurveto
            -42 -35 12 19 -27 hvcurveto
            44 5 36 40 48 vvcurveto
            57 -41 45 -55 -59 -42 -47 -63 -100 86 -85 130 vhcurveto
            return
          </CharString>
          <CharString index="305">
            -483 rmoveto
            75 64 31 39 34 hvcurveto
            12 60 rlineto
            -20 -29 -36 -12 -38 hhcurveto
            -59 -38 28 66 80 51 93 163 99 hvcurveto
            80 49 -61 0 -82 -46 rlineto
            -218 -127 -83 -92 -101 vvcurveto
            -92 72 -55 93 vhcurveto
            endchar
          </CharString>
          <CharString index="306">
            1189 rmoveto
            197 -534 -101 -476 -18 -86 -22 -19 -165 -15 rlinecurve
            -12 -59 96 callsubr
            186 callsubr
            return
          </CharString>
          <CharString index="307">
            rrcurveto
            231 7 151 88 154 hhcurveto
            53 47 -11 -19 35 hvcurveto
            -37 -12 -28 -33 -49 vvcurveto
            -52 37 -50 65 57 47 46 58 111 -117 95 -196 -220 -248 -137 -305 -8 vhcurveto
            return
          </CharString>
          <CharString index="308">
            976 232 291 rmoveto
            56 -43 100 -37 132 -7 rrcurveto
            -44 -204 59 0 44 203 rlineto
            217 6 160 121 177 vvcurveto
            109 -52 86 -142 88 vhcurveto
            return
          </CharString>
          <CharString index="309">
            0 -13 -59 rlineto
            147 -18 22 -30 -30 -131 -43 -190 -31 -127 -64 -227 -76 -273 -68 -188 -89 -91 rrcurveto
            5 vlineto
            70 -49 53 -76 -74 -56 -57 -71 return
          </CharString>
          <CharString index="310">
            -106 -500 rcurveline
            -195 -42 60 -135 186 hhcurveto
            122 143 71 193 95 hvcurveto
            -164 -16 66 -100 163 hhcurveto
            124 146 75 202 94 hvcurveto
            -1 return
          </CharString>
        <CharString name=".notdef">
          2048 43 -494 rmoveto
          112 hlineto
          519 2444 rlineto
          -112 hlineto
          -108 -93 callgsubr
          -110 -2444 rmoveto
          112 hlineto
          519 2444 rlineto
          -112 hlineto
          -109 -93 callgsubr
          -109 -93 callgsubr
          endchar
        </CharString>
        <CharString name=".null">
          0 endchar
        </CharString>
        <CharString name="A">
          1332 1198 255 -105 callsubr
        </CharString>
        <CharString name="AE">
          1929 2058 1444 116 callsubr
        </CharString>
        <CharString name="AEacute">
          1929 1638 23 callsubr
          228 -387 116 callsubr
        </CharString>
        <CharString name="AEmacron">
          1929 1290 -20 callsubr
          24 112 rlineto
          -471 hlineto
          744 -304 116 callsubr
        </CharString>
        <CharString name="Aacute">
          1332 1118 -92 callsubr
          -94 callsubr
          -111 -1576 -105 callsubr
        </CharString>
        <CharString name="Abreve">
          1332 1028 151 callsubr
          -53 callgsubr
          -10 -27 -8 -32 -42 callgsubr
          170 -1334 -105 callsubr
        </CharString>
        <CharString name="Abreveacute">
          1332 1310 1835 -51 callsubr
          -10 -54 rlineto
          214 -230 -15 callsubr
          216 -1275 -105 callsubr
        </CharString>
        <CharString name="Abrevecyrillic">
          1332 983 197 callsubr
          215 -1344 -105 callsubr
        </CharString>
        <CharString name="Abrevedotbelow">
          1332 1028 151 callsubr
          -53 callgsubr
          -10 -27 -8 -32 -42 callgsubr
          170 -1334 rmoveto
          -35 callsubr
          15 callsubr
          -367 -789 -97 callsubr
          -73 callsubr
        </CharString>
        <CharString name="Abrevegrave">
          1332 784 1835 rmoveto
          511 -75 12 54 -500 137 rlineto
          175 -421 -15 callsubr
          216 -1275 -105 callsubr
        </CharString>
        <CharString name="Abrevehookabove">
          1332 1045 194 callsubr
          216 -1275 -105 callsubr
        </CharString>
        <CharString name="Abrevetilde">
          1332 1151 180 callsubr
          216 -1275 -105 callsubr
        </CharString>
        <CharString name="Acaron">
          1332 1224 -87 callsubr
          -64 callgsubr
          -93 -1602 -105 callsubr
        </CharString>
        <CharString name="Acircumflex">
          1332 817 -42 callsubr
          84 callsubr
          448 -1302 -105 callsubr
        </CharString>
        <CharString name="Acircumflexacute">
          1332 1305 1814 -51 callsubr
          -10 -55 rlineto
          -52 -245 -43 callsubr
          -4 callsubr
          475 -1293 -105 callsubr
        </CharString>
        <CharString name="Acircumflexdotbelow">
          1332 817 -42 callsubr
          84 callsubr
          448 -1302 rmoveto
          -35 callsubr
          15 callsubr
          -367 -789 -97 callsubr
          -73 callsubr
        </CharString>
        <CharString name="Acircumflexgrave">
          1332 779 1814 rmoveto
          511 48 callsubr
          -91 -437 -43 callsubr
          -4 callsubr
          475 -1293 -105 callsubr
        </CharString>
        <CharString name="Acircumflexhookabove">
          1332 1281 187 callsubr
          475 -1293 -105 callsubr
        </CharString>
        <CharString name="Acircumflextilde">
          1332 1146 190 callsubr
          475 -1293 -105 callsubr
        </CharString>
        <CharString name="Acyrillic">
          1332 1198 255 -105 callsubr
        </CharString>
        <CharString name="Adblgrave">
          1332 804 1832 rmoveto
          -151 -6 -38 callgsubr
          90 callgsubr
          54 -1301 -105 callsubr
        </CharString>
        <CharString name="Adieresis">
          1332 858 4 callsubr
          95 callgsubr
          312 hmoveto
          81 callsubr
          28 -1345 -105 callsubr
        </CharString>
        <CharString name="Adieresismacron">
          1332 779 1812 -39 callgsubr
          31 -342 50 callsubr
          10 -30 33 -45 hhcurveto
          -8 0 callsubr
          47 hhcurveto
          308 hmoveto
          47 -104 callgsubr
          67 callgsubr
          76 -1301 -105 callsubr
        </CharString>
        <CharString name="Adotaccent">
          1332 1014 -75 callsubr
          3 callsubr
          184 -1343 -105 callsubr
        </CharString>
        <CharString name="Adotbelow">
          1332 1198 255 rmoveto
          -35 callsubr
          15 callsubr
          -367 -789 -97 callsubr
          -73 callsubr
        </CharString>
        <CharString name="Adotmacron">
          1332 774 -22 callgsubr
          192 -1296 -105 callsubr
        </CharString>
        <CharString name="Agrave">
          1332 941 -56 callsubr
          146 -1302 -105 callsubr
        </CharString>
        <CharString name="Ahookabove">
          1332 1041 1877 rmoveto
          -70 -65 -55 callgsubr
          22 callgsubr
          157 -1622 -105 callsubr
        </CharString>
        <CharString name="Ainvertedbreve">
          1332 1021 10 callgsubr
          177 -1618 -105 callsubr
        </CharString>
        <CharString name="Alphagreek">
          1332 1198 255 -105 callsubr
        </CharString>
        <CharString name="Alphatonosgreek">
          1332 1198 255 rmoveto
          -35 callsubr
          17 -144 -26 -34 -148 -19 rlinecurve
          -13 -59 530 0 -44 callgsubr
          -684 1189 -50 callsubr
          283 363 rlineto
          10 vlineto
          -198 -861 rmoveto
          346 649 75 -649 rlineto
          endchar
        </CharString>
        <CharString name="Amacron">
          1332 769 -20 callsubr
          24 112 rlineto
          -470 hlineto
          404 -1493 -105 callsubr
        </CharString>
        <CharString name="Aogonek">
          1332 1016 -480 rmoveto
          75 55 33 41 29 hvcurveto
          13 59 rlineto
          -19 -22 -31 -13 -32 hhcurveto
          -61 -39 56 84 77 35 84 77 78 hvcurveto
          224 hlineto
          -44 callgsubr
          -35 callsubr
          rlineto
          17 -144 -26 -34 -148 -19 -13 -59 rcurveline
          250 -49 callgsubr
          75 -68 104 vhcurveto
          -496 1063 rmoveto
          346 649 75 -649 rlineto
          endchar
        </CharString>
        <CharString name="Aring">
          1332 811 -11 callgsubr
          125 -13 rmoveto
          80 49 63 56 50 29 -35 -58 -80 -49 -63 -57 -50 -28 35 58 vhcurveto
          262 -1464 -105 callsubr
        </CharString>
        <CharString name="Aringacute">
          1332 1306 1819 -51 callsubr
          183 callsubr
          181 -1310 -105 callsubr
        </CharString>
        <CharString name="Aringbelow">
          1332 1198 255 rmoveto
          -35 callsubr
          15 callsubr
          -611 -896 rmoveto
          -101 3 99 -62 127 hhcurveto
          150 104 79 106 -4 -4 callgsubr
          54 34 -32 -54 2 hvcurveto
          -76 3 -54 -58 -62 hhcurveto
          -55 -33 32 54 -2 hvcurveto
          endchar
        </CharString>
        <CharString name="Atilde">
          1332 1110 89 callsubr
          -13 -23 25 callsubr
          -42 hhcurveto
          54 callgsubr
          -71 callgsubr
          88 -1348 -105 callsubr
        </CharString>
        <CharString name="B">
          1278 1278 451 61 callsubr
        </CharString>
        <CharString name="Bdotaccent">
          1278 928 -75 callsubr
          3 callsubr
          350 -1147 61 callsubr
        </CharString>
        <CharString name="Bdotbelow">
          188 callsubr
          -509 -646 -97 callsubr
          -65 callsubr
        </CharString>
        <CharString name="Becyrillic">
          1268 1286 464 rmoveto
          204 -157 162 -376 vhcurveto
          -142 hlineto
          115 545 226 -10 262 -11 41 -48 5 -210 rlinecurve
          51 hlineto
          60 348 -1009 0 -13 -59 rlineto
          150 -16 15 -15 -19 -91 -230 -1083 rcurveline
          -19 -90 -23 -15 -155 -16 -13 -59 rcurveline
          526 hlineto
          412 293 182 282 hvcurveto
          -223 -1 rmoveto
          -220 -168 -160 -329 -10 vhcurveto
          -118 -4 146 685 132 -1 rlineto
          216 -1 121 -98 -191 vvcurveto
          endchar
        </CharString>
        <CharString name="Betagreek">
          1278 1278 451 61 callsubr
        </CharString>
        <CharString name="Blinebelow">
          188 callsubr
          -766 -797 -68 callgsubr
        </CharString>
        <CharString name="C">
          1398 479 615 -48 callsubr
          -30 callsubr
        </CharString>
        <CharString name="Cacute">
          1398 1261 -92 callsubr
          -94 callsubr
          -973 -1216 -48 callsubr
          -30 callsubr
        </CharString>
        <CharString name="Ccaron">
          1398 1367 -87 callsubr
          -84 callsubr
          32 callsubr
          -956 -1242 -48 callsubr
          -30 callsubr
        </CharString>
        <CharString name="Ccedilla">
          1398 479 615 -48 callsubr
          -2 -398 246 -248 332 -28 rrcurveto
          -114 -129 -53 callsubr
          -40 -33 -66 28 callsubr
          -73 callgsubr
          28 callgsubr
        </CharString>
        <CharString name="Ccedillaacute">
          1398 1261 -92 callsubr
          -94 callsubr
          -973 -1216 -48 callsubr
          -2 -398 246 -248 332 -28 rrcurveto
          -114 -129 -53 callsubr
          -40 -33 -66 28 callsubr
          -73 callgsubr
          28 callgsubr
        </CharString>
        <CharString name="Ccircumflex">
          1398 961 65 callsubr
          -414 -942 -48 callsubr
          -30 callsubr
        </CharString>
        <CharString name="Cdotaccent">
          1398 1157 -75 callsubr
          -22 callsubr
          -678 -983 -48 callsubr
          -30 callsubr
        </CharString>
        <CharString name="Checyrillic">
          1505 1125 180 rmoveto
          -19 -91 -21 -15 -148 -15 rrcurveto
          -13 -59 527 0 12 59 -131 13 -19 16 20 93 rlinecurve
          229 1082 20 93 24 15 -60 callgsubr
          rlineto
          133 -14 16 -16 -19 -92 -118 -552 rcurveline
          -33 -105 -100 -24 -117 hhcurveto
          -235 -95 127 259 55 hvcurveto
          48 223 21 92 22 16 138 14 rlinecurve
          12 59 -518 0 -13 -59 rlineto
          134 -14 16 -16 -19 -92 -47 -223 rcurveline
          -317 -67 173 -150 342 hhcurveto
          137 92 26 37 110 hvcurveto
          endchar
        </CharString>
        <CharString name="Chigreek">
          1286 317 269 7 callsubr
        </CharString>
        <CharString name="D">
          1467 -24 callsubr
          -55 callsubr
          endchar
        </CharString>
        <CharString name="Dbar">
          1467 207 704 rmoveto
          157 hlineto
          -111 -523 rlineto
          -20 -90 -19 -18 -144 -14 -13 -59 rcurveline
          487 hlineto
          564 418 341 486 367 -269 250 -453 hvcurveto
          -440 hlineto
          -12 -59 rlineto
          137 -14 14 -18 -19 -90 -104 -487 rcurveline
          -157 hlineto
          1071 64 -81 callgsubr
          135 635 278 0 16 72 -279 0 128 599 87 -4 rlineto
          339 -19 153 -226 -286 vvcurveto
          endchar
        </CharString>
        <CharString name="Dcaron">
          1467 1169 -87 callsubr
          -84 callsubr
          32 callsubr
          289 -1030 13 callsubr
          -55 callsubr
          endchar
        </CharString>
        <CharString name="Dcircumflexbelow">
          1467 -24 callsubr
          -55 callsubr
          -935 -1303 152 callsubr
        </CharString>
        <CharString name="Dcommaaccent">
          1467 -24 callsubr
          -55 callsubr
          -748 -1312 -63 callsubr
          70 callsubr
        </CharString>
        <CharString name="Ddotaccent">
          1467 959 -75 callsubr
          -22 callsubr
          567 -771 13 callsubr
          -55 callsubr
          endchar
        </CharString>
        <CharString name="Ddotbelow">
          1467 -24 callsubr
          -55 callsubr
          -723 -1046 -97 callsubr
          -73 callsubr
        </CharString>
        <CharString name="Decyrillic">
          1451 639 877 rmoveto
          49 183 51 215 22 91 rrcurveto
          534 hlineto
          -275 -1288 rlineto
          -709 hlineto
          115 121 101 231 112 447 rrcurveto
          794 -799 rmoveto
          -206 hlineto
          252 1185 20 92 24 16 139 14 rlinecurve
          13 59 -1173 0 -12 -59 rlineto
          150 -18 21 -30 -34 -150 -27 -117 -30 -112 -21 -77 -105 -416 -105 -266 -150 -121 rrcurveto
          -138 hlineto
          -88 -386 rlineto
          68 hlineto
          262 131 24 46 178 hhcurveto
          724 hlineto
          177 13 -41 -267 18 hvcurveto
          68 hlineto
          endchar
        </CharString>
        <CharString name="Deltagreek">
          1176 32 1 rmoveto
          1091 hlineto
          11 60 -191 1386 -123 0 -774 -1385 rlineto
          104 13 rmoveto
          618 1139 143 -1139 rlineto
          endchar
        </CharString>
        <CharString name="Djecyrillic">
          1653 1640 416 rmoveto
          269 -165 137 -303 -108 -80 -13 -23 -78 vhcurveto
          125 589 91 callgsubr
          64 352 -1181 0 -84 -352 rlineto
          52 hlineto
          98 235 66 33 -31 callgsubr
          113 531 rcurveline
          19 74 76 11 86 hhcurveto
          198 109 -104 -216 -311 -147 -297 -305 -149 hvcurveto
          19 -50 rlineto
          394 137 246 316 350 vvcurveto
          endchar
        </CharString>
        <CharString name="Dlinebelow">
          1467 -24 callsubr
          -55 callsubr
          -979 -1197 -76 callsubr
        </CharString>
        <CharString name="Dzecyrillic">
          1105 584 -26 53 callsubr
          endchar
        </CharString>
        <CharString name="Dzhecyrillic">
          1521 144 callsubr
          510 hlineto
          99 16 -25 -285 -18 hvcurveto
          67 hlineto
          285 102 27 25 98 hhcurveto
          511 hlineto
          12 59 -135 14 -17 17 19 91 rlinecurve
          230 1082 20 92 21 15 144 15 rlinecurve
          12 59 -520 0 -11 -59 127 -13 19 -18 -19 -91 rlinecurve
          -254 -1188 -681 0 253 1188 20 93 78 callsubr
        </CharString>
        <CharString name="E">
          1197 1369 1444 -95 callsubr
        </CharString>
        <CharString name="Eacute">
          1197 1051 -92 callsubr
          -94 callsubr
          127 -387 -95 callsubr
        </CharString>
        <CharString name="Ebreve">
          1197 961 127 callsubr
          408 -145 -95 callsubr
        </CharString>
        <CharString name="Ecaron">
          1197 1157 -87 callsubr
          -84 callsubr
          -66 callsubr
          144 -413 -95 callsubr
        </CharString>
        <CharString name="Ecedilla">
          1197 513 -472 rmoveto
          -73 callgsubr
          98 112 rlineto
          3 444 vlineto
          -34 callsubr
          62 352 -998 0 -28 callsubr
          523 0 -135 -153 -53 callsubr
          -40 -33 -66 28 callsubr
          endchar
        </CharString>
        <CharString name="Ecedillabreve">
          1197 961 127 callsubr
          -448 -2061 rmoveto
          -73 callgsubr
          98 112 rlineto
          3 444 vlineto
          -34 callsubr
          62 352 -998 0 -28 callsubr
          523 0 -135 -153 -53 callsubr
          -40 -33 -66 28 callsubr
          endchar
        </CharString>
        <CharString name="Ecircumflex">
          1197 751 90 callsubr
          685 -113 -95 callsubr
        </CharString>
        <CharString name="Ecircumflexacute">
          1197 1238 1814 -1 callsubr
          -52 -245 -43 callsubr
          -210 151 -44 0 -273 -151 rlineto
          714 -104 -95 callsubr
        </CharString>
        <CharString name="Ecircumflexbelow">
          1197 1369 1444 rmoveto
          -998 hlineto
          -28 callsubr
          1044 0 -34 callsubr
          -975 -1555 -25 callsubr
        </CharString>
        <CharString name="Ecircumflexdotbelow">
          1197 751 90 callsubr
          685 -113 rmoveto
          -998 hlineto
          -28 callsubr
          1044 0 -34 callsubr
          -763 -1298 -97 callsubr
          -65 callsubr
        </CharString>
        <CharString name="Ecircumflexgrave">
          1197 711 1814 106 callsubr
          -92 -437 -43 callsubr
          -210 151 -44 0 -273 -151 rlineto
          714 -104 -95 callsubr
        </CharString>
        <CharString name="Ecircumflexhookabove">
          1197 1214 1907 rmoveto
          -70 -61 -27 -24 -35 hvcurveto
          -10 -47 rlineto
          13 24 46 12 44 hhcurveto
          57 31 -21 -34 -8 hvcurveto
          -7 -34 -37 -21 -69 -17 rrcurveto
          44 -35 110 26 72 33 15 70 rlinecurve
          69 15 -77 37 -84 hhcurveto
          -571 -414 -43 callsubr
          -210 151 -44 0 -273 -151 rlineto
          714 -104 -95 callsubr
        </CharString>
        <CharString name="Ecircumflextilde">
          1197 1079 1762 rmoveto
          83 77 49 106 22 hvcurveto
          -65 hlineto
          -45 -9 -86 callgsubr
          -37 9 -45 hhcurveto
          -82 -79 -48 -107 -22 hvcurveto
          65 hlineto
          45 10 31 18 41 hhcurveto
          25 26 -7 -13 37 hvcurveto
          26 -9 rlineto
          -14 64 callgsubr
          11 55 -210 151 -44 0 -273 -151 rlineto
          714 -104 -95 callsubr
        </CharString>
        <CharString name="Ecyrillic">
          1404 481 615 rmoveto
          30 1 28 2 28 vhcurveto
          691 -7 18 89 -701 -7 rlineto
          371 52 232 239 287 hhcurveto
          224 127 -120 -254 9 hvcurveto
          0 callgsubr
          -30 callsubr
        </CharString>
        <CharString name="Edblgrave">
          1197 738 1832 rmoveto
          -152 -6 hlineto
          209 -270 rlineto
          57 hlineto
          166 276 rmoveto
          -145 -6 hlineto
          151 -270 rlineto
          53 hlineto
          292 -112 -95 callsubr
        </CharString>
        <CharString name="Edieresis">
          1197 792 1600 rmoveto
          81 callsubr
          311 hmoveto
          -45 callgsubr
          266 -156 -95 callsubr
        </CharString>
        <CharString name="Edotaccent">
          1197 948 19 callsubr
          421 -154 -95 callsubr
        </CharString>
        <CharString name="Edotbelow">
          1197 1369 1444 rmoveto
          -998 hlineto
          -28 callsubr
          1044 0 -34 callsubr
          -763 -1298 -97 callsubr
          -65 callsubr
        </CharString>
        <CharString name="Efcyrillic">
          1800 219 685 rmoveto
          -277 244 -177 373 -26 vhcurveto
          -10 -47 -19 -89 -20 -17 -146 -13 rlinecurve
          -12 -60 526 0 12 60 rlineto
          -133 14 -21 16 19 89 10 44 rcurveline
          562 14 276 222 321 vvcurveto
          278 -245 178 -375 24 vhcurveto
          10 47 18 89 24 17 142 13 rlinecurve
          12 60 -525 0 -13 -60 rlineto
          137 -14 17 -16 -19 -89 -9 -44 rcurveline
          -560 -16 -275 -221 -320 vvcurveto
          231 -15 rmoveto
          293 165 186 423 18 vhcurveto
          -186 -887 rlineto
          -273 27 -129 146 217 vvcurveto
          1200 104 rmoveto
          -293 -167 -186 -426 -18 vhcurveto
          187 887 rlineto
          275 -26 131 -146 -218 vvcurveto
          endchar
        </CharString>
        <CharString name="Egrave">
          1197 874 -56 callsubr
          384 -113 -95 callsubr
        </CharString>
        <CharString name="Ehookabove">
          1197 975 1877 34 callsubr
          1 callsubr
          100 callsubr
          394 -433 -95 callsubr
        </CharString>
        <CharString name="Einvertedbreve">
          1197 954 1873 rmoveto
          -158 61 callgsubr
          63 -54 -72 -12 -1 -13 -2 -8 hvcurveto
          62 callgsubr
          415 -429 -95 callsubr
        </CharString>
        <CharString name="Elcyrillic">
          1452 197 -27 rmoveto
          197 111 203 477 130 hvcurveto
          77 282 48 190 55 244 rrcurveto
          510 hlineto
          -254 -1188 -19 -93 -20 -14 -142 -15 rlinecurve
          -12 -59 519 0 13 59 -131 13 -20 17 19 92 rlinecurve
          231 1082 19 93 24 15 139 14 rlinecurve
          12 59 -1148 202 callsubr
          -79 55 -58 87 vhcurveto
          endchar
        </CharString>
        <CharString name="Emacron">
          1197 703 -20 callsubr
          23 112 rlineto
          -470 hlineto
          642 -304 -95 callsubr
        </CharString>
        <CharString name="Emacronacute">
          1197 1243 1836 -1 callsubr
          -37 -175 rmoveto
          527 hlineto
          19 88 rlineto
          -528 hlineto
          688 -229 -95 callsubr
        </CharString>
        <CharString name="Emacrongrave">
          1197 716 1836 106 callsubr
          -77 -367 rmoveto
          527 hlineto
          19 88 rlineto
          -528 hlineto
          688 -229 -95 callsubr
        </CharString>
        <CharString name="Emcyrillic">
          1754 744 1444 9 callsubr
        </CharString>
        <CharString name="Encyrillic">
          1535 461 181 -71 callsubr
          -78 callgsubr
          endchar
        </CharString>
        <CharString name="Eogonek">
          1197 879 -480 rmoveto
          74 56 33 41 29 hvcurveto
          12 59 rlineto
          -19 -21 -31 -13 -33 hhcurveto
          -60 -39 56 84 77 35 84 77 78 hvcurveto
          130 hlineto
          100 393 rlineto
          -53 hlineto
          -106 -266 -79 -39 -285 -10 rrcurveto
          -241 -9 135 637 255 -2 91 -2 18 -54 callgsubr
          8 callgsubr
          63 -45 4 -220 rlinecurve
          52 hlineto
          62 352 -998 0 -12 -59 rlineto
          138 -14 13 -18 -19 -90 -107 callgsubr
          -144 -14 -13 -59 rcurveline
          858 -49 callgsubr
          74 -68 105 vhcurveto
          endchar
        </CharString>
        <CharString name="Epsilongreek">
          1197 1369 1444 -95 callsubr
        </CharString>
        <CharString name="Epsilontonosgreek">
          1517 1689 1444 rmoveto
          -998 hlineto
          -13 -59 138 -14 13 -18 -19 -90 rlinecurve
          -231 -1082 -19 -90 -20 -18 -144 -14 rlinecurve
          -12 -59 1044 0 -61 callsubr
          -107 -266 -79 -39 -284 -10 rrcurveto
          -241 -9 134 637 255 -2 91 -2 19 -54 callgsubr
          -50 hlineto
          -67 -166 -33 -31 -90 -2 rrcurveto
          -255 -2 128 601 234 -9 233 -9 61 -45 6 -220 rlinecurve
          52 hlineto
          -1236 352 -50 callsubr
          -40 callsubr
        </CharString>
        <CharString name="Ercyrillic">
          1237 602 hmoveto
          11 callsubr
        </CharString>
        <CharString name="Ereversedcyrillic">
          1439 440 1350 rmoveto
          -75 -314 rlineto
          51 hlineto
          251 100 153 99 183 hhcurveto
          283 135 -240 -326 hvcurveto
          -14 0 -14 -14 vvcurveto
          -683 7 -20 -93 697 7 rlineto
          -359 -41 -217 -286 -327 hhcurveto
          -240 -130 131 209 -13 hvcurveto
          -51 hlineto
          -39 -302 rlineto
          -58 70 201 -61 204 hhcurveto
          477 340 359 454 401 -234 284 -410 -153 -164 -52 -69 -97 hvcurveto
          endchar
        </CharString>
        <CharString name="Escyrillic">
          1398 479 615 -48 callsubr
          -30 callsubr
        </CharString>
        <CharString name="Etagreek">
          1535 461 181 -71 callsubr
          -78 callgsubr
          endchar
        </CharString>
        <CharString name="Etatonosgreek">
          1861 787 181 rmoveto
          111 520 690 0 -111 -520 -19 -90 -23 -19 -137 -13 rlinecurve
          -13 -59 520 0 13 59 -136 14 -17 22 20 89 rlinecurve
          229 1076 20 89 24 22 142 14 rlinecurve
          12 59 -520 0 -12 -59 132 -13 14 -19 -19 -90 rlinecurve
          -104 -487 -689 0 103 487 19 90 26 19 135 13 rlinecurve
          12 59 -520 0 -12 -59 138 -14 14 -22 -19 -89 rlinecurve
          -230 -1076 -20 -89 -21 -22 -145 -14 rlinecurve
          -12 -59 520 0 12 59 -128 13 -18 19 19 90 rlinecurve
          -396 1263 -50 callsubr
          -40 callsubr
        </CharString>
        <CharString name="Etilde">
          1197 1044 150 callsubr
          -31 hhcurveto
          -24 -83 callgsubr
          -52 callgsubr
          22 25 32 hhcurveto
          24 18 -12 -23 27 -41 callgsubr
          325 -159 -95 callsubr
        </CharString>
        <CharString name="Etildebelow">
          1197 1369 1444 rmoveto
          -998 hlineto
          -28 callsubr
          1044 0 -34 callsubr
          -663 -1510 rmoveto
          83 60 61 183 21 hvcurveto
          -60 hlineto
          -100 -16 -56 callgsubr
          -37 -37 -57 callgsubr
          25 28 36 99 callgsubr
          48 hhcurveto
          endchar
        </CharString>
        <CharString name="F">
          1099 1341 1444 173 callsubr
        </CharString>
        <CharString name="Fdotaccent">
          1099 931 19 callsubr
          410 -154 173 callsubr
        </CharString>
        <CharString name="G">
          1527 254 650 -33 callsubr
        </CharString>
        <CharString name="Gacute">
          1527 1242 -92 callsubr
          -94 callsubr
          -1179 -1181 -33 callsubr
        </CharString>
        <CharString name="Gammagreek">
          1146 1382 1444 rmoveto
          -1010 hlineto
          -12 -59 149 -16 16 -15 -20 -90 rlinecurve
          -230 -1084 -19 -90 -22 -15 -156 -16 rlinecurve
          -12 -59 572 0 12 59 -170 19 -16 15 19 86 rlinecurve
          254 1196 233 -10 258 -11 39 -48 5 -210 rlinecurve
          50 hlineto
          endchar
        </CharString>
        <CharString name="Gbreve">
          1527 1152 127 callsubr
          -898 -939 -33 callsubr
        </CharString>
        <CharString name="Gcaron">
          1527 1348 -87 callsubr
          -84 callsubr
          -66 callsubr
          -1162 -1207 -33 callsubr
        </CharString>
        <CharString name="Gcircumflex">
          1527 942 90 callsubr
          -621 -907 -33 callsubr
        </CharString>
        <CharString name="Gcommaaccent">
          1527 254 650 rmoveto
          -418 -2 287 -258 366 hhcurveto
          178 184 57 71 88 hvcurveto
          85 396 18 87 18 20 129 13 rlinecurve
          13 59 -507 0 -12 -59 rlineto
          184 callsubr
          525 -1122 -63 callsubr
          70 callsubr
        </CharString>
        <CharString name="Gdotaccent">
          1527 1139 19 callsubr
          -885 -948 -33 callsubr
        </CharString>
        <CharString name="Geacutecyrillic">
          1108 1011 -92 callsubr
          -94 callsubr
          148 -387 rmoveto
          -988 139 callsubr
          -26 callgsubr
        </CharString>
        <CharString name="Gecyrillic">
          1108 1350 1444 rmoveto
          -988 139 callsubr
          -26 callgsubr
        </CharString>
        <CharString name="Germandbls">
          1421 446 hmoveto
          291 1375 187 -6 rlineto
          247 -10 102 -87 -170 vvcurveto
          -151 -101 -107 -186 -32 vhcurveto
          -27 -124 rlineto
          180 -82 78 -116 -165 vvcurveto
          -165 -97 -102 -145 -135 -106 104 219 8 vhcurveto
          -54 hlineto
          -59 -302 rlineto
          -60 65 125 -45 151 hhcurveto
          226 212 146 263 183 -90 149 -182 93 hvcurveto
          174 14 151 111 187 vvcurveto
          203 -155 121 -290 vhcurveto
          -632 hlineto
          -14 -59 rlineto
          141 -14 16 -17 -19 -90 -230 -1084 rcurveline
          -19 -91 -22 -15 -147 -15 -12 -59 rcurveline
          endchar
        </CharString>
        <CharString name="Geupturncyrillic">
          1087 1314 1369 rmoveto
          83 385 rlineto
          -68 hlineto
          -268 -123 -30 -42 -176 hhcurveto
          -638 139 callsubr
          542 0 13 59 rlineto
          -155 17 -17 17 19 86 252 1190 rcurveline
          endchar
        </CharString>
        <CharString name="Gmacron">
          1527 894 -20 callsubr
          23 112 rlineto
          -470 hlineto
          -664 -1098 -33 callsubr
        </CharString>
        <CharString name="H">
          1535 461 181 -71 callsubr
          -78 callgsubr
          endchar
        </CharString>
        <CharString name="Hacyrillic">
          1286 317 269 7 callsubr
        </CharString>
        <CharString name="Hardsigncyrillic">
          1452 1520 -91 callgsubr
          84 397 19 90 23 17 144 14 rlinecurve
          12 59 -769 0 -85 -348 rlineto
          52 hlineto
          98 236 55 31 217 9 rrcurveto
          50 2 -254 -1195 rlineto
          -19 -88 -19 -17 -150 -15 -12 -59 rcurveline
          517 hlineto
          422 283 196 288 hvcurveto
          -223 5 rmoveto
          -235 -170 -171 -327 -10 vhcurveto
          -118 -4 154 722 125 -1 rlineto
          216 -4 120 -101 -196 vvcurveto
          endchar
        </CharString>
        <CharString name="Hbar">
          1535 461 181 rmoveto
          111 520 689 0 -111 -520 -18 -90 -19 -19 -138 -13 rlinecurve
          -12 -59 514 0 12 59 -136 14 -14 18 19 90 rlinecurve
          185 870 158 0 15 71 -158 0 30 141 19 90 23 18 141 14 rlinecurve
          13 59 -515 0 -12 -59 132 -13 11 -19 -19 -90 rlinecurve
          -30 -141 -690 0 30 141 19 90 22 19 134 13 rlinecurve
          13 59 -515 0 -12 -59 -101 callsubr
          -30 -141 -157 0 -15 -71 157 0 -185 -870 -19 -90 -20 -18 -144 -14 rlinecurve
          -13 -59 515 0 13 59 -129 13 -14 19 19 90 rlinecurve
          126 595 rmoveto
          59 275 690 0 -59 -275 rlineto
          endchar
        </CharString>
        <CharString name="Hbrevebelow">
          1535 461 181 -71 callsubr
          -78 callgsubr
          243 -631 rmoveto
          161 99 116 181 7 hvcurveto
          -56 hlineto
          -104 -19 -65 -62 -121 81 callgsubr
          -11 -27 -8 -34 -30 vvcurveto
          -120 1 94 -86 135 hhcurveto
          endchar
        </CharString>
        <CharString name="Hcaron">
          1535 1333 -87 callsubr
          -84 callsubr
          -66 callsubr
          -940 -1676 -71 callsubr
          -78 callgsubr
          endchar
        </CharString>
        <CharString name="Hcedilla">
          1535 461 181 -71 callsubr
          225 0 -132 -153 -13 -59 rlineto
          2 18 1 4 hhcurveto
          76 46 -32 -56 -50 -41 -33 -66 -56 -49 18 27 -35 hvcurveto
          -14 -58 rlineto
          -46 42 62 -31 85 hhcurveto
          74 callgsubr
          216 0 12 59 -128 13 -18 19 19 90 rlinecurve
          endchar
        </CharString>
        <CharString name="Hcircumflex">
          1535 927 -42 callsubr
          140 -151 61 -76 callgsubr
          -399 -1376 -71 callsubr
          -78 callgsubr
          endchar
        </CharString>
        <CharString name="Hdieresis">
          1535 968 4 callsubr
          93 callsubr
          311 hmoveto
          31 callgsubr
          -818 -1419 -71 callsubr
          -78 callgsubr
          endchar
        </CharString>
        <CharString name="Hdotaccent">
          1535 1124 45 callsubr
          -663 -1417 -71 callsubr
          -78 callgsubr
          endchar
        </CharString>
        <CharString name="Hdotbelow">
          1535 461 181 -71 callsubr
          -78 callgsubr
          243 -387 148 callsubr
        </CharString>
        <CharString name="I">
          -3 callsubr
          -101 callsubr
          -88 callsubr
        </CharString>
        <CharString name="IAcyrillic">
          1358 398 984 rmoveto
          -169 107 -104 163 -43 vhcurveto
          -227 -256 -151 -169 -150 -160 -96 -28 rlinecurve
          -13 -55 275 0 561 635 rlineto
          -1 19 20 -1 21 hhcurveto
          147 hlineto
          -96 -452 -20 -93 -24 -15 -137 -14 rlinecurve
          -13 -59 520 0 12 59 rlineto
          -134 14 -16 15 19 93 230 1083 rcurveline
          19 91 20 15 143 15 13 59 rcurveline
          -512 hlineto
          -451 -249 -177 -283 hvcurveto
          219 -1 rmoveto
          239 163 139 334 11 vhcurveto
          117 3 -141 -665 -141 1 rlineto
          -211 1 -121 94 177 vvcurveto
          endchar
        </CharString>
        <CharString name="IJ">
          1275 1112 249 60 callsubr
          -651 -68 -89 callsubr
          -101 callsubr
          -88 callsubr
        </CharString>
        <CharString name="IJacute">
          1275 37 callgsubr
          440 hmoveto
          -221 -274 -94 callsubr
          -488 -1582 60 callsubr
          -651 -68 -89 callsubr
          -101 callsubr
          -88 callsubr
        </CharString>
        <CharString name="IUcyrillic">
          2123 55 hmoveto
          520 hlineto
          12 59 rlineto
          -129 13 -20 18 20 91 110 520 rcurveline
          265 hlineto
          -2 -26 -1 -25 -26 vvcurveto
          -375 229 -275 366 428 330 389 457 375 -228 277 -367 -2 vhcurveto
          -379 -2 -303 -305 -63 -388 rrcurveto
          -259 hlineto
          103 488 20 92 23 16 -60 callgsubr
          27 callgsubr
          1364 -3 rmoveto
          -257 -117 218 290 386 183 438 340 258 116 -217 -291 -386 -184 -438 -339 hvcurveto
          endchar
        </CharString>
        <CharString name="Iacute">
          637 37 callgsubr
          -508 -1650 -89 callsubr
          -101 callsubr
          -88 callsubr
        </CharString>
        <CharString name="Ibreve">
          637 688 151 callsubr
          -59 -115 68 callgsubr
          -33 -42 callgsubr
          -227 -1408 -89 callsubr
          -101 callsubr
          -88 callsubr
        </CharString>
        <CharString name="Icaron">
          637 884 -87 callsubr
          -152 -139 152 97 callgsubr
          -490 -1676 -89 callsubr
          -101 callsubr
          -88 callsubr
        </CharString>
        <CharString name="Icircumflex">
          637 477 1557 rmoveto
          211 152 140 -152 62 0 -125 275 -113 0 -242 -275 rlineto
          51 -1376 -89 callsubr
          -101 callsubr
          -88 callsubr
        </CharString>
        <CharString name="Icyrillic">
          -3 callsubr
          -101 callsubr
          -88 callsubr
        </CharString>
        <CharString name="Idblgrave">
          637 464 1832 rmoveto
          -151 -5 -38 callgsubr
          275 rmoveto
          -144 -5 hlineto
          151 -270 rlineto
          53 hlineto
          -343 -1376 -89 callsubr
          -101 callsubr
          -88 callsubr
        </CharString>
        <CharString name="Idieresis">
          637 518 -48 callgsubr
          -42 -56 hvcurveto
          -50 -1 39 -39 155 callsubr
          -42 -56 -50 38 -39 52 vhcurveto
          -369 -1419 -89 callsubr
          -101 callsubr
          -88 callsubr
        </CharString>
        <CharString name="Idieresisacute">
          637 969 1835 rmoveto
          26 117 -558 -138 -11 -54 rlineto
          61 -204 rmoveto
          46 42 31 42 9 hvcurveto
          40 10 -30 32 -45 hhcurveto
          -8 hlineto
          -47 -42 -32 -40 -9 hvcurveto
          -42 -9 29 -31 47 hhcurveto
          308 hmoveto
          47 42 31 42 9 hvcurveto
          40 9 -29 32 -46 hhcurveto
          -8 hlineto
          -46 -42 -32 -40 -10 hvcurveto
          -42 -8 28 -31 47 hhcurveto
          -320 -1375 -89 callsubr
          -101 callsubr
          -88 callsubr
        </CharString>
        <CharString name="Idotaccent">
          637 674 1598 rmoveto
          55 46 44 57 51 -40 40 -55 -55 -45 -43 -58 -51 40 -40 54 hvcurveto
          -213 -1417 -89 callsubr
          -101 callsubr
          -88 callsubr
        </CharString>
        <CharString name="Idotbelow">
          -3 callsubr
          -101 callsubr
          18 callsubr
          -205 -387 -97 callsubr
          -73 callsubr
        </CharString>
        <CharString name="Iecyrillic">
          1197 1369 1444 -95 callsubr
        </CharString>
        <CharString name="Igrave">
          637 601 -56 callsubr
          -251 -1376 -89 callsubr
          -101 callsubr
          -88 callsubr
        </CharString>
        <CharString name="Ihookabove">
          637 701 1877 rmoveto
          -70 -65 -33 -43 -33 hvcurveto
          -11 -46 rlineto
          21 29 38 13 44 hhcurveto
          65 32 1 callsubr
          120 47 83 60 78 vvcurveto
          69 -58 54 -99 vhcurveto
          -240 -1696 -89 callsubr
          -101 callsubr
          -88 callsubr
        </CharString>
        <CharString name="Iicyrillic">
          1542 55 hmoveto
          170 callsubr
        </CharString>
        <CharString name="Iinvertedbreve">
          637 681 1873 rmoveto
          -158 -96 -110 -174 -7 hvcurveto
          59 hlineto
          101 18 64 59 116 hhcurveto
          94 64 -54 -72 -13 -1 -12 -2 -9 hvcurveto
          59 hlineto
          10 26 8 33 30 vvcurveto
          114 -2 -94 81 -132 hhcurveto
          -220 -1692 -89 callsubr
          -101 callsubr
          -88 callsubr
        </CharString>
        <CharString name="Iishortcyrillic">
          1542 1106 1599 rmoveto
          156 128 89 173 57 hvcurveto
          -64 21 rlineto
          -136 -47 -102 -78 -123 hhcurveto
          -42 -36 12 19 -26 hvcurveto
          44 5 35 40 48 vvcurveto
          57 -41 45 -54 -60 -42 -47 -63 -100 87 -85 130 vhcurveto
          -1051 -1599 rmoveto
          170 callsubr
        </CharString>
        <CharString name="Imacron">
          637 429 1637 rmoveto
          471 hlineto
          24 112 rlineto
          -470 hlineto
          7 -1568 -89 callsubr
          -101 callsubr
          -88 callsubr
        </CharString>
        <CharString name="Iocyrillic">
          1197 792 1600 rmoveto
          81 callsubr
          311 hmoveto
          -45 callgsubr
          266 -156 -95 callsubr
        </CharString>
        <CharString name="Iogonek">
          -3 callsubr
          rlineto
          139 -14 11 -18 -19 -90 -230 -1082 rcurveline
          -19 -90 -20 -18 -144 -14 -13 -59 rcurveline
          245 -49 callgsubr
          75 -68 105 73 56 33 41 29 vhcurveto
          13 59 rlineto
          -19 -23 -30 -13 -33 hhcurveto
          -60 -38 56 84 77 33 84 78 78 hvcurveto
          222 hlineto
          12 59 -139 14 -11 18 19 90 rlinecurve
          endchar
        </CharString>
        <CharString name="Iotadieresisgreek">
          637 518 -48 callgsubr
          -42 -56 hvcurveto
          -50 -1 39 -39 155 callsubr
          -42 -56 -50 38 -39 52 vhcurveto
          -369 -1419 -89 callsubr
          -101 callsubr
          -88 callsubr
        </CharString>
        <CharString name="Iotagreek">
          -3 callsubr
          -101 callsubr
          -88 callsubr
        </CharString>
        <CharString name="Iotatonosgreek">
          965 788 181 -89 callsubr
          -101 callsubr
          18 callsubr
          -397 1263 -50 callsubr
          -40 callsubr
        </CharString>
        <CharString name="Itilde">
          637 770 1604 rmoveto
          76 54 55 167 19 hvcurveto
          -57 hlineto
          -89 -13 -23 -25 -32 hhcurveto
          -24 -18 12 24 -26 hvcurveto
          -27 22 rlineto
          29 -33 -33 16 -42 hhcurveto
          -75 -55 -55 -167 -18 hvcurveto
          56 hlineto
          90 14 22 24 32 hhcurveto
          24 18 -12 -23 27 hvcurveto
          26 -23 rlineto
          -28 33 33 -17 42 hhcurveto
          -309 -1423 -89 callsubr
          -101 callsubr
          -88 callsubr
        </CharString>
        <CharString name="Itildebelow">
          -3 callsubr
          -101 callsubr
          18 callsubr
          -105 -599 88 callsubr
          -26 -22 -97 callgsubr
          -25 callgsubr
        </CharString>
        <CharString name="J">
          638 475 249 59 callsubr
        </CharString>
        <CharString name="Jacute">
          638 772 -92 callsubr
          -94 callsubr
          -488 -1582 59 callsubr
        </CharString>
        <CharString name="Jcircumflex">
          638 471 -42 callsubr
          84 callsubr
          71 -1308 59 callsubr
        </CharString>
        <CharString name="Jecyrillic">
          638 475 249 59 callsubr
        </CharString>
        <CharString name="K">
          1307 462 181 -19 callsubr
        </CharString>
        <CharString name="Kaacutecyrillic">
          1307 1193 -92 callsubr
          -94 callsubr
          -922 -1650 -19 callsubr
        </CharString>
        <CharString name="Kacute">
          1307 1193 -92 callsubr
          -94 callsubr
          -922 -1650 -19 callsubr
        </CharString>
        <CharString name="Kacyrillic">
          1307 462 181 -19 callsubr
        </CharString>
        <CharString name="Kappagreek">
          1307 462 181 -19 callsubr
        </CharString>
        <CharString name="Kcaron">
          1307 1299 -87 callsubr
          -84 callsubr
          -66 callsubr
          -905 -1676 -19 callsubr
        </CharString>
        <CharString name="Kcommaaccent">
          117 callsubr
          223 -653 132 callsubr
        </CharString>
        <CharString name="Kdotbelow">
          117 callsubr
          248 -387 -97 callsubr
          54 56 45 45 56 53 -40 39 -54 hvcurveto
          endchar
        </CharString>
        <CharString name="Klinebelow">
          117 callsubr
          -8 -538 -67 callgsubr
        </CharString>
        <CharString name="L">
          -9 callsubr
          endchar
        </CharString>
        <CharString name="Lacute">
          1118 779 -92 callsubr
          -94 callsubr
          79 -1831 rmoveto
          -26 callsubr
          -16 callsubr
          endchar
        </CharString>
        <CharString name="Lambdagreek">
          1372 1221 223 rmoveto
          -168 1223 -125 0 -669 -1199 -84 -150 -30 -23 -129 -15 rlinecurve
          -13 -59 435 0 13 59 -163 20 -10 24 108 199 rlinecurve
          494 914 122 -993 15 -120 -18 -28 -155 -16 rlinecurve
          -12 -59 537 0 12 59 -121 13 -22 26 -17 125 rlinecurve
          endchar
        </CharString>
        <CharString name="Lcaron">
          1118 1073 1095 97 callsubr
          33 -1095 rmoveto
          -26 callsubr
          -16 callsubr
          endchar
        </CharString>
        <CharString name="Lcircumflexbelow">
          -9 callsubr
          241 -463 152 callsubr
        </CharString>
        <CharString name="Lcommaaccent">
          -9 callsubr
          428 -472 -63 callsubr
          70 callsubr
        </CharString>
        <CharString name="Ldot">
          -9 callsubr
          973 715 rmoveto
          66 52 52 67 62 -44 callsubr
          endchar
        </CharString>
        <CharString name="Ldotbelow">
          -9 callsubr
          453 -206 -97 callsubr
          -73 callsubr
        </CharString>
        <CharString name="Ldotbelowmacron">
          1118 431 -20 callsubr
          23 112 rlineto
          -470 hlineto
          594 -1748 rmoveto
          -26 callsubr
          -16 callsubr
          453 -206 -97 callsubr
          -73 callsubr
        </CharString>
        <CharString name="Ljecyrillic">
          1975 55 110 rmoveto
          -79 55 -58 87 197 111 203 477 130 vhcurveto
          77 282 48 190 55 244 rrcurveto
          458 hlineto
          -252 -1190 rlineto
          -19 -88 -22 -17 -161 -15 -13 -59 rcurveline
          532 hlineto
          422 283 196 288 214 -159 168 -373 hvcurveto
          -137 hlineto
          85 398 19 90 23 17 144 14 rlinecurve
          12 59 -1102 202 callsubr
          vhcurveto
          1765 379 rmoveto
          -235 -169 -171 -328 -10 vhcurveto
          -118 -4 153 721 rlineto
          126 hlineto
          216 -2 120 -103 -196 vvcurveto
          endchar
        </CharString>
        <CharString name="Llinebelow">
          -9 callsubr
          197 -357 -76 callsubr
        </CharString>
        <CharString name="Lslash">
          1118 190 626 rmoveto
          170 50 -106 -495 -18 -89 -20 -18 -145 -15 rlinecurve
          -12 -59 990 0 -26 callsubr
          144 674 383 114 18 78 -385 -115 94 444 19 89 21 18 153 14 rlinecurve
          13 59 -532 0 -13 -59 139 -13 11 -19 -18 -91 rlinecurve
          -109 -508 -168 -50 rlineto
          endchar
        </CharString>
        <CharString name="M">
          1754 744 1444 9 callsubr
        </CharString>
        <CharString name="Macute">
          1754 1342 -92 callsubr
          -94 callsubr
          -789 -387 9 callsubr
        </CharString>
        <CharString name="Mdotaccent">
          1754 1238 -75 callsubr
          3 callsubr
          -494 -154 9 callsubr
        </CharString>
        <CharString name="Mdotbelow">
          1754 744 1444 rmoveto
          -366 hlineto
          -12 -59 127 -14 14 -32 -25 -107 rlinecurve
          -237 -1004 -30 -122 -26 -27 -137 -20 rlinecurve
          -13 -59 413 0 12 59 -137 20 -10 27 26 122 rlinecurve
          220 1030 211 -1258 91 0 138 243 586 1013 -205 -1077 -16 -88 -21 -17 -145 -15 rlinecurve
          -12 -59 518 0 13 59 -134 15 -16 16 17 89 rlinecurve
          208 1085 16 87 23 19 142 15 rlinecurve
          12 59 -392 0 -662 -1182 rlineto
          -176 -468 -97 callsubr
          54 56 45 45 56 53 -40 39 -54 hvcurveto
          endchar
        </CharString>
        <CharString name="Mugreek">
          1754 744 1444 9 callsubr
        </CharString>
        <CharString name="N">
          1471 681 1444 119 callsubr
          endchar
        </CharString>
        <CharString name="Nacute">
          1471 1161 -92 callsubr
          -94 callsubr
          -671 -387 119 callsubr
          endchar
        </CharString>
        <CharString name="Ncaron">
          1471 1267 -87 callsubr
          -64 callgsubr
          -653 -413 119 callsubr
          endchar
        </CharString>
        <CharString name="Ncircumflexbelow">
          1471 38 callsubr
          -782 -711 -25 callsubr
        </CharString>
        <CharString name="Ncommaaccent">
          1471 38 callsubr
          -595 -720 rmoveto
          135 96 64 111 103 -74 64 156 callsubr
          6 callgsubr
        </CharString>
        <CharString name="Ndotaccent">
          1471 1057 -75 callsubr
          3 callsubr
          -376 -154 119 callsubr
          endchar
        </CharString>
        <CharString name="Ndotbelow">
          1471 38 callsubr
          -570 -454 -97 callsubr
          -65 callsubr
        </CharString>
        <CharString name="Ngrave">
          1471 984 -56 callsubr
          -414 -113 119 callsubr
          endchar
        </CharString>
        <CharString name="Njecyrillic">
          2050 482 181 rmoveto
          120 561 616 0 -120 -562 rlineto
          -19 -90 -20 -16 -143 -15 -12 -59 rcurveline
          510 hlineto
          422 282 188 276 200 -159 156 -374 hvcurveto
          -144 hlineto
          94 444 19 90 24 17 143 14 rlinecurve
          13 59 -524 0 -12 -59 133 -14 16 -17 -19 -91 rlinecurve
          -94 -443 -616 0 94 443 20 92 23 16 139 14 rlinecurve
          12 59 -519 0 -12 -59 133 -14 16 -16 -19 -92 rlinecurve
          -230 -1082 -19 -92 -21 -15 -142 -15 rlinecurve
          -12 -59 519 0 13 59 -130 14 -20 16 19 92 rlinecurve
          1414 287 rmoveto
          -223 -170 -162 -327 -10 vhcurveto
          -118 -4 144 675 134 -1 rlineto
          218 -2 119 -93 -180 vvcurveto
          endchar
        </CharString>
        <CharString name="Nlinebelow">
          1471 38 callsubr
          -827 -605 -68 callgsubr
        </CharString>
        <CharString name="Ntilde">
          1471 1153 89 callsubr
          -13 -23 25 callsubr
          -42 hhcurveto
          54 callgsubr
          -71 callgsubr
          -472 -159 119 callsubr
          endchar
        </CharString>
        <CharString name="Nugreek">
          1471 681 1444 119 callsubr
          endchar
        </CharString>
        <CharString name="O">
          1563 873 -22 -100 callsubr
        </CharString>
        <CharString name="OE">
          1983 259 651 rmoveto
          -369 242 -308 417 vhcurveto
          137 79 26 140 hhcurveto
          619 hlineto
          101 393 rlineto
          -50 hlineto
          -102 -252 -96 -51 -276 -11 rrcurveto
          -258 -10 135 632 279 -2 92 -1 19 -38 -7 -163 rlinecurve
          49 hlineto
          102 478 rlineto
          -50 hlineto
          -65 -164 -33 -30 -90 -2 rrcurveto
          -279 -1 126 597 243 -10 251 -11 39 -47 9 -215 rlinecurve
          50 hlineto
          61 352 rlineto
          -688 hlineto
          -139 -74 26 -157 hhcurveto
          -496 -330 -360 -459 hvcurveto
          226 -35 rmoveto
          383 214 389 403 77 61 -10 -17 41 vhcurveto
          -275 -1296 rlineto
          -7 -25 -25 -2 -27 hhcurveto
          -297 -147 250 310 hvcurveto
          endchar
        </CharString>
        <CharString name="Oacute">
          1563 1183 23 callsubr
          -502 -1853 -100 callsubr
        </CharString>
        <CharString name="Obreve">
          1563 1093 1589 rmoveto
          158 97 110 174 6 hvcurveto
          -59 hlineto
          -100 -19 -63 -60 -116 hhcurveto
          -94 -64 -46 callgsubr
          94 callgsubr
          -220 -1611 -100 callsubr
        </CharString>
        <CharString name="Ocaron">
          1563 1289 -87 callsubr
          -84 callsubr
          -66 callsubr
          -484 -1879 -100 callsubr
        </CharString>
        <CharString name="Ocircumflex">
          1563 883 -42 callsubr
          139 -99 callgsubr
          57 -1579 -100 callsubr
        </CharString>
        <CharString name="Ocircumflexacute">
          1563 1371 1814 -1 callsubr
          -52 -245 rmoveto
          284 94 244 -94 12 55 -211 151 -43 0 -274 -151 rlineto
          85 -1570 -100 callsubr
        </CharString>
        <CharString name="Ocircumflexdotbelow">
          1563 883 -42 callsubr
          139 -99 callgsubr
          57 -1579 121 callsubr
          -66 -270 -97 callsubr
          -65 callsubr
        </CharString>
        <CharString name="Ocircumflexgrave">
          1563 844 1814 106 callsubr
          -92 -437 rmoveto
          284 94 244 -94 12 55 -211 151 -43 0 -274 -151 rlineto
          85 -1570 -100 callsubr
        </CharString>
        <CharString name="Ocircumflexhookabove">
          1563 1347 1907 rmoveto
          -70 -60 -27 -24 -36 hvcurveto
          -10 -47 rlineto
          13 25 45 12 44 hhcurveto
          57 31 -21 -34 -8 hvcurveto
          -7 -34 -36 -21 -70 -17 rrcurveto
          44 -35 110 26 73 33 14 70 rlinecurve
          69 15 -76 37 -85 hhcurveto
          -571 -414 rmoveto
          284 94 244 -94 12 55 -211 151 -43 0 -274 -151 rlineto
          85 -1570 -100 callsubr
        </CharString>
        <CharString name="Ocircumflextilde">
          1563 1212 1762 rmoveto
          83 77 49 106 22 hvcurveto
          -64 hlineto
          -45 -10 -86 callgsubr
          -37 9 -45 hhcurveto
          -82 -78 -48 -107 -23 hvcurveto
          65 hlineto
          45 10 31 18 41 hhcurveto
          26 25 -7 -13 37 hvcurveto
          26 -9 rlineto
          -14 64 callgsubr
          12 55 -211 151 -43 0 -274 -151 rlineto
          85 -1570 -100 callsubr
        </CharString>
        <CharString name="Ocyrillic">
          1563 873 -22 -100 callsubr
        </CharString>
        <CharString name="Odblgrave">
          1563 870 26 callgsubr
          -145 -6 hlineto
          151 -270 rlineto
          54 hlineto
          -337 -1578 -100 callsubr
        </CharString>
        <CharString name="Odieresis">
          1563 924 4 callsubr
          -70 callgsubr
          311 hmoveto
          52 44 43 55 50 95 callgsubr
          -362 -1622 -100 callsubr
        </CharString>
        <CharString name="Odieresismacron">
          47 callgsubr
          32 -342 -100 callgsubr
          -8 hlineto
          -46 -42 -33 -40 -9 hvcurveto
          -41 -9 28 -31 47 29 callsubr
          -43 -33 -40 -9 hvcurveto
          -41 -9 29 -31 47 hhcurveto
          -315 -1578 -100 callsubr
        </CharString>
        <CharString name="Odotaccent">
          1563 1080 45 callsubr
          -207 -1620 -100 callsubr
        </CharString>
        <CharString name="Odotaccentmacron">
          1563 839 1790 rmoveto
          528 hlineto
          18 86 rlineto
          -528 hlineto
          214 -325 56 callgsubr
          -198 -1573 -100 callsubr
        </CharString>
        <CharString name="Odotbelow">
          1563 873 -22 121 callsubr
          -66 -270 -97 callsubr
          -65 callsubr
        </CharString>
        <CharString name="Ograve">
          1563 1006 1831 rmoveto
          -169 -7 hlineto
          227 -267 rlineto
          54 hlineto
          -245 -1579 -100 callsubr
        </CharString>
        <CharString name="Ohookabove">
          1563 1107 1877 34 callsubr
          1 callsubr
          100 callsubr
          -234 -1899 -100 callsubr
        </CharString>
        <CharString name="Ohorn">
          1571 247 634 10 callsubr
        </CharString>
        <CharString name="Ohornacute">
          1571 1184 -92 callsubr
          -94 callsubr
          -1128 -1197 10 callsubr
        </CharString>
        <CharString name="Ohorndotbelow">
          1571 247 634 rmoveto
          -373 1 240 -283 385 hhcurveto
          452 298 402 430 258 -117 212 -196 108 hvcurveto
          -5 33 37 -4 40 hhcurveto
          172 152 69 151 76 -38 69 -49 39 hvcurveto
          -54 hlineto
          7 -16 3 -26 -26 vvcurveto
          -144 -97 -129 -184 vhcurveto
          -112 -77 24 -146 hhcurveto
          -452 -300 -402 -430 2 hvcurveto
          226 -55 rmoveto
          -98 callgsubr
          -90 callgsubr
          -230 -155 178 337 vhcurveto
          323 -785 148 callsubr
        </CharString>
        <CharString name="Ohorngrave">
          1571 1007 -56 callsubr
          -871 -923 10 callsubr
        </CharString>
        <CharString name="Ohornhookabove">
          1571 1107 1877 rmoveto
          -70 -65 -55 callgsubr
          22 callgsubr
          -860 -1243 10 callsubr
        </CharString>
        <CharString name="Ohorntilde">
          1571 1176 89 callsubr
          -13 -23 25 callsubr
          -42 hhcurveto
          54 callgsubr
          -71 callgsubr
          -929 -969 10 callsubr
        </CharString>
        <CharString name="Ohungarumlaut">
          1563 1032 -27 callgsubr
          -614 -1854 -100 callsubr
        </CharString>
        <CharString name="Oinvertedbreve">
          1563 1087 1873 rmoveto
          -159 61 callgsubr
          64 -54 -72 -12 -1 -13 -2 -8 hvcurveto
          63 callgsubr
          -214 -1895 -100 callsubr
        </CharString>
        <CharString name="Omacron">
          1563 835 -20 callsubr
          24 112 rlineto
          -471 hlineto
          14 -1770 -100 callsubr
        </CharString>
        <CharString name="Omacronacute">
          1563 1376 1836 -1 callsubr
          -37 -175 112 callsubr
          59 -1695 -100 callsubr
        </CharString>
        <CharString name="Omacrongrave">
          1563 849 1836 106 callsubr
          -77 -367 112 callsubr
          59 -1695 -100 callsubr
        </CharString>
        <CharString name="Omegagreek">
          1668 153 hmoveto
          571 hlineto
          55 72 callgsubr
          1 210 265 342 hhcurveto
          276 169 -183 -295 -1 hvcurveto
          -30 callgsubr
          444 83 227 300 1 304 rlinecurve
          332 -274 247 -386 -486 -317 -315 -377 -1 vhcurveto
          -1 -275 183 -209 260 -71 -19 -94 rcurveline
          -346 -53 21 163 -51 hvcurveto
          -48 hlineto
          endchar
        </CharString>
        <CharString name="Omegatonosgreek">
          1846 332 hmoveto
          570 hlineto
          56 72 callgsubr
          211 265 342 275 170 -183 -295 -1 vhcurveto
          -30 callgsubr
          rlineto
          444 83 227 300 304 vvcurveto
          332 1 -274 247 -386 hhcurveto
          -487 -317 -315 -377 hvcurveto
          -1 -275 183 -209 259 -71 -19 -94 rcurveline
          -345 -53 21 163 -51 hvcurveto
          -48 hlineto
          30 1132 -50 callsubr
          -40 callsubr
        </CharString>
        <CharString name="Omicrongreek">
          1563 873 -22 -100 callsubr
        </CharString>
        <CharString name="Omicrontonosgreek">
          1720 1030 -22 rmoveto
          453 297 402 429 154 callsubr
          hvcurveto
          -374 2 239 -283 385 hhcurveto
          -639 1466 -50 callsubr
          283 363 rlineto
          10 vlineto
          420 -1380 -32 callgsubr
        </CharString>
        <CharString name="Oogonek">
          1563 795 -480 168 callsubr
        </CharString>
        <CharString name="Oogonekmacron">
          1563 835 -20 callsubr
          24 112 rlineto
          -471 hlineto
          -64 -2228 168 callsubr
        </CharString>
        <CharString name="Oslash">
          1563 873 -22 rmoveto
          453 297 157 callsubr
        </CharString>
        <CharString name="Oslashacute">
          1563 1183 23 callsubr
          -502 -1853 rmoveto
          453 297 157 callsubr
        </CharString>
        <CharString name="Otilde">
          1563 1176 193 callsubr
          -303 -1625 -100 callsubr
        </CharString>
        <CharString name="Otildeacute">
          1563 1376 1835 -1 callsubr
          89 callgsubr
          191 callsubr
        </CharString>
        <CharString name="Otildedieresis">
          1563 941 1783 rmoveto
          47 42 31 41 9 hvcurveto
          41 10 -30 32 -46 hhcurveto
          -7 hlineto
          -47 -42 -32 -41 -9 hvcurveto
          -41 -9 29 -31 47 hhcurveto
          308 hmoveto
          47 41 31 41 10 hvcurveto
          41 9 -29 32 -46 hhcurveto
          -8 hlineto
          -47 -41 -32 -41 -10 hvcurveto
          -41 -8 28 -31 47 hhcurveto
          -68 -226 82 callgsubr
        </CharString>
        <CharString name="Otildemacron">
          47 callgsubr
          306 -341 82 callgsubr
        </CharString>
        <CharString name="P">
          1237 602 hmoveto
          11 callsubr
        </CharString>
        <CharString name="Pacute">
          1237 1022 -92 callsubr
          -94 callsubr
          -611 -1831 rmoveto
          11 callsubr
        </CharString>
        <CharString name="Pdotaccent">
          1237 918 -75 callsubr
          3 callsubr
          -316 -1598 rmoveto
          11 callsubr
        </CharString>
        <CharString name="Pecyrillic">
          1522 1348 181 rmoveto
          230 1082 20 93 24 15 139 14 rlinecurve
          12 59 -1411 0 -13 -59 136 -15 17 -16 -20 -91 rlinecurve
          -230 -1082 -19 -92 -21 -15 -144 -15 rlinecurve
          -13 -59 520 0 12 59 -127 13 -20 18 20 91 rlinecurve
          254 1188 681 0 -254 -1188 -19 -93 -20 -14 -142 -15 rlinecurve
          -13 -59 520 0 12 59 -130 13 -20 17 19 92 rlinecurve
          endchar
        </CharString>
        <CharString name="Phigreek">
          1781 243 710 rmoveto
          -33 -306 219 -172 401 -23 rrcurveto
          -6 -31 -18 -88 -21 -20 -132 -12 rlinecurve
          -13 -59 502 0 12 59 rlineto
          -130 13 -11 19 18 88 6 29 rcurveline
          437 8 332 185 36 337 33 305 -221 172 -400 22 rrcurveto
          7 30 18 88 20 20 133 11 rlinecurve
          11 59 -501 0 -12 -59 130 -12 11 -19 -18 -88 rlinecurve
          -6 -27 -435 -8 -333 -182 -36 -339 rlinecurve
          232 -4 rmoveto
          26 259 158 188 372 10 rrcurveto
          -184 -877 -295 23 -105 148 28 249 rlinecurve
          1135 34 rmoveto
          -27 -259 -157 -189 -373 -9 rrcurveto
          185 877 295 -23 104 -148 -27 -249 rlinecurve
          endchar
        </CharString>
        <CharString name="Pigreek">
          1584 1385 181 rmoveto
          230 1082 20 92 26 15 151 15 rlinecurve
          13 59 -1453 0 -12 -59 148 -16 16 -14 -19 -92 rlinecurve
          -230 -1083 -19 -91 -23 -14 -155 -17 rlinecurve
          -12 -59 549 0 12 59 -144 16 -20 15 19 91 rlinecurve
          252 1187 695 0 -251 -1186 -19 -92 -23 -14 -154 -16 rlinecurve
          -12 -59 548 0 13 59 -145 15 -20 15 19 92 rlinecurve
          endchar
        </CharString>
        <CharString name="Psigreek">
          1704 562 hmoveto
          563 hlineto
          12 59 rlineto
          -156 15 -15 19 19 86 72 339 rcurveline
          322 12 184 115 129 355 77 214 rcurveline
          46 127 33 27 94 8 13 59 rcurveline
          4 -26 -45 3 -52 hhcurveto
          -136 -67 -33 -168 -60 hvcurveto
          -83 -231 -101 -282 -104 -115 -208 -19 rlinecurve
          142 670 19 89 20 20 125 12 rlinecurve
          12 59 -485 0 -12 -59 rlineto
          121 -12 10 -20 -19 -89 -142 -670 rcurveline
          -201 19 -52 115 20 282 16 216 rcurveline
          169 11 -55 47 -143 hhcurveto
          -45 -50 -3 -4 -26 hvcurveto
          -13 -59 92 -8 28 -27 -9 -127 rlinecurve
          -15 -214 -25 -354 131 -116 320 -12 rlinecurve
          -72 -339 -19 -86 -21 -20 -162 -14 rlinecurve
          endchar
        </CharString>
        <CharString name="Q">
          1567 1255 -366 rmoveto
          80 74 20 31 58 hvcurveto
          11 53 rlineto
          -124 -80 30 120 -145 hvcurveto
          -121 102 rlineto
          376 71 239 363 385 vvcurveto
          154 callsubr
          vhcurveto
          2 -328 183 -258 305 -58 183 -172 rcurveline
          -144 155 84 -41 96 hhcurveto
          -397 430 -32 callgsubr
        </CharString>
        <CharString name="R">
          1309 1043 hmoveto
          8 callsubr
          endchar
        </CharString>
        <CharString name="Racute">
          1309 1062 -92 callsubr
          -94 callsubr
          -210 -1831 rmoveto
          8 callsubr
          endchar
        </CharString>
        <CharString name="Rcaron">
          1309 1168 -87 callsubr
          -64 callgsubr
          -192 -1857 rmoveto
          8 callsubr
          endchar
        </CharString>
        <CharString name="Rcommaaccent">
          1309 1043 hmoveto
          8 callsubr
          -510 -1549 -63 callsubr
          70 callsubr
        </CharString>
        <CharString name="Rdblgrave">
          1309 748 1832 rmoveto
          -151 -6 -38 callgsubr
          90 callgsubr
          -45 -1556 rmoveto
          8 callsubr
          endchar
        </CharString>
        <CharString name="Rdotaccent">
          1309 958 -75 callsubr
          3 callsubr
          85 -1598 rmoveto
          8 callsubr
          endchar
        </CharString>
        <CharString name="Rdotbelow">
          1309 1043 hmoveto
          8 callsubr
          -485 -1283 -97 callsubr
          -73 callsubr
        </CharString>
        <CharString name="Rdotbelowmacron">
          1309 713 -20 callsubr
          24 112 rlineto
          -470 hlineto
          305 -1748 rmoveto
          8 callsubr
          -485 -1283 -97 callsubr
          -73 callsubr
        </CharString>
        <CharString name="Rhogreek">
          1237 602 hmoveto
          11 callsubr
        </CharString>
        <CharString name="Rinvertedbreve">
          1309 965 10 callgsubr
          78 -1873 rmoveto
          8 callsubr
          endchar
        </CharString>
        <CharString name="Rlinebelow">
          1309 1043 hmoveto
          8 callsubr
          -741 -1434 -76 callsubr
        </CharString>
        <CharString name="S">
          1105 584 -26 53 callsubr
          endchar
        </CharString>
        <CharString name="Sacute">
          1105 986 23 callsubr
          -594 -1857 53 callsubr
          endchar
        </CharString>
        <CharString name="Sacutedotaccent">
          1105 916 1752 56 callgsubr
          215 -135 rmoveto
          26 116 -557 -137 -12 -55 rlineto
          -4 -1567 53 callsubr
          endchar
        </CharString>
        <CharString name="Scaron">
          1105 1092 -87 callsubr
          -84 callsubr
          -66 callsubr
          -576 -1883 53 callsubr
          endchar
        </CharString>
        <CharString name="Scarondotaccent">
          1105 920 1772 rmoveto
          50 37 33 44 44 -41 34 -50 -50 -37 -34 -44 -44 42 -33 49 hvcurveto
          248 -24 rmoveto
          -291 60 callgsubr
          -573 -1719 53 callsubr
          endchar
        </CharString>
        <CharString name="Scedilla">
          1105 472 -472 -75 callgsubr
          77 89 rlineto
          258 7 232 157 265 vvcurveto
          159 -77 119 -180 121 vhcurveto
          -93 63 rlineto
          -147 97 -52 83 104 vvcurveto
          145 114 91 164 188 112 -116 -219 10 vhcurveto
          52 hlineto
          45 311 rlineto
          61 -75 -157 48 -171 hhcurveto
          -287 -193 -154 -241 -156 90 -118 173 -115 hvcurveto
          92 -64 rlineto
          145 -96 49 -86 -114 vvcurveto
          -170 -143 -97 -164 -198 -138 112 229 -9 vhcurveto
          -51 hlineto
          -52 -308 71 -57 164 -48 150 -11 rlinecurve
          -114 -129 -53 callsubr
          -95 callgsubr
          endchar
        </CharString>
        <CharString name="Schwa">
          1463 751 -26 rmoveto
          436 299 378 441 401 -207 276 -410 -174 -168 -45 -71 -93 hvcurveto
          -74 -312 rlineto
          52 hlineto
          246 101 159 97 195 hhcurveto
          274 117 -233 -322 -49 -3 -48 -4 -47 hvcurveto
          -1006 hlineto
          -19 -64 -12 -70 -68 vvcurveto
          -273 156 -237 381 vhcurveto
          -340 465 rmoveto
          59 6 60 13 51 vhcurveto
          811 hlineto
          -322 -53 -170 -232 -267 hhcurveto
          -232 -108 160 224 hvcurveto
          endchar
        </CharString>
        <CharString name="Scircumflex">
          1105 686 -42 callsubr
          139 -99 callgsubr
          -35 -1583 53 callsubr
          endchar
        </CharString>
        <CharString name="Scommaaccent">
          1105 584 -26 53 callsubr
          -106 -446 rmoveto
          135 96 64 111 103 -74 64 156 callsubr
          6 callgsubr
        </CharString>
        <CharString name="Sdotaccent">
          1105 883 45 callsubr
          -299 -1624 53 callsubr
          endchar
        </CharString>
        <CharString name="Sdotbelow">
          1105 584 -26 53 callsubr
          -81 -180 -97 callsubr
          -65 callsubr
        </CharString>
        <CharString name="Sdotbelowdotaccent">
          1105 883 45 callsubr
          -299 -1624 53 callsubr
          -81 -180 -97 callsubr
          -65 callsubr
        </CharString>
        <CharString name="Shacyrillic">
          2218 480 1263 rmoveto
          -230 -1082 -19 -93 -24 -15 -139 -14 rlinecurve
          -13 -59 2095 0 13 59 -134 14 -16 17 19 91 rlinecurve
          230 1082 185 callsubr
          253 1188 20 93 78 callsubr
        </CharString>
        <CharString name="Shchacyrillic">
          2233 144 callsubr
          1816 hlineto
          176 12 -41 -267 19 hvcurveto
          68 hlineto
          68 383 -205 0 253 1188 185 callsubr
          254 1188 19 93 78 callsubr
        </CharString>
        <CharString name="Sigmagreek">
          85 callgsubr
          -55 356 -682 -616 -652 -11 -55 1075 0 104 413 rlineto
          -55 hlineto
          -230 -97 -81 -28 -291 hhcurveto
          -446 hlineto
          593 619 6 27 -299 575 412 -11 251 -7 53 -52 5 -210 rlinecurve
          54 hlineto
          endchar
        </CharString>
        <CharString name="Softsigncyrillic">
          1203 1271 -91 callgsubr
          196 callsubr
          -222 5 -24 callgsubr
        </CharString>
        <CharString name="T">
          -32 callsubr
          endchar
        </CharString>
        <CharString name="Taugreek">
          -32 callsubr
          endchar
        </CharString>
        <CharString name="Tbar">
          1285 433 704 rmoveto
          255 hlineto
          -111 -525 -18 -86 -23 -19 -164 -15 rlinecurve
          -12 -59 96 callsubr
          112 525 257 0 15 72 -257 0 127 599 58 -2 266 -12 62 -41 -6 -228 rlinecurve
          53 hlineto
          61 352 -1166 0 24 callsubr
          -127 -599 rlineto
          -255 hlineto
          endchar
        </CharString>
        <CharString name="Tcaron">
          1285 1205 -87 callsubr
          -84 callsubr
          -66 callsubr
          259 -413 rmoveto
          -1166 hlineto
          24 callsubr
          91 callsubr
          96 callsubr
          83 callsubr
          endchar
        </CharString>
        <CharString name="Tcedilla">
          1285 551 -472 rmoveto
          74 callgsubr
          225 0 12 59 -159 16 -14 18 18 86 rlinecurve
          83 callsubr
          61 352 -1166 0 24 callsubr
          91 callsubr
          262 0 -132 -153 -12 -59 rlineto
          2 17 1 4 hhcurveto
          77 45 -32 -56 -50 -41 -33 -65 -56 -50 18 27 -35 hvcurveto
          -13 -58 rlineto
          -46 41 63 -31 84 hhcurveto
          endchar
        </CharString>
        <CharString name="Tcircumflexbelow">
          -32 callsubr
          -1101 -1555 107 callsubr
          -121 36 callsubr
        </CharString>
        <CharString name="Tcommaaccent">
          -32 callsubr
          -915 -1564 -63 callsubr
          -11 callsubr
        </CharString>
        <CharString name="Tdotaccent">
          1285 996 19 callsubr
          536 -154 rmoveto
          -1166 hlineto
          24 callsubr
          91 callsubr
          96 callsubr
          83 callsubr
          endchar
        </CharString>
        <CharString name="Tdotbelow">
          -32 callsubr
          -890 -1298 148 callsubr
        </CharString>
        <CharString name="Tecyrillic">
          -32 callsubr
          endchar
        </CharString>
        <CharString name="Thetagreek">
          1605 870 -26 rmoveto
          437 333 391 448 2 hvcurveto
          3 369 -225 291 -385 -3 -438 -2 -332 -391 -2 -448 rrcurveto
          -367 -3 224 -288 386 hhcurveto
          7 80 rmoveto
          -257 -133 210 316 3 hvcurveto
          378 2 179 432 355 hhcurveto
          260 132 -210 -318 -2 hvcurveto
          -378 -3 -183 -430 -353 hhcurveto
          -297 420 rmoveto
          50 hlineto
          162 61 38 42 89 hhcurveto
          226 hlineto
          88 21 -42 -162 -9 hvcurveto
          50 hlineto
          102 478 rlineto
          -50 hlineto
          -164 -66 -36 -37 -84 hhcurveto
          -227 hlineto
          -85 -20 37 164 5 hvcurveto
          -51 hlineto
          endchar
        </CharString>
        <CharString name="Thorn">
          1265 274 180 rmoveto
          -20 -91 -20 -15 -142 -15 rrcurveto
          -13 -59 520 0 13 59 rlineto
          -131 13 -20 17 20 91 32 154 rcurveline
          154 hlineto
          370 298 167 269 229 -199 133 -299 hvcurveto
          -154 hlineto
          28 132 19 91 24 16 139 14 rlinecurve
          12 59 -520 0 -12 -59 133 -14 17 -16 -20 -91 rlinecurve
          613 -483 rmoveto
          -184 -114 -181 -345 -9 vhcurveto
          -129 -4 140 659 129 -3 rlineto
          195 -5 124 -108 -165 vvcurveto
          endchar
        </CharString>
        <CharString name="Tlinebelow">
          -32 callsubr
          -1146 -1449 -76 callsubr
        </CharString>
        <CharString name="Tsecyrillic">
          1547 144 callsubr
          1130 hlineto
          177 12 -41 -267 18 hvcurveto
          68 hlineto
          69 383 -205 0 252 1188 20 92 20 15 143 15 rlinecurve
          12 59 -519 0 -13 -59 130 -13 19 -18 -19 -91 rlinecurve
          -254 -1188 -681 0 253 1188 20 93 78 callsubr
        </CharString>
        <CharString name="Tshecyrillic">
          1752 1545 1444 rmoveto
          -1181 hlineto
          -84 -352 rlineto
          52 hlineto
          98 234 66 34 -31 callgsubr
          112 530 rcurveline
          19 76 81 12 93 hhcurveto
          242 84 -134 -251 -53 hvcurveto
          -75 -355 363 0 13 59 rlineto
          -134 14 -16 15 19 93 36 172 rcurveline
          312 64 -154 155 -363 hhcurveto
          -103 -80 -13 -22 -76 hvcurveto
          125 590 91 callgsubr
          endchar
        </CharString>
        <CharString name="U">
          1472 768 -26 -90 callsubr
        </CharString>
        <CharString name="Uacute">
          1472 1229 -92 callsubr
          66 0 346 266 rlineto
          8 vlineto
          -652 -1857 -90 callsubr
        </CharString>
        <CharString name="Ubreve">
          1472 1138 1589 rmoveto
          158 97 110 174 6 hvcurveto
          -58 hlineto
          -100 -19 -64 -53 callgsubr
          94 callgsubr
          -370 -1615 -90 callsubr
        </CharString>
        <CharString name="Ubrevecyrillic">
          1400 1086 197 callsubr
          -852 -1500 166 callsubr
        </CharString>
        <CharString name="Ucaron">
          1472 1334 -87 callsubr
          -84 callsubr
          -66 callsubr
          -634 -1883 -90 callsubr
        </CharString>
        <CharString name="Ucircumflex">
          1472 928 -42 callsubr
          140 -151 61 -76 callgsubr
          -93 -1583 -90 callsubr
        </CharString>
        <CharString name="Ucircumflexbelow">
          58 callsubr
          -269 -437 152 callsubr
        </CharString>
        <CharString name="Ucyrillic">
          1400 234 99 166 callsubr
        </CharString>
        <CharString name="Udblgrave">
          1472 915 26 callgsubr
          -144 -6 hlineto
          151 -270 rlineto
          53 hlineto
          -487 -1582 -90 callsubr
        </CharString>
        <CharString name="Udieresis">
          1472 969 4 callsubr
          93 callsubr
          311 hmoveto
          31 callgsubr
          -512 -1626 -90 callsubr
        </CharString>
        <CharString name="Udieresisacute">
          83 callgsubr
          61 -203 -100 callgsubr
          -7 0 callsubr
          46 29 callsubr
          -42 -33 -40 -10 hvcurveto
          -41 -9 29 -31 47 hhcurveto
          -465 -1582 -90 callsubr
        </CharString>
        <CharString name="Udieresisbelow">
          58 callsubr
          -247 -371 rmoveto
          143 callsubr
          370 hmoveto
          21 callgsubr
          endchar
        </CharString>
        <CharString name="Udieresiscaron">
          1472 1448 1955 rmoveto
          -283 -91 -245 91 -12 -54 213 48 callgsubr
          9 -29 33 -46 hhcurveto
          -7 0 callsubr
          46 29 callsubr
          -42 -33 -40 -10 hvcurveto
          -41 -9 29 -31 47 hhcurveto
          -465 -1582 -90 callsubr
        </CharString>
        <CharString name="Udieresisgrave">
          1472 894 1835 rmoveto
          512 48 callsubr
          21 -395 -100 callgsubr
          -7 0 callsubr
          46 29 callsubr
          -42 -33 -40 -10 hvcurveto
          -41 -9 29 -31 47 hhcurveto
          -465 -1582 -90 callsubr
        </CharString>
        <CharString name="Udieresismacron">
          1472 889 1812 rmoveto
          528 hlineto
          18 86 rlineto
          -527 hlineto
          31 -342 -100 callgsubr
          -7 0 callsubr
          46 29 callsubr
          -42 -33 -40 -10 hvcurveto
          -41 -9 29 -31 47 hhcurveto
          -465 -1582 -90 callsubr
        </CharString>
        <CharString name="Udotbelow">
          58 callsubr
          -57 -180 -97 callsubr
          -73 callsubr
        </CharString>
        <CharString name="Ugrave">
          1472 1052 -56 callsubr
          -395 -1583 -90 callsubr
        </CharString>
        <CharString name="Uhookabove">
          1472 1152 1877 rmoveto
          -70 -66 -33 -43 -33 hvcurveto
          -10 -47 rlineto
          21 29 38 14 44 hhcurveto
          65 31 -26 -41 -51 -57 -52 -85 -50 hvcurveto
          67 hlineto
          100 callsubr
          -384 -1903 -90 callsubr
        </CharString>
        <CharString name="Uhorn">
          1542 315 582 rmoveto
          -23 callsubr
          172 callsubr
          endchar
        </CharString>
        <CharString name="Uhornacute">
          1542 1233 -92 callsubr
          -94 callsubr
          -1109 -1249 rmoveto
          -23 callsubr
          172 callsubr
          endchar
        </CharString>
        <CharString name="Uhorndotbelow">
          1542 315 582 rmoveto
          -23 callsubr
          172 callsubr
          245 -1455 149 callsubr
        </CharString>
        <CharString name="Uhorngrave">
          1542 1056 -56 callsubr
          -852 -975 rmoveto
          -23 callsubr
          172 callsubr
          endchar
        </CharString>
        <CharString name="Uhornhookabove">
          1542 1157 1877 34 callsubr
          1 callsubr
          100 callsubr
          -842 -1295 rmoveto
          -23 callsubr
          172 callsubr
          endchar
        </CharString>
        <CharString name="Uhorntilde">
          1542 1226 150 callsubr
          -31 hhcurveto
          -24 -83 callgsubr
          -52 callgsubr
          22 25 32 hhcurveto
          24 18 -12 -23 27 -41 callgsubr
          -911 -1021 rmoveto
          -23 callsubr
          172 callsubr
          endchar
        </CharString>
        <CharString name="Uhungarumlaut">
          1472 1077 -27 callgsubr
          -764 -1858 -90 callsubr
        </CharString>
        <CharString name="Uinvertedbreve">
          1472 1132 1873 rmoveto
          -159 -96 -111 -173 -6 35 callgsubr
          63 callgsubr
          -364 -1899 -90 callsubr
        </CharString>
        <CharString name="Umacron">
          1472 880 -20 callsubr
          24 112 rlineto
          -470 hlineto
          -137 -1774 -90 callsubr
        </CharString>
        <CharString name="Umacrondieresis">
          1472 988 1783 rmoveto
          46 42 31 41 9 hvcurveto
          41 9 -28 32 -47 hhcurveto
          -7 hlineto
          -47 -42 -32 -41 -9 hvcurveto
          -41 -10 30 -31 46 -88 callgsubr
          -8 hlineto
          -46 -42 -32 -41 -10 hvcurveto
          -41 -8 28 -31 47 hhcurveto
          -422 -198 rmoveto
          490 hlineto
          18 88 rlineto
          -489 hlineto
          -110 -1699 -90 callsubr
        </CharString>
        <CharString name="Uogonek">
          1472 714 -480 rmoveto
          74 55 33 41 30 hvcurveto
          12 59 rlineto
          -19 -22 -30 -13 -33 hhcurveto
          -60 -39 56 80 70 30 76 68 71 hvcurveto
          301 13 210 207 76 340 rrcurveto
          152 678 29 126 23 27 133 20 rlinecurve
          12 59 -413 0 -13 -59 rlineto
          145 -20 9 -27 -25 -126 -136 -663 rcurveline
          -313 75 callsubr
          20 141 19 rlinecurve
          12 59 -507 0 -12 -59 118 -19 16 -20 -21 -97 rlinecurve
          -142 -667 -83 -391 212 -203 293 -14 rlinecurve
          -122 -86 -80 -102 -103 vvcurveto
          -95 74 -68 105 vhcurveto
          endchar
        </CharString>
        <CharString name="Upsilondieresisgreek">
          1272 884 1600 82 callsubr
          -722 -411 -77 callsubr
        </CharString>
        <CharString name="Upsilongreek">
          1272 474 1189 -77 callsubr
        </CharString>
        <CharString name="Upsilontonosgreek">
          1633 834 199 callsubr
          -443 255 -50 callsubr
          -40 callsubr
        </CharString>
        <CharString name="Uring">
          1472 922 -11 callgsubr
          124 -13 rmoveto
          80 49 63 57 50 29 -35 -58 -80 -50 -63 -56 -50 -29 35 58 vhcurveto
          -278 -1745 -90 callsubr
        </CharString>
        <CharString name="Utilde">
          1472 1221 89 callsubr
          -14 -22 25 callsubr
          -43 hhcurveto
          -74 -56 -56 -166 -17 hvcurveto
          56 hlineto
          89 13 23 25 32 hhcurveto
          23 19 -12 -23 26 -41 callgsubr
          -453 -1629 -90 callsubr
        </CharString>
        <CharString name="Utildeacute">
          83 callgsubr
          89 callgsubr
          -9 -32 -18 -40 hhcurveto
          -26 -26 7 12 -37 hvcurveto
          -25 10 rlineto
          14 -39 -37 9 -45 hhcurveto
          -82 -78 -49 -106 -22 hvcurveto
          65 hlineto
          45 9 31 18 41 hhcurveto
          26 25 -6 -14 -58 callgsubr
          -445 -1583 -90 callsubr
        </CharString>
        <CharString name="Utildebelow">
          58 callsubr
          43 -392 88 callsubr
          -26 -22 -97 callgsubr
          -25 callgsubr
        </CharString>
        <CharString name="V">
          84 callgsubr
          endchar
        </CharString>
        <CharString name="Vdotbelow">
          84 callgsubr
          171 -1395 149 callsubr
        </CharString>
        <CharString name="Vecyrillic">
          1278 1278 451 61 callsubr
        </CharString>
        <CharString name="Vtilde">
          1332 1180 193 callsubr
          -739 -414 rmoveto
          182 callsubr
          endchar
        </CharString>
        <CharString name="W">
          2045 439 1189 -18 callsubr
        </CharString>
        <CharString name="Wacute">
          2045 1548 -92 callsubr
          -94 callsubr
          -1300 -642 -18 callsubr
        </CharString>
        <CharString name="Wcircumflex">
          2045 1248 90 callsubr
          -742 -368 -18 callsubr
        </CharString>
        <CharString name="Wdieresis">
          2045 1289 1600 rmoveto
          81 callsubr
          311 hmoveto
          -45 callgsubr
          -1161 -411 -18 callsubr
        </CharString>
        <CharString name="Wdotaccent">
          2045 1445 19 callsubr
          -1006 -409 -18 callsubr
        </CharString>
        <CharString name="Wdotbelow">
          2045 439 1189 rmoveto
          110 -1192 131 0 591 1156 88 -1156 132 0 610 1177 89 171 38 25 119 15 rlinecurve
          13 59 -418 0 -13 -59 143 -19 8 -30 -77 -158 rlinecurve
          -469 -957 -63 967 -10 151 16 27 146 19 rlinecurve
          12 59 -506 0 -12 -59 141 -20 8 -28 -76 -156 rlinecurve
          -467 -960 -69 968 -10 145 19 32 148 19 rlinecurve
          13 59 -525 0 -12 -59 104 -14 34 -25 14 -157 rlinecurve
          527 -1395 -97 callsubr
          -73 callsubr
        </CharString>
        <CharString name="Wgrave">
          2045 1371 -56 callsubr
          -1043 -368 -18 callsubr
        </CharString>
        <CharString name="X">
          1286 317 269 7 callsubr
        </CharString>
        <CharString name="Xdieresis">
          1286 907 4 callsubr
          93 callsubr
          311 hmoveto
          31 callgsubr
          -901 -1331 7 callsubr
        </CharString>
        <CharString name="Xdotaccent">
          1286 1063 45 callsubr
          -746 -1329 7 callsubr
        </CharString>
        <CharString name="Xigreek">
          1298 1550 1444 rmoveto
          -1149 hlineto
          -91 -370 rlineto
          54 hlineto
          182 86 90 39 243 hhcurveto
          323 hlineto
          243 73 -39 -182 9 hvcurveto
          55 hlineto
          -806 -379 rmoveto
          275 hlineto
          123 30 -46 -149 -9 hvcurveto
          52 hlineto
          98 461 rlineto
          -51 hlineto
          -147 -56 -49 -45 -123 hhcurveto
          -275 hlineto
          -124 -30 45 147 8 hvcurveto
          -52 hlineto
          -97 -461 rlineto
          51 hlineto
          149 55 50 46 124 hhcurveto
          570 -695 rmoveto
          103 412 rlineto
          -54 hlineto
          -232 -99 -80 -29 -290 hhcurveto
          -257 hlineto
          -291 -66 30 231 -1 hvcurveto
          -54 hlineto
          -71 -412 rlineto
          endchar
        </CharString>
        <CharString name="Xigreek.1">
          1340 82 hmoveto
          1168 hlineto
          104 412 rlineto
          -55 hlineto
          -232 -99 -80 -29 -290 hhcurveto
          -98 hlineto
          116 544 rlineto
          107 hlineto
          124 29 -46 -149 -8 hvcurveto
          51 hlineto
          99 461 rlineto
          -52 hlineto
          -147 -56 -49 -45 -123 hhcurveto
          -107 hlineto
          112 526 rlineto
          131 hlineto
          243 73 -39 -182 9 hvcurveto
          55 hlineto
          65 370 -1158 0 -92 -370 rlineto
          55 hlineto
          182 86 90 39 243 hhcurveto
          130 hlineto
          -112 -526 rlineto
          -107 hlineto
          -123 -30 45 147 7 hvcurveto
          -51 hlineto
          -98 -461 rlineto
          51 hlineto
          149 56 49 46 124 hhcurveto
          107 hlineto
          -115 -544 rlineto
          -99 hlineto
          -291 -66 30 231 hvcurveto
          -55 hlineto
          endchar
        </CharString>
        <CharString name="Y">
          1273 474 1189 -77 callsubr
        </CharString>
        <CharString name="Yacute">
          1272 1144 -92 callsubr
          -94 callsubr
          -861 -642 -77 callsubr
        </CharString>
        <CharString name="Ycircumflex">
          1272 844 65 callsubr
          -302 -368 -77 callsubr
        </CharString>
        <CharString name="Ydieresis">
          1272 884 1600 82 callsubr
          -722 -411 -77 callsubr
        </CharString>
        <CharString name="Ydotaccent">
          1272 1040 -75 callsubr
          -22 callsubr
          -566 -409 -77 callsubr
        </CharString>
        <CharString name="Ydotbelow">
          1272 474 199 callsubr
          99 -1395 -97 callsubr
          -65 callsubr
        </CharString>
        <CharString name="Yericyrillic">
          1801 1271 -91 callgsubr
          196 callsubr
          356 -303 -89 callsubr
          -101 callsubr
          18 callsubr
          -578 308 -24 callgsubr
        </CharString>
        <CharString name="Ygrave">
          1272 967 -56 callsubr
          -604 -368 -77 callsubr
        </CharString>
        <CharString name="Yhookabove">
          1272 1068 1877 34 callsubr
          1 callsubr
          121 46 82 61 78 vvcurveto
          69 -58 54 -98 vhcurveto
          -594 -688 -77 callsubr
        </CharString>
        <CharString name="Yicyrillic">
          637 518 -48 callgsubr
          -42 -56 hvcurveto
          -50 -1 39 -39 155 callsubr
          -42 -56 -50 38 -39 52 vhcurveto
          -369 -1419 -89 callsubr
          -101 callsubr
          -88 callsubr
        </CharString>
        <CharString name="Ymacron">
          1272 796 1636 -50 callgsubr
          -346 -559 -77 callsubr
        </CharString>
        <CharString name="Ytilde">
          1272 1137 150 callsubr
          -32 hhcurveto
          -23 -83 callgsubr
          54 callgsubr
          -23 27 hvcurveto
          26 -24 rlineto
          -28 33 33 -17 43 hhcurveto
          -663 -414 -77 callsubr
        </CharString>
        <CharString name="Z">
          1176 1090 hmoveto
          -61 callsubr
          -6 callsubr
        </CharString>
        <CharString name="Zacute">
          1176 1046 -92 callsubr
          -94 callsubr
          -147 -1831 rmoveto
          -61 callsubr
          -6 callsubr
        </CharString>
        <CharString name="Zcaron">
          1176 1152 -87 callsubr
          -84 callsubr
          32 callsubr
          -130 -1857 rmoveto
          -61 callsubr
          -6 callsubr
        </CharString>
        <CharString name="Zcircumflex">
          1176 746 65 callsubr
          412 -1557 rmoveto
          -61 callsubr
          -6 callsubr
        </CharString>
        <CharString name="Zdotaccent">
          1176 942 -75 callsubr
          -22 callsubr
          148 -1598 rmoveto
          -61 callsubr
          -6 callsubr
        </CharString>
        <CharString name="Zdotbelow">
          3 callgsubr
          457 -206 -97 callsubr
          -65 callsubr
        </CharString>
        <CharString name="Zecyrillic">
          1244 629 -26 rmoveto
          374 244 186 287 177 -141 104 -208 23 hvcurveto
          233 36 185 122 227 vvcurveto
          206 -165 129 -285 -155 -164 -53 -68 -97 vhcurveto
          -76 -314 rlineto
          52 hlineto
          252 101 151 98 182 hhcurveto
          155 82 -104 -144 -221 -145 -137 -242 hvcurveto
          -151 hlineto
          -16 -75 rlineto
          151 hlineto
          213 115 -90 -188 -191 -116 -176 -278 -4 hvcurveto
          -196 -2 -129 129 -13 211 rrcurveto
          -52 hlineto
          -39 -302 rlineto
          -56 70 163 -62 197 hhcurveto
          endchar
        </CharString>
        <CharString name="Zetagreek">
          1176 1090 hmoveto
          -61 callsubr
          -6 callsubr
        </CharString>
        <CharString name="Zhecyrillic">
          2021 279 hmoveto
          664 706 123 0 -112 -526 -19 -91 -23 -14 -155 -16 rlinecurve
          -12 -59 550 0 13 59 -146 15 -19 15 18 91 rlinecurve
          112 526 126 0 349 -706 273 0 12 55 -65 25 -45 51 -104 202 rlinecurve
          -256 500 335 307 196 181 68 45 129 19 rlinecurve
          12 59 -450 0 -12 -59 153 -14 -8 -39 -157 -152 rlinecurve
          -409 -396 -130 -1 102 481 19 91 26 15 151 15 rlinecurve
          13 59 -550 0 -12 -59 148 -15 17 -15 -20 -91 rlinecurve
          -102 -481 -124 0 -250 397 -103 161 41 32 144 12 rlinecurve
          13 59 -467 0 -12 -59 126 -23 50 -38 127 -183 rlinecurve
          199 -287 -488 -521 rlineto
          -187 -199 -61 -55 -73 -24 -13 -55 rcurveline
          endchar
        </CharString>
        <CharString name="Zlinebelow">
          3 callgsubr
          200 -357 -68 callgsubr
        </CharString>
        <CharString name="a">
          1085 -78 callsubr
          -107 callsubr
          -103 callsubr
        </CharString>
        <CharString name="a.dnum">
          678 121 185 rmoveto
          -126 69 -71 85 79 65 49 15 callgsubr
          45 rlineto
          -14 -19 -27 -6 -18 hhcurveto
          -26 -10 18 34 8 hvcurveto
          85 402 -75 0 -57 -55 rlineto
          36 -18 -43 31 -71 hhcurveto
          -172 -116 -165 -194 1 hvcurveto
          143 2 rmoveto
          124 -1 55 168 116 hhcurveto
          43 30 -18 -21 7 hvcurveto
          -50 -231 rlineto
          -88 -19 -52 -48 -51 hhcurveto
          -47 -29 31 83 -2 hvcurveto
          endchar
        </CharString>
        <CharString name="a.numr">
          678 266 869 rmoveto
          -126 69 -71 85 79 65 48 87 36 vhcurveto
          -1 -3 -5 -22 -4 vvcurveto
          -68 -12 26 -36 63 hhcurveto
          54 61 26 36 28 hvcurveto
          9 46 rlineto
          -14 -18 -27 -6 -18 hhcurveto
          -26 -10 17 35 8 hvcurveto
          85 402 -75 0 -57 -55 rlineto
          35 -18 -43 31 -71 hhcurveto
          -172 -116 -164 -194 1 hvcurveto
          143 1 rmoveto
          125 -1 55 168 116 hhcurveto
          42 30 -18 -22 8 hvcurveto
          -50 -231 rlineto
          -88 -19 -52 -48 -52 hhcurveto
          -46 -29 31 83 -2 hvcurveto
          endchar
        </CharString>
        <CharString name="a.sups">
          678 306 1056 rmoveto
          -126 69 -71 85 79 65 48 15 callgsubr
          46 rlineto
          -14 -19 -27 -6 -18 hhcurveto
          -26 -10 17 35 8 hvcurveto
          86 402 -76 0 -56 -55 rlineto
          35 -19 -42 31 -72 hhcurveto
          -172 -116 -164 -194 1 hvcurveto
          144 1 rmoveto
          125 -2 56 168 115 hhcurveto
          43 30 -18 -22 7 hvcurveto
          -49 -231 rlineto
          -88 -19 -53 -48 -51 hhcurveto
          -47 -29 31 83 -1 hvcurveto
          endchar
        </CharString>
        <CharString name="aacute">
          1085 905 -82 callsubr
          -941 -1154 -106 callsubr
          -107 callsubr
          -103 callsubr
        </CharString>
        <CharString name="abreve">
          1085 793 -68 callsubr
          136 callsubr
          -605 -818 -106 callsubr
          -107 callsubr
          -103 callsubr
        </CharString>
        <CharString name="abreveacute">
          49 callgsubr
          199 -282 rmoveto
          154 130 92 141 23 hvcurveto
          -63 51 callsubr
          -109 -74 47 callsubr
          -39 92 -92 155 hhcurveto
          -560 -776 -106 callsubr
          -107 callsubr
          -103 callsubr
        </CharString>
        <CharString name="abrevecyrillic">
          1085 760 1160 rmoveto
          145 143 83 175 61 hvcurveto
          -62 26 rlineto
          -145 -54 -106 -70 -121 hhcurveto
          -50 -42 16 24 -30 hvcurveto
          2 hlineto
          51 42 47 56 61 -46 45 -57 -66 -47 -50 -67 -120 105 -81 132 hvcurveto
          -572 -821 -106 callsubr
          -107 callsubr
          -103 callsubr
        </CharString>
        <CharString name="abrevedotbelow">
          1085 793 -68 callsubr
          136 callsubr
          -605 -818 -106 callsubr
          -107 callsubr
          -74 callsubr
          -47 -16 32 54 12 hvcurveto
          -17 callsubr
          192 -746 -80 callsubr
        </CharString>
        <CharString name="abrevegrave">
          50 callgsubr
          151 -507 rmoveto
          154 130 92 141 23 hvcurveto
          -63 51 callsubr
          -109 -74 47 callsubr
          -39 92 -92 155 hhcurveto
          -560 -776 -106 callsubr
          -107 callsubr
          -103 callsubr
        </CharString>
        <CharString name="abrevehookabove">
          1085 827 1609 rmoveto
          -72 -63 -29 -30 -36 hvcurveto
          -12 87 callsubr
          45 callgsubr
          -86 hhcurveto
          -79 -494 rmoveto
          154 130 92 141 23 hvcurveto
          -63 51 callsubr
          -109 -74 47 callsubr
          -39 92 -92 155 hhcurveto
          -560 -776 -106 callsubr
          -107 callsubr
          -103 callsubr
        </CharString>
        <CharString name="abrevetilde">
          1085 924 1420 rmoveto
          82 76 57 -5 callsubr
          -26 110 callsubr
          -28 callgsubr
          -176 -305 rmoveto
          154 130 92 141 23 hvcurveto
          -63 51 callsubr
          -109 -74 47 callsubr
          -39 92 -92 155 hhcurveto
          -560 -776 -106 callsubr
          -107 callsubr
          -103 callsubr
        </CharString>
        <CharString name="acaron">
          1085 1018 98 callsubr
          -82 callgsubr
          -906 -1162 -106 callsubr
          -107 callsubr
          -103 callsubr
        </CharString>
        <CharString name="acircumflex">
          1085 562 -74 callgsubr
          69 0 -127 359 -124 0 -279 -359 rlineto
          -298 -795 -106 callsubr
          -107 callsubr
          -103 callsubr
        </CharString>
        <CharString name="acircumflexacute">
          49 callgsubr
          -59 -287 rmoveto
          281 -46 callsubr
          -273 -178 rlineto
          -316 -836 -106 callsubr
          -107 callsubr
          -103 callsubr
        </CharString>
        <CharString name="acircumflexdotbelow">
          1085 562 -74 callgsubr
          69 0 -127 359 -124 0 -279 -359 rlineto
          -298 -795 -106 callsubr
          -107 callsubr
          -74 callsubr
          -47 -16 32 54 12 hvcurveto
          -17 callsubr
          192 -746 -80 callsubr
        </CharString>
        <CharString name="acircumflexgrave">
          50 callgsubr
          -107 -512 rmoveto
          281 -46 callsubr
          -273 -178 rlineto
          -316 -836 -106 callsubr
          -107 callsubr
          -103 callsubr
        </CharString>
        <CharString name="acircumflexhookabove">
          1085 1033 108 callsubr
          -12 -54 rlineto
          14 25 46 14 46 hhcurveto
          57 31 -24 -41 -9 hvcurveto
          -8 -39 45 callgsubr
          -87 hhcurveto
          -543 -499 rmoveto
          281 -46 callsubr
          -273 -178 rlineto
          -316 -836 -106 callsubr
          -107 callsubr
          -103 callsubr
        </CharString>
        <CharString name="acircumflextilde">
          1085 924 1420 rmoveto
          82 76 57 -5 callsubr
          -26 110 callsubr
          -28 callgsubr
          -434 -310 rmoveto
          281 -46 callsubr
          -273 -178 rlineto
          -316 -836 -106 callsubr
          -107 callsubr
          -103 callsubr
        </CharString>
        <CharString name="acute">
          1024 906 -62 callsubr
          endchar
        </CharString>
        <CharString name="acutecmb">
          0 394 -62 callsubr
          endchar
        </CharString>
        <CharString name="acutecmb.short">
          0 364 1375 rmoveto
          -221 -274 -94 callsubr
          endchar
        </CharString>
        <CharString name="acutedotaccentcmb">
          0 314 79 callsubr
          73 callgsubr
          endchar
        </CharString>
        <CharString name="acutedotaccentcmb.short">
          0 391 1752 rmoveto
          50 37 34 44 hvcurveto
          43 -1 -40 34 -50 hhcurveto
          -50 -37 -34 -43 -44 41 -34 50 hvcurveto
          215 -135 -51 callsubr
          -11 -55 rlineto
          endchar
        </CharString>
        <CharString name="acyrillic">
          1085 -78 callsubr
          -107 callsubr
          -103 callsubr
        </CharString>
        <CharString name="adblgrave">
          1085 530 -47 callsubr
          35 callsubr
          -752 -795 -106 callsubr
          -107 callsubr
          -103 callsubr
        </CharString>
        <CharString name="adieresis">
          1085 588 5 callsubr
          -44 44 callsubr
          40 callsubr
          -44 44 callsubr
          60 hvcurveto
          -797 -870 -106 callsubr
          -107 callsubr
          -103 callsubr
        </CharString>
        <CharString name="adieresismacron">
          1085 560 1445 rmoveto
          515 hlineto
          21 101 rlineto
          -515 hlineto
          3 -411 rmoveto
          49 45 37 48 11 hvcurveto
          48 10 -29 38 -49 hhcurveto
          -7 hlineto
          -49 -46 -38 -48 -10 hvcurveto
          -48 -11 30 -37 49 hhcurveto
          324 hmoveto
          49 46 37 48 10 hvcurveto
          48 11 42 callsubr
          -10 hvcurveto
          -48 -10 30 -37 48 hhcurveto
          -706 -796 -106 callsubr
          -107 callsubr
          -103 callsubr
        </CharString>
        <CharString name="adotaccent">
          1085 786 -85 callsubr
          -44 callsubr
          -598 -863 -106 callsubr
          -107 callsubr
          -103 callsubr
        </CharString>
        <CharString name="adotbelow">
          1085 -78 callsubr
          -107 callsubr
          -74 callsubr
          -47 -16 32 54 12 hvcurveto
          -17 callsubr
          192 -746 -80 callsubr
        </CharString>
        <CharString name="adotmacron">
          1085 558 1433 113 callsubr
          14 callgsubr
          -584 -798 -106 callsubr
          -107 callsubr
          -103 callsubr
        </CharString>
        <CharString name="ae">
          1456 269 786 115 callsubr
        </CharString>
        <CharString name="aeacute">
          1456 1124 -62 callsubr
          -1079 -707 115 callsubr
        </CharString>
        <CharString name="aemacron">
          1456 733 31 callsubr
          -490 -579 115 callsubr
        </CharString>
        <CharString name="agrave">
          1085 726 -41 callsubr
          247 -349 rlineto
          65 hlineto
          -650 -795 -106 callsubr
          -107 callsubr
          -103 callsubr
        </CharString>
        <CharString name="ahookabove">
          1085 817 153 callsubr
          50 hhcurveto
          72 34 -31 -47 -61 -64 -62 -96 -57 hvcurveto
          77 hlineto
          138 55 94 69 93 vvcurveto
          81 -66 64 -110 vhcurveto
          -629 -1160 -106 callsubr
          -107 callsubr
          -103 callsubr
        </CharString>
        <CharString name="ainvertedbreve">
          1085 789 1478 rmoveto
          -173 -107 -129 -201 -9 hvcurveto
          59 hlineto
          115 23 70 68 130 hhcurveto
          106 69 -63 -82 -15 -1 -14 -2 -9 hvcurveto
          60 hlineto
          13 29 8 38 34 vvcurveto
          133 -101 96 -145 vhcurveto
          -601 -1139 -106 callsubr
          -107 callsubr
          -103 callsubr
        </CharString>
        <CharString name="alphagreek">
          1184 469 -20 159 callsubr
        </CharString>
        <CharString name="alphatonosgreek">
          1184 890 26 callsubr
          -625 -1534 159 callsubr
        </CharString>
        <CharString name="amacron">
          1085 513 30 callsubr
          -351 -1026 -106 callsubr
          -107 callsubr
          -103 callsubr
        </CharString>
        <CharString name="ampersand">
          1470 156 330 rmoveto
          -202 151 -154 249 171 139 92 156 149 vhcurveto
          185 -222 280 0 11 52 -99 45 -81 94 -105 127 rlinecurve
          -54 65 170 224 129 169 48 30 117 21 rlinecurve
          12 59 -435 0 -12 -59 162 -17 15 -34 -108 -152 rlinecurve
          -137 -194 -300 361 -6 8 -6 7 -5 7 rlinecurve
          267 102 116 124 142 vvcurveto
          168 -132 121 -225 -240 -143 -160 -188 -5 vhcurveto
          -3 -95 35 -108 89 -132 rrcurveto
          -243 -93 -156 -144 -220 vvcurveto
          464 850 rmoveto
          128 80 80 122 127 61 -106 -114 -132 -76 -101 -172 -79 vhcurveto
          -109 143 -33 93 88 vvcurveto
          -277 -773 rmoveto
          173 118 93 128 66 vhcurveto
          15 -19 16 -20 17 -21 340 -410 rcurveline
          -101 -99 -90 -69 -132 hhcurveto
          -181 -132 132 176 hvcurveto
          endchar
        </CharString>
        <CharString name="anoteleiagreek">
          501 439 756 rmoveto
          72 57 58 74 70 -58 58 -73 -72 -57 -58 -74 -70 58 -58 73 hvcurveto
          endchar
        </CharString>
        <CharString name="aogonek">
          1085 -78 callsubr
          -107 callsubr
          14 13 2 2 14 hvcurveto
          -177 -120 -69 -101 -94 vvcurveto
          -92 68 -60 97 75 57 33 40 31 vhcurveto
          12 59 rlineto
          -20 -23 -33 -12 -34 hhcurveto
          -50 -36 36 65 104 90 109 178 143 hvcurveto
          12 63 rlineto
          -32 -37 -53 -13 -33 hhcurveto
          -47 -16 32 54 12 hvcurveto
          -17 callsubr
          endchar
        </CharString>
        <CharString name="approxequal">
          1170 976 751 rmoveto
          -149 -97 208 -188 hhcurveto
          -137 -129 -91 -236 -40 hvcurveto
          96 -1 rlineto
          153 32 87 59 83 150 96 -209 188 hhcurveto
          137 129 92 235 40 hvcurveto
          -97 hlineto
          -151 -30 -89 -59 -82 hhcurveto
          -101 -470 rmoveto
          -148 -97 208 -188 hhcurveto
          -137 -130 -92 -235 -39 hvcurveto
          96 -1 rlineto
          153 31 89 59 82 149 97 -209 188 hhcurveto
          136 130 92 235 40 hvcurveto
          -97 hlineto
          -152 -30 -89 -58 -83 hhcurveto
          endchar
        </CharString>
        <CharString name="aring">
          1085 551 1305 rmoveto
          -115 97 -70 126 152 105 87 125 114 -98 71 -127 -150 -105 -87 -125 vhcurveto
          137 -15 rmoveto
          89 56 71 62 55 32 -38 -65 -90 -55 -71 -63 -56 -31 39 65 vhcurveto
          -500 -951 -106 callsubr
          -107 callsubr
          -103 callsubr
        </CharString>
        <CharString name="aringacute">
          1085 1084 1488 rmoveto
          29 137 -550 -161 -14 -65 rlineto
          228 -307 rmoveto
          119 87 51 79 17 hvcurveto
          79 16 -64 51 -120 hhcurveto
          -68 hlineto
          -117 79 callgsubr
          -59 hlineto
          -43 -20 27 37 8 hvcurveto
          37 8 32 27 42 hhcurveto
          60 hlineto
          45 17 -27 -37 -8 hvcurveto
          -37 -8 -29 -27 -45 hhcurveto
          -598 -819 -106 callsubr
          -107 callsubr
          -103 callsubr
        </CharString>
        <CharString name="aringbelow">
          1085 -78 callsubr
          -107 callsubr
          -74 callsubr
          -47 -16 32 54 12 hvcurveto
          -17 callsubr
          -47 -656 rmoveto
          -101 3 100 -62 126 hhcurveto
          151 104 79 106 -5 -4 callgsubr
          55 33 -32 -54 3 hvcurveto
          -76 2 -53 -58 -63 hhcurveto
          -55 -33 32 54 -2 hvcurveto
          endchar
        </CharString>
        <CharString name="asciicircum">
          1170 847 1444 rmoveto
          -530 -587 67 -61 489 524 264 -523 81 60 -280 587 rlineto
          endchar
        </CharString>
        <CharString name="asciitilde">
          1170 929 532 rmoveto
          -148 -97 209 -189 hhcurveto
          -136 -130 -92 -235 -40 hvcurveto
          97 -1 rlineto
          153 30 89 59 83 149 96 -209 188 hhcurveto
          136 130 91 236 40 hvcurveto
          -96 hlineto
          -151 -31 -88 -60 -83 hhcurveto
          endchar
        </CharString>
        <CharString name="asterisk">
          706 643 1472 rmoveto
          -48 -29 -33 -53 -15 1 -17 1 -29 hvcurveto
          14 -180 24 0 87 189 rlineto
          16 34 3 18 16 vvcurveto
          39 -28 31 -41 vhcurveto
          -277 -120 rmoveto
          -42 -25 -35 -34 -31 18 -30 59 -24 hvcurveto
          186 -77 14 22 -100 135 rlineto
          58 -43 -36 16 -31 hhcurveto
          495 -54 rmoveto
          -32 -24 -12 -38 -53 hvcurveto
          -142 -106 9 -23 202 28 rlineto
          77 10 35 28 47 vvcurveto
          38 -30 28 -42 vhcurveto
          -542 -361 rmoveto
          33 24 12 38 53 hvcurveto
          141 106 -8 23 -203 -28 rlineto
          -77 -10 -35 -29 -46 vvcurveto
          -38 30 -28 42 vhcurveto
          562 14 rmoveto
          32 -18 30 -58 23 vhcurveto
          -187 78 -14 -22 100 -135 rlineto
          -59 43 36 -15 31 hhcurveto
          43 24 35 33 hvcurveto
          -344 -189 rmoveto
          49 29 34 53 15 -1 17 -1 29 hvcurveto
          -14 179 -24 0 -88 -188 rlineto
          -15 -35 -4 -17 -16 vvcurveto
          -39 28 -32 41 vhcurveto
          endchar
        </CharString>
        <CharString name="at">
          1984 1439 -297 rmoveto
          2 60 rlineto
          -70 -126 -133 -24 -163 hhcurveto
          -397 -299 288 462 500 375 403 505 404 292 -232 -404 -386 -248 -199 -175 -74 -29 46 80 16 hvcurveto
          157 733 -74 0 -114 -134 rlineto
          96 -26 -72 61 -111 hhcurveto
          -264 -189 -319 -300 -200 86 -128 157 110 107 78 158 76 hvcurveto
          -5 -27 -4 -27 -20 vvcurveto
          -128 -7 105 -56 114 hhcurveto
          272 286 253 424 428 -323 285 -470 -553 -417 -431 -567 -490 336 -330 433 170 177 43 74 93 hvcurveto
          -562 647 rmoveto
          257 121 299 180 89 52 -63 -89 9 vhcurveto
          -69 -323 rlineto
          -159 -33 -109 -140 -112 hhcurveto
          -96 -32 95 123 hvcurveto
          endchar
        </CharString>
        <CharString name="atilde">
          1085 899 69 callgsubr
          -18 -27 -31 -39 hhcurveto
          -29 -22 15 29 -32 hvcurveto
          -33 30 rlineto
          35 -40 -39 21 -52 hhcurveto
          -88 -67 -68 -203 -23 hvcurveto
          65 hlineto
          111 17 41 callgsubr
          -711 -848 -106 callsubr
          -107 callsubr
          -103 callsubr
        </CharString>
        <CharString name="austral">
          1348 87 385 rmoveto
          243 hlineto
          -86 -155 -73 -130 -30 -28 -123 -13 rlinecurve
          -12 -59 408 0 14 59 -137 16 -16 25 70 130 rlinecurve
          83 155 557 0 19 -165 13 -121 -18 -24 -151 -16 rlinecurve
          -12 -59 495 0 13 59 -116 12 -18 28 -15 121 rlinecurve
          -20 165 249 0 12 58 -268 0 -27 224 343 0 12 58 -363 0 -87 722 -124 0 -402 -722 -360 0 -13 -58 340 0 -125 -224 rlineto
          -262 hlineto
          511 282 rmoveto
          277 516 59 -516 rlineto
          -487 -282 rmoveto
          120 224 373 0 25 -224 rlineto
          endchar
        </CharString>
        <CharString name="austral.tnum">
          1177 95 443 rmoveto
          -14 -58 212 0 -78 -155 -67 -132 -28 -28 -107 -11 rlinecurve
          -13 -59 363 0 12 59 -121 14 -11 23 67 134 rlinecurve
          76 155 471 0 10 -165 9 -122 -19 -25 -128 -14 rlinecurve
          -13 -59 460 0 13 59 -99 11 -15 27 -11 123 rlinecurve
          -14 165 208 0 13 58 -226 0 -18 223 291 0 13 59 -309 0 -59 722 -132 0 -366 -722 -310 0 -14 -59 294 0 -112 -223 rlineto
          230 282 rmoveto
          248 506 33 -506 rlineto
          -419 -282 rmoveto
          109 223 314 0 15 -223 rlineto
          endchar
        </CharString>
        <CharString name="b">
          135 callsubr
          endchar
        </CharString>
        <CharString name="backslash">
          620 444 -284 rmoveto
          112 hlineto
          -104 1868 rlineto
          -111 hlineto
          endchar
        </CharString>
        <CharString name="baht">
          -15 callgsubr
          2 150 -113 107 -226 31 rrcurveto
          49 228 -59 0 -47 -222 rlineto
          2 -29 -30 1 -31 hhcurveto
          -439 hlineto
          -12 -59 rlineto
          138 -13 12 -20 -19 -88 -220 -1024 rcurveline
          -19 -88 -19 -20 -144 -13 -12 -59 rcurveline
          486 hlineto
          15 14 0 1 15 hvcurveto
          -47 -220 59 0 47 223 rlineto
          352 24 220 156 238 vvcurveto
          -535 896 rmoveto
          111 -4 rlineto
          26 23 -3 -3 22 hvcurveto
          -116 -545 rlineto
          -10 -11 -1 -10 hhcurveto
          -153 hlineto
          513 318 rmoveto
          -156 -97 -122 -172 -32 vhcurveto
          112 525 rlineto
          105 -32 52 -73 -110 vvcurveto
          -527 -385 rmoveto
          151 hlineto
          11 11 -1 10 hhcurveto
          -132 -620 rlineto
          -23 -2 -24 -2 -26 -1 -113 -3 rcurveline
          595 347 rmoveto
          -173 -109 -121 -239 -38 vhcurveto
          128 605 rlineto
          146 -29 74 -104 -140 vvcurveto
          endchar
        </CharString>
        <CharString name="baht.tnum">
          -14 callgsubr
          152 -103 101 -206 32 vhcurveto
          48 230 -58 0 -48 -223 rlineto
          3 -30 -32 1 -33 hhcurveto
          -428 hlineto
          -13 -59 rlineto
          138 -13 13 -20 -19 -88 -220 -1024 rcurveline
          -19 -88 -20 -20 -143 -13 -12 -59 rcurveline
          477 hlineto
          16 16 0 1 15 hvcurveto
          -46 -220 58 0 48 223 rlineto
          335 27 208 155 236 vvcurveto
          -504 896 rmoveto
          104 -3 rlineto
          28 25 -3 -4 23 hvcurveto
          -116 -544 rlineto
          -1 -12 -13 -1 -12 hhcurveto
          -144 hlineto
          484 320 rmoveto
          -153 -87 -121 -155 -35 vhcurveto
          110 520 rlineto
          88 -35 44 -71 -105 vvcurveto
          -498 -387 rmoveto
          142 hlineto
          13 13 -1 -1 12 hvcurveto
          -132 -620 rlineto
          -2 -25 -25 -2 -27 hhcurveto
          -107 -3 rlineto
          566 349 rmoveto
          -172 -101 -123 -221 -39 vhcurveto
          129 603 rlineto
          129 -33 64 -101 -135 vvcurveto
          endchar
        </CharString>
        <CharString name="bar">
          620 194 -284 rmoveto
          111 hlineto
          397 1868 rlineto
          -111 hlineto
          endchar
        </CharString>
        <CharString name="bdotaccent">
          1084 651 1659 rmoveto
          66 52 52 66 62 -46 46 -64 -65 -53 -52 -66 -62 46 -46 64 hvcurveto
          456 -1010 -101 callgsubr
          175 callsubr
          endchar
        </CharString>
        <CharString name="bdotbelow">
          135 callsubr
          -366 -1048 -80 callsubr
        </CharString>
        <CharString name="becyrillic">
          1088 1098 575 rmoveto
          234 -128 196 -226 -195 -147 -126 -187 -77 vhcurveto
          25 299 112 203 324 27 8 1 99 8 10 1 239 19 89 70 37 172 rrcurveto
          -58 hlineto
          -21 -50 -52 -18 -130 -4 rrcurveto
          -560 -13 -237 -441 -501 vvcurveto
          -303 131 -183 252 315 190 292 304 vhcurveto
          -202 60 rmoveto
          -262 -104 -316 -198 -117 -68 102 191 262 104 316 200 116 67 -103 -190 vhcurveto
          endchar
        </CharString>
        <CharString name="betagreek">
          1092 42 -460 rmoveto
          197 hlineto
          103 549 rlineto
          -58 50 105 -51 113 hhcurveto
          307 187 220 258 2 hvcurveto
          2 186 -100 158 -213 31 234 46 128 147 1 188 rrcurveto
          181 2 -131 113 -203 hhcurveto
          -238 -158 -155 -330 -71 hvcurveto
          198 47 rmoveto
          232 51 62 124 147 hhcurveto
          104 61 -74 -140 -1 hvcurveto
          -1 -203 -115 -138 -231 -2 rrcurveto
          -31 -142 216 -4 95 -102 -2 -199 rlinecurve
          -208 -1 -147 -147 -184 hhcurveto
          -91 -73 30 67 -59 hvcurveto
          37 169 162 735 1 2 rrcurveto
          endchar
        </CharString>
        <CharString name="bitcoin">
          -15 callgsubr
          1 122 -74 93 -149 47 rrcurveto
          55 254 -59 0 -51 -239 rlineto
          13 -60 -69 7 -78 hhcurveto
          -3 hlineto
          46 219 -59 0 -46 -219 -377 0 -12 -59 138 -13 12 -20 -19 -88 rlinecurve
          -220 -1024 -19 -88 -19 -20 -144 -13 rlinecurve
          -12 -59 378 0 -47 -219 60 0 46 219 rlineto
          49 hlineto
          59 56 3 7 52 hvcurveto
          -49 -229 60 0 50 238 rlineto
          278 49 169 145 209 vvcurveto
          -140 658 rmoveto
          -181 -132 -136 -228 -1 vhcurveto
          -153 hlineto
          118 556 111 -4 rlineto
          191 -6 93 -80 -148 vvcurveto
          -67 -667 rmoveto
          -203 -149 -130 -333 -11 vhcurveto
          -113 -3 135 629 rlineto
          151 hlineto
          205 -1 104 -114 -167 vvcurveto
          endchar
        </CharString>
        <CharString name="bitcoin.tnum">
          -14 callgsubr
          124 -69 91 -138 46 vhcurveto
          54 254 -59 0 -50 -239 rlineto
          13 -58 -66 7 -76 hhcurveto
          -11 hlineto
          46 219 -58 0 -46 -219 -359 0 -13 -59 138 -13 13 -20 -19 -88 rlinecurve
          -220 -1024 -19 -88 -20 -20 -143 -13 rlinecurve
          -12 -59 360 0 -47 -219 58 0 47 219 rlineto
          59 hlineto
          55 53 3 6 49 hvcurveto
          -49 -228 60 0 50 238 rlineto
          269 49 163 145 209 vvcurveto
          -137 660 rmoveto
          -182 -124 -137 -216 -1 vhcurveto
          -144 hlineto
          117 556 104 -4 rlineto
          177 -7 86 -78 -147 vvcurveto
          -68 -667 rmoveto
          -203 -142 -131 -317 -11 vhcurveto
          -107 -4 136 629 rlineto
          142 hlineto
          192 -1 96 -114 -165 vvcurveto
          endchar
        </CharString>
        <CharString name="blinebelow">
          135 callsubr
          -617 -1002 -76 callsubr
        </CharString>
        <CharString name="braceleft">
          620 614 1038 rmoveto
          59 271 rlineto
          145 31 45 70 171 hhcurveto
          13 60 rlineto
          -48 hlineto
          -204 -135 -98 -188 -40 hvcurveto
          -73 -337 rlineto
          -154 -33 -100 -73 -104 hhcurveto
          -11 -51 rlineto
          104 69 -72 -163 -35 hvcurveto
          -84 -396 rlineto
          -190 -40 83 -146 204 hhcurveto
          48 hlineto
          13 60 rlineto
          -173 -4 120 153 33 hvcurveto
          68 315 rlineto
          44 207 -63 105 -166 32 186 30 98 98 44 202 rrcurveto
          endchar
        </CharString>
        <CharString name="braceright">
          620 447 1038 rmoveto
          -41 -202 55 -98 174 -30 -180 -32 -108 -105 -43 -207 -66 -315 rcurveline
          -153 -33 -55 -120 -173 hhcurveto
          -13 -60 rlineto
          48 hlineto
          204 146 146 190 40 hvcurveto
          85 396 rlineto
          163 34 100 72 104 hhcurveto
          11 51 rlineto
          -104 -69 73 154 33 hvcurveto
          70 337 rlineto
          188 39 -92 98 -204 hhcurveto
          -48 hlineto
          -13 -60 rlineto
          172 14 -70 -145 -30 hvcurveto
          endchar
        </CharString>
        <CharString name="bracketleft">
          620 123 -284 rmoveto
          411 hlineto
          13 60 -254 0 374 1748 253 0 13 60 rlineto
          -411 hlineto
          endchar
        </CharString>
        <CharString name="bracketright">
          620 773 1584 rmoveto
          -411 hlineto
          -13 -60 254 0 -374 -1748 -253 0 -13 -60 rlineto
          411 hlineto
          endchar
        </CharString>
        <CharString name="breve">
          1024 795 -68 callsubr
          72 callsubr
          endchar
        </CharString>
        <CharString name="breveacutecmb">
          -96 callgsubr
          199 -282 69 callsubr
        </CharString>
        <CharString name="breveacutecmb.short">
          0 653 1835 -51 callsubr
          -10 -54 rlineto
          214 -230 -15 callsubr
          endchar
        </CharString>
        <CharString name="brevebelowcmb">
          0 -62 -450 rmoveto
          162 98 116 181 7 hvcurveto
          -56 hlineto
          -104 -19 -65 -62 -120 hhcurveto
          -99 -66 57 75 hvcurveto
          -1 12 2 14 2 8 rrcurveto
          -56 hlineto
          -11 -27 -8 -34 1 -30 rrcurveto
          -120 94 -86 135 vhcurveto
          endchar
        </CharString>
        <CharString name="brevecmb">
          0 283 -68 callsubr
          72 callsubr
          endchar
        </CharString>
        <CharString name="brevecmb.short">
          0 274 1133 rmoveto
          158 96 110 173 7 hvcurveto
          -59 hlineto
          -99 -19 -63 -60 -116 68 callgsubr
          -32 -42 callgsubr
          endchar
        </CharString>
        <CharString name="brevecyrilliccmb">
          0 250 147 callsubr
          98 callgsubr
          endchar
        </CharString>
        <CharString name="brevecyrilliccmb.short">
          0 325 1594 rmoveto
          156 129 90 172 56 hvcurveto
          -63 21 rlineto
          -135 -48 -102 -79 -122 hhcurveto
          -42 -36 12 19 -26 hvcurveto
          44 5 35 40 48 vvcurveto
          58 -41 44 -54 -60 -42 -47 -62 -101 86 -85 130 vhcurveto
          endchar
        </CharString>
        <CharString name="brevegravecmb">
          0 58 -7 callsubr
          150 -507 69 callsubr
        </CharString>
        <CharString name="brevegravecmb.short">
          0 127 1835 rmoveto
          511 -75 12 54 -500 137 rlineto
          175 -421 -15 callsubr
          endchar
        </CharString>
        <CharString name="brevehookabovecmb">
          0 316 108 callsubr
          -12 -54 rlineto
          14 25 46 14 45 hhcurveto
          58 31 -24 -41 -9 hvcurveto
          -8 -39 -38 -24 -72 -21 rrcurveto
          44 -41 113 30 75 39 17 83 rlinecurve
          81 17 -75 42 -87 hhcurveto
          -79 -494 69 callsubr
        </CharString>
        <CharString name="brevehookabovecmb.short">
          0 388 194 callsubr
          endchar
        </CharString>
        <CharString name="brevetildecmb">
          0 414 129 callsubr
          -177 -305 69 callsubr
        </CharString>
        <CharString name="brevetildecmb.short">
          0 494 180 callsubr
          endchar
        </CharString>
        <CharString name="brokenbar">
          620 422 790 rmoveto
          112 hlineto
          168 794 rlineto
          -111 hlineto
          -397 -1868 rmoveto
          111 hlineto
          169 794 rlineto
          -111 hlineto
          endchar
        </CharString>
</ttFont>
